<svg width="445" height="160" viewBox="0 0 445 160" fill="none" xmlns="http://www.w3.org/2000/svg">
<mask id="path-1-outside-1_2_43" maskUnits="userSpaceOnUse" x="145" y="56" width="292" height="51" fill="black">
<rect fill="white" x="145" y="56" width="292" height="51"/>
<path d="M190.455 75.9091H177.636C177.545 74.8485 177.303 73.8864 176.909 73.0227C176.53 72.1591 176 71.4167 175.318 70.7955C174.652 70.1591 173.841 69.6742 172.886 69.3409C171.932 68.9924 170.848 68.8182 169.636 68.8182C167.515 68.8182 165.72 69.3333 164.25 70.3636C162.795 71.3939 161.689 72.8712 160.932 74.7955C160.189 76.7197 159.818 79.0303 159.818 81.7273C159.818 84.5758 160.197 86.9621 160.955 88.8864C161.727 90.7955 162.841 92.2348 164.295 93.2045C165.75 94.1591 167.5 94.6364 169.545 94.6364C170.712 94.6364 171.758 94.4924 172.682 94.2045C173.606 93.9015 174.409 93.4697 175.091 92.9091C175.773 92.3485 176.326 91.6742 176.75 90.8864C177.189 90.0833 177.485 89.1818 177.636 88.1818L190.455 88.2727C190.303 90.2424 189.75 92.25 188.795 94.2955C187.841 96.3258 186.485 98.2045 184.727 99.9318C182.985 101.644 180.826 103.023 178.25 104.068C175.674 105.114 172.682 105.636 169.273 105.636C165 105.636 161.167 104.72 157.773 102.886C154.394 101.053 151.72 98.3561 149.75 94.7955C147.795 91.2348 146.818 86.8788 146.818 81.7273C146.818 76.5455 147.818 72.1818 149.818 68.6364C151.818 65.0758 154.515 62.3864 157.909 60.5682C161.303 58.7348 165.091 57.8182 169.273 57.8182C172.212 57.8182 174.917 58.2197 177.386 59.0227C179.856 59.8258 182.023 61 183.886 62.5455C185.75 64.0758 187.25 65.9621 188.386 68.2045C189.523 70.447 190.212 73.0152 190.455 75.9091ZM209.401 105H195.765L211.128 58.4545H228.401L243.765 105H230.128L219.946 71.2727H219.583L209.401 105ZM206.855 86.6364H232.492V96.0909H206.855V86.6364ZM250.808 105V58.4545H270.898C274.353 58.4545 277.376 59.0833 279.967 60.3409C282.558 61.5985 284.573 63.4091 286.012 65.7727C287.451 68.1364 288.171 70.9697 288.171 74.2727C288.171 77.6061 287.429 80.4167 285.944 82.7045C284.474 84.9924 282.406 86.7197 279.739 87.8864C277.088 89.053 273.989 89.6364 270.444 89.6364H258.444V79.8182H267.898C269.383 79.8182 270.648 79.6364 271.694 79.2727C272.754 78.8939 273.565 78.2955 274.126 77.4773C274.701 76.6591 274.989 75.5909 274.989 74.2727C274.989 72.9394 274.701 71.8561 274.126 71.0227C273.565 70.1742 272.754 69.553 271.694 69.1591C270.648 68.75 269.383 68.5455 267.898 68.5455H263.444V105H250.808ZM278.08 83.6364L289.717 105H275.989L264.626 83.6364H278.08ZM296.117 105V58.4545H316.299C319.845 58.4545 322.822 58.9318 325.231 59.8864C327.655 60.8409 329.481 62.1894 330.708 63.9318C331.951 65.6742 332.572 67.7273 332.572 70.0909C332.572 71.803 332.193 73.3636 331.436 74.7727C330.693 76.1818 329.648 77.3636 328.299 78.3182C326.951 79.2576 325.375 79.9091 323.572 80.2727V80.7273C325.572 80.803 327.39 81.3106 329.027 82.25C330.663 83.1742 331.966 84.4545 332.936 86.0909C333.905 87.7121 334.39 89.6212 334.39 91.8182C334.39 94.3636 333.724 96.6288 332.39 98.6136C331.072 100.598 329.193 102.159 326.754 103.295C324.314 104.432 321.405 105 318.027 105H296.117ZM308.754 94.9091H314.663C316.784 94.9091 318.375 94.5152 319.436 93.7273C320.496 92.9242 321.027 91.7424 321.027 90.1818C321.027 89.0909 320.777 88.1667 320.277 87.4091C319.777 86.6515 319.064 86.0758 318.14 85.6818C317.231 85.2879 316.133 85.0909 314.845 85.0909H308.754V94.9091ZM308.754 77.2727H313.936C315.042 77.2727 316.019 77.0985 316.867 76.75C317.716 76.4015 318.375 75.9015 318.845 75.25C319.33 74.5833 319.572 73.7727 319.572 72.8182C319.572 71.3788 319.057 70.2803 318.027 69.5227C316.996 68.75 315.693 68.3636 314.117 68.3636H308.754V77.2727ZM386.518 81.7273C386.518 86.9091 385.511 91.2803 383.496 94.8409C381.481 98.3864 378.761 101.076 375.337 102.909C371.912 104.727 368.094 105.636 363.882 105.636C359.64 105.636 355.806 104.72 352.382 102.886C348.973 101.038 346.261 98.3409 344.246 94.7955C342.246 91.2348 341.246 86.8788 341.246 81.7273C341.246 76.5455 342.246 72.1818 344.246 68.6364C346.261 65.0758 348.973 62.3864 352.382 60.5682C355.806 58.7348 359.64 57.8182 363.882 57.8182C368.094 57.8182 371.912 58.7348 375.337 60.5682C378.761 62.3864 381.481 65.0758 383.496 68.6364C385.511 72.1818 386.518 76.5455 386.518 81.7273ZM373.518 81.7273C373.518 78.9394 373.147 76.5909 372.405 74.6818C371.678 72.7576 370.594 71.303 369.155 70.3182C367.731 69.3182 365.973 68.8182 363.882 68.8182C361.791 68.8182 360.026 69.3182 358.587 70.3182C357.162 71.303 356.079 72.7576 355.337 74.6818C354.609 76.5909 354.246 78.9394 354.246 81.7273C354.246 84.5152 354.609 86.8712 355.337 88.7955C356.079 90.7045 357.162 92.1591 358.587 93.1591C360.026 94.1439 361.791 94.6364 363.882 94.6364C365.973 94.6364 367.731 94.1439 369.155 93.1591C370.594 92.1591 371.678 90.7045 372.405 88.7955C373.147 86.8712 373.518 84.5152 373.518 81.7273ZM435.198 58.4545V105H424.652L407.834 80.5455H407.561V105H394.925V58.4545H405.652L422.198 82.8182H422.561V58.4545H435.198Z"/>
</mask>
<path d="M190.455 75.9091H177.636C177.545 74.8485 177.303 73.8864 176.909 73.0227C176.53 72.1591 176 71.4167 175.318 70.7955C174.652 70.1591 173.841 69.6742 172.886 69.3409C171.932 68.9924 170.848 68.8182 169.636 68.8182C167.515 68.8182 165.72 69.3333 164.25 70.3636C162.795 71.3939 161.689 72.8712 160.932 74.7955C160.189 76.7197 159.818 79.0303 159.818 81.7273C159.818 84.5758 160.197 86.9621 160.955 88.8864C161.727 90.7955 162.841 92.2348 164.295 93.2045C165.75 94.1591 167.5 94.6364 169.545 94.6364C170.712 94.6364 171.758 94.4924 172.682 94.2045C173.606 93.9015 174.409 93.4697 175.091 92.9091C175.773 92.3485 176.326 91.6742 176.75 90.8864C177.189 90.0833 177.485 89.1818 177.636 88.1818L190.455 88.2727C190.303 90.2424 189.75 92.25 188.795 94.2955C187.841 96.3258 186.485 98.2045 184.727 99.9318C182.985 101.644 180.826 103.023 178.25 104.068C175.674 105.114 172.682 105.636 169.273 105.636C165 105.636 161.167 104.72 157.773 102.886C154.394 101.053 151.72 98.3561 149.75 94.7955C147.795 91.2348 146.818 86.8788 146.818 81.7273C146.818 76.5455 147.818 72.1818 149.818 68.6364C151.818 65.0758 154.515 62.3864 157.909 60.5682C161.303 58.7348 165.091 57.8182 169.273 57.8182C172.212 57.8182 174.917 58.2197 177.386 59.0227C179.856 59.8258 182.023 61 183.886 62.5455C185.75 64.0758 187.25 65.9621 188.386 68.2045C189.523 70.447 190.212 73.0152 190.455 75.9091ZM209.401 105H195.765L211.128 58.4545H228.401L243.765 105H230.128L219.946 71.2727H219.583L209.401 105ZM206.855 86.6364H232.492V96.0909H206.855V86.6364ZM250.808 105V58.4545H270.898C274.353 58.4545 277.376 59.0833 279.967 60.3409C282.558 61.5985 284.573 63.4091 286.012 65.7727C287.451 68.1364 288.171 70.9697 288.171 74.2727C288.171 77.6061 287.429 80.4167 285.944 82.7045C284.474 84.9924 282.406 86.7197 279.739 87.8864C277.088 89.053 273.989 89.6364 270.444 89.6364H258.444V79.8182H267.898C269.383 79.8182 270.648 79.6364 271.694 79.2727C272.754 78.8939 273.565 78.2955 274.126 77.4773C274.701 76.6591 274.989 75.5909 274.989 74.2727C274.989 72.9394 274.701 71.8561 274.126 71.0227C273.565 70.1742 272.754 69.553 271.694 69.1591C270.648 68.75 269.383 68.5455 267.898 68.5455H263.444V105H250.808ZM278.08 83.6364L289.717 105H275.989L264.626 83.6364H278.08ZM296.117 105V58.4545H316.299C319.845 58.4545 322.822 58.9318 325.231 59.8864C327.655 60.8409 329.481 62.1894 330.708 63.9318C331.951 65.6742 332.572 67.7273 332.572 70.0909C332.572 71.803 332.193 73.3636 331.436 74.7727C330.693 76.1818 329.648 77.3636 328.299 78.3182C326.951 79.2576 325.375 79.9091 323.572 80.2727V80.7273C325.572 80.803 327.39 81.3106 329.027 82.25C330.663 83.1742 331.966 84.4545 332.936 86.0909C333.905 87.7121 334.39 89.6212 334.39 91.8182C334.39 94.3636 333.724 96.6288 332.39 98.6136C331.072 100.598 329.193 102.159 326.754 103.295C324.314 104.432 321.405 105 318.027 105H296.117ZM308.754 94.9091H314.663C316.784 94.9091 318.375 94.5152 319.436 93.7273C320.496 92.9242 321.027 91.7424 321.027 90.1818C321.027 89.0909 320.777 88.1667 320.277 87.4091C319.777 86.6515 319.064 86.0758 318.14 85.6818C317.231 85.2879 316.133 85.0909 314.845 85.0909H308.754V94.9091ZM308.754 77.2727H313.936C315.042 77.2727 316.019 77.0985 316.867 76.75C317.716 76.4015 318.375 75.9015 318.845 75.25C319.33 74.5833 319.572 73.7727 319.572 72.8182C319.572 71.3788 319.057 70.2803 318.027 69.5227C316.996 68.75 315.693 68.3636 314.117 68.3636H308.754V77.2727ZM386.518 81.7273C386.518 86.9091 385.511 91.2803 383.496 94.8409C381.481 98.3864 378.761 101.076 375.337 102.909C371.912 104.727 368.094 105.636 363.882 105.636C359.64 105.636 355.806 104.72 352.382 102.886C348.973 101.038 346.261 98.3409 344.246 94.7955C342.246 91.2348 341.246 86.8788 341.246 81.7273C341.246 76.5455 342.246 72.1818 344.246 68.6364C346.261 65.0758 348.973 62.3864 352.382 60.5682C355.806 58.7348 359.64 57.8182 363.882 57.8182C368.094 57.8182 371.912 58.7348 375.337 60.5682C378.761 62.3864 381.481 65.0758 383.496 68.6364C385.511 72.1818 386.518 76.5455 386.518 81.7273ZM373.518 81.7273C373.518 78.9394 373.147 76.5909 372.405 74.6818C371.678 72.7576 370.594 71.303 369.155 70.3182C367.731 69.3182 365.973 68.8182 363.882 68.8182C361.791 68.8182 360.026 69.3182 358.587 70.3182C357.162 71.303 356.079 72.7576 355.337 74.6818C354.609 76.5909 354.246 78.9394 354.246 81.7273C354.246 84.5152 354.609 86.8712 355.337 88.7955C356.079 90.7045 357.162 92.1591 358.587 93.1591C360.026 94.1439 361.791 94.6364 363.882 94.6364C365.973 94.6364 367.731 94.1439 369.155 93.1591C370.594 92.1591 371.678 90.7045 372.405 88.7955C373.147 86.8712 373.518 84.5152 373.518 81.7273ZM435.198 58.4545V105H424.652L407.834 80.5455H407.561V105H394.925V58.4545H405.652L422.198 82.8182H422.561V58.4545H435.198Z" fill="black"/>
<path d="M190.455 75.9091V76.9091H191.542L191.451 75.8256L190.455 75.9091ZM177.636 75.9091L176.64 75.9945L176.718 76.9091H177.636V75.9091ZM176.909 73.0227L175.993 73.4244L175.996 73.4311L175.999 73.4377L176.909 73.0227ZM175.318 70.7955L174.628 71.5188L174.636 71.5268L174.645 71.5346L175.318 70.7955ZM172.886 69.3409L172.543 70.2804L172.557 70.285L172.886 69.3409ZM164.25 70.3636L163.676 69.5448L163.672 69.5476L164.25 70.3636ZM160.932 74.7955L160.001 74.4291L159.999 74.4355L160.932 74.7955ZM160.955 88.8864L160.024 89.2527L160.028 89.2616L160.955 88.8864ZM164.295 93.2045L163.741 94.0366L163.747 94.0406L164.295 93.2045ZM172.682 94.2045L172.979 95.1593L172.986 95.1571L172.993 95.1548L172.682 94.2045ZM175.091 92.9091L175.726 93.6815L175.726 93.6815L175.091 92.9091ZM176.75 90.8864L175.873 90.4063L175.87 90.4123L176.75 90.8864ZM177.636 88.1818L177.643 87.1818L176.777 87.1757L176.648 88.032L177.636 88.1818ZM190.455 88.2727L191.452 88.3494L191.534 87.2804L190.462 87.2728L190.455 88.2727ZM188.795 94.2955L189.7 94.7209L189.702 94.7183L188.795 94.2955ZM184.727 99.9318L185.428 100.645L185.428 100.645L184.727 99.9318ZM178.25 104.068L177.874 103.142L178.25 104.068ZM157.773 102.886L157.296 103.765L157.297 103.766L157.773 102.886ZM149.75 94.7955L148.873 95.2767L148.875 95.2795L149.75 94.7955ZM149.818 68.6364L150.689 69.1277L150.69 69.1261L149.818 68.6364ZM157.909 60.5682L158.381 61.4497L158.384 61.448L157.909 60.5682ZM177.386 59.0227L177.696 58.0717V58.0717L177.386 59.0227ZM183.886 62.5455L183.248 63.3152L183.252 63.3183L183.886 62.5455ZM188.386 68.2045L187.494 68.6566V68.6566L188.386 68.2045ZM190.455 75.9091V74.9091H177.636V75.9091V76.9091H190.455V75.9091ZM177.636 75.9091L178.633 75.8237C178.533 74.6628 178.266 73.5873 177.819 72.6077L176.909 73.0227L175.999 73.4377C176.34 74.1854 176.558 75.0342 176.64 75.9945L177.636 75.9091ZM176.909 73.0227L177.825 72.6211C177.391 71.6321 176.779 70.7739 175.992 70.0563L175.318 70.7955L174.645 71.5346C175.221 72.0594 175.669 72.686 175.993 73.4244L176.909 73.0227ZM175.318 70.7955L176.009 70.0721C175.229 69.3281 174.292 68.7726 173.216 68.3968L172.886 69.3409L172.557 70.285C173.39 70.5759 174.074 70.9901 174.628 71.5188L175.318 70.7955ZM172.886 69.3409L173.229 68.4016C172.146 68.006 170.943 67.8182 169.636 67.8182V68.8182V69.8182C170.753 69.8182 171.718 69.9788 172.543 70.2803L172.886 69.3409ZM169.636 68.8182V67.8182C167.348 67.8182 165.343 68.3764 163.676 69.5448L164.25 70.3636L164.824 71.1825C166.097 70.2903 167.682 69.8182 169.636 69.8182V68.8182ZM164.25 70.3636L163.672 69.5476C162.035 70.7075 160.818 72.3536 160.001 74.4291L160.932 74.7955L161.862 75.1618C162.56 73.3889 163.556 72.0804 164.828 71.1797L164.25 70.3636ZM160.932 74.7955L159.999 74.4355C159.201 76.5039 158.818 78.9431 158.818 81.7273H159.818H160.818C160.818 79.1175 161.178 76.9355 161.865 75.1554L160.932 74.7955ZM159.818 81.7273H158.818C158.818 84.657 159.207 87.1768 160.024 89.2527L160.955 88.8864L161.885 88.52C161.187 86.7475 160.818 84.4945 160.818 81.7273H159.818ZM160.955 88.8864L160.028 89.2616C160.862 91.3229 162.091 92.9367 163.741 94.0366L164.295 93.2045L164.85 92.3725C163.591 91.5329 162.593 90.268 161.881 88.5112L160.955 88.8864ZM164.295 93.2045L163.747 94.0406C165.391 95.1198 167.34 95.6364 169.545 95.6364V94.6364V93.6364C167.66 93.6364 166.109 93.1984 164.844 92.3685L164.295 93.2045ZM169.545 94.6364V95.6364C170.793 95.6364 171.941 95.4826 172.979 95.1593L172.682 94.2045L172.384 93.2498C171.574 93.5023 170.631 93.6364 169.545 93.6364V94.6364ZM172.682 94.2045L172.993 95.1548C174.024 94.817 174.939 94.3286 175.726 93.6815L175.091 92.9091L174.456 92.1367C173.879 92.6108 173.189 92.986 172.37 93.2543L172.682 94.2045ZM175.091 92.9091L175.726 93.6815C176.51 93.0372 177.145 92.2612 177.63 91.3605L176.75 90.8864L175.87 90.4123C175.506 91.0873 175.036 91.6598 174.456 92.1367L175.091 92.9091ZM176.75 90.8864L177.627 91.3664C178.128 90.4504 178.458 89.4353 178.625 88.3316L177.636 88.1818L176.648 88.032C176.512 88.9284 176.25 89.7162 175.873 90.4063L176.75 90.8864ZM177.636 88.1818L177.629 89.1818L190.447 89.2727L190.455 88.2727L190.462 87.2728L177.643 87.1818L177.636 88.1818ZM190.455 88.2727L189.457 88.196C189.316 90.03 188.8 91.9207 187.889 93.8726L188.795 94.2955L189.702 94.7183C190.7 92.5793 191.29 90.4549 191.452 88.3494L190.455 88.2727ZM188.795 94.2955L187.89 93.87C186.991 95.783 185.708 97.5662 184.026 99.2186L184.727 99.9318L185.428 100.645C187.262 98.8429 188.691 96.8685 189.7 94.7209L188.795 94.2955ZM184.727 99.9318L184.026 99.2185C182.389 100.827 180.345 102.139 177.874 103.142L178.25 104.068L178.626 104.995C181.306 103.907 183.58 102.461 185.428 100.645L184.727 99.9318ZM178.25 104.068L177.874 103.142C175.441 104.129 172.581 104.636 169.273 104.636V105.636V106.636C172.782 106.636 175.907 106.098 178.626 104.995L178.25 104.068ZM169.273 105.636V104.636C165.148 104.636 161.481 103.753 158.248 102.007L157.773 102.886L157.297 103.766C160.853 105.687 164.852 106.636 169.273 106.636V105.636ZM157.773 102.886L158.25 102.007C155.049 100.27 152.508 97.7153 150.625 94.3114L149.75 94.7955L148.875 95.2795C150.931 98.9968 153.739 101.836 157.296 103.765L157.773 102.886ZM149.75 94.7955L150.627 94.3143C148.772 90.9355 147.818 86.7548 147.818 81.7273H146.818H145.818C145.818 87.0028 146.819 91.5342 148.873 95.2767L149.75 94.7955ZM146.818 81.7273H147.818C147.818 76.6715 148.794 72.4876 150.689 69.1277L149.818 68.6364L148.947 68.145C146.843 71.876 145.818 76.4194 145.818 81.7273H146.818ZM149.818 68.6364L150.69 69.1261C152.603 65.7209 155.166 63.1724 158.381 61.4497L157.909 60.5682L157.437 59.6867C153.865 61.6003 151.034 64.4306 148.946 68.1466L149.818 68.6364ZM157.909 60.5682L158.384 61.448C161.62 59.7001 165.243 58.8182 169.273 58.8182V57.8182V56.8182C164.939 56.8182 160.986 57.7696 157.434 59.6883L157.909 60.5682ZM169.273 57.8182V58.8182C172.121 58.8182 174.72 59.2071 177.077 59.9737L177.386 59.0227L177.696 58.0717C175.114 57.2323 172.303 56.8182 169.273 56.8182V57.8182ZM177.386 59.0227L177.077 59.9737C179.435 60.7405 181.489 61.8561 183.248 63.3152L183.886 62.5455L184.525 61.7757C182.557 60.1439 180.277 58.911 177.696 58.0717L177.386 59.0227ZM183.886 62.5455L183.252 63.3183C185.004 64.7569 186.418 66.5324 187.494 68.6566L188.386 68.2045L189.278 67.7525C188.082 65.3918 186.496 63.3946 184.521 61.7726L183.886 62.5455ZM188.386 68.2045L187.494 68.6566C188.564 70.7676 189.225 73.2074 189.458 75.9926L190.455 75.9091L191.451 75.8256C191.2 72.8229 190.481 70.1263 189.278 67.7525L188.386 68.2045ZM209.401 105V106H210.144L210.358 105.289L209.401 105ZM195.765 105L194.815 104.687L194.381 106H195.765V105ZM211.128 58.4545V57.4545H210.405L210.179 58.1411L211.128 58.4545ZM228.401 58.4545L229.351 58.1411L229.124 57.4545H228.401V58.4545ZM243.765 105V106H245.148L244.714 104.687L243.765 105ZM230.128 105L229.171 105.289L229.385 106H230.128V105ZM219.946 71.2727L220.904 70.9837L220.689 70.2727H219.946V71.2727ZM219.583 71.2727V70.2727H218.84L218.625 70.9837L219.583 71.2727ZM206.855 86.6364V85.6364H205.855V86.6364H206.855ZM232.492 86.6364H233.492V85.6364H232.492V86.6364ZM232.492 96.0909V97.0909H233.492V96.0909H232.492ZM206.855 96.0909H205.855V97.0909H206.855V96.0909ZM209.401 105V104H195.765V105V106H209.401V105ZM195.765 105L196.714 105.313L212.078 58.768L211.128 58.4545L210.179 58.1411L194.815 104.687L195.765 105ZM211.128 58.4545V59.4545H228.401V58.4545V57.4545H211.128V58.4545ZM228.401 58.4545L227.451 58.768L242.815 105.313L243.765 105L244.714 104.687L229.351 58.1411L228.401 58.4545ZM243.765 105V104H230.128V105V106H243.765V105ZM230.128 105L231.086 104.711L220.904 70.9837L219.946 71.2727L218.989 71.5617L229.171 105.289L230.128 105ZM219.946 71.2727V70.2727H219.583V71.2727V72.2727H219.946V71.2727ZM219.583 71.2727L218.625 70.9837L208.444 104.711L209.401 105L210.358 105.289L220.54 71.5617L219.583 71.2727ZM206.855 86.6364V87.6364H232.492V86.6364V85.6364H206.855V86.6364ZM232.492 86.6364H231.492V96.0909H232.492H233.492V86.6364H232.492ZM232.492 96.0909V95.0909H206.855V96.0909V97.0909H232.492V96.0909ZM206.855 96.0909H207.855V86.6364H206.855H205.855V96.0909H206.855ZM250.808 105H249.808V106H250.808V105ZM250.808 58.4545V57.4545H249.808V58.4545H250.808ZM279.967 60.3409L279.53 61.2405L279.967 60.3409ZM286.012 65.7727L286.866 65.2526V65.2526L286.012 65.7727ZM285.944 82.7045L285.105 82.1601L285.103 82.1641L285.944 82.7045ZM279.739 87.8864L279.339 86.9702L279.337 86.971L279.739 87.8864ZM258.444 89.6364H257.444V90.6364H258.444V89.6364ZM258.444 79.8182V78.8182H257.444V79.8182H258.444ZM271.694 79.2727L272.022 80.2173L272.03 80.2145L271.694 79.2727ZM274.126 77.4773L273.308 76.9017L273.301 76.912L274.126 77.4773ZM274.126 71.0227L273.291 71.574L273.297 71.5826L273.303 71.5912L274.126 71.0227ZM271.694 69.1591L271.329 70.0903L271.338 70.0935L271.346 70.0965L271.694 69.1591ZM263.444 68.5455V67.5455H262.444V68.5455H263.444ZM263.444 105V106H264.444V105H263.444ZM278.08 83.6364L278.958 83.158L278.674 82.6364H278.08V83.6364ZM289.717 105V106H291.4L290.595 104.522L289.717 105ZM275.989 105L275.106 105.47L275.389 106H275.989V105ZM264.626 83.6364V82.6364H262.961L263.743 84.106L264.626 83.6364ZM250.808 105H251.808V58.4545H250.808H249.808V105H250.808ZM250.808 58.4545V59.4545H270.898V58.4545V57.4545H250.808V58.4545ZM270.898 58.4545V59.4545C274.231 59.4545 277.1 60.0609 279.53 61.2405L279.967 60.3409L280.403 59.4413C277.652 58.1058 274.474 57.4545 270.898 57.4545V58.4545ZM279.967 60.3409L279.53 61.2405C281.956 62.4179 283.823 64.1 285.158 66.2929L286.012 65.7727L286.866 65.2526C285.323 62.7181 283.159 60.7791 280.403 59.4413L279.967 60.3409ZM286.012 65.7727L285.158 66.2928C286.485 68.4718 287.171 71.1174 287.171 74.2727H288.171H289.171C289.171 70.822 288.418 67.8009 286.866 65.2526L286.012 65.7727ZM288.171 74.2727H287.171C287.171 77.456 286.463 80.0671 285.105 82.1601L285.944 82.7045L286.783 83.2489C288.394 80.7662 289.171 77.7561 289.171 74.2727H288.171ZM285.944 82.7045L285.103 82.1641C283.747 84.2742 281.838 85.8767 279.339 86.9702L279.739 87.8864L280.14 88.8025C282.974 87.5626 285.201 85.7107 286.785 83.245L285.944 82.7045ZM279.739 87.8864L279.337 86.971C276.837 88.0708 273.881 88.6364 270.444 88.6364V89.6364V90.6364C274.098 90.6364 277.339 90.0352 280.142 88.8017L279.739 87.8864ZM270.444 89.6364V88.6364H258.444V89.6364V90.6364H270.444V89.6364ZM258.444 89.6364H259.444V79.8182H258.444H257.444V89.6364H258.444ZM258.444 79.8182V80.8182H267.898V79.8182V78.8182H258.444V79.8182ZM267.898 79.8182V80.8182C269.459 80.8182 270.842 80.6277 272.022 80.2172L271.694 79.2727L271.365 78.3282C270.455 78.645 269.307 78.8182 267.898 78.8182V79.8182ZM271.694 79.2727L272.03 80.2145C273.261 79.7748 274.255 79.0576 274.951 78.0425L274.126 77.4773L273.301 76.912C272.875 77.5333 272.248 78.0131 271.358 78.331L271.694 79.2727ZM274.126 77.4773L274.943 78.0528C275.67 77.0199 275.989 75.7322 275.989 74.2727H274.989H273.989C273.989 75.4497 273.733 76.2983 273.308 76.9018L274.126 77.4773ZM274.989 74.2727H275.989C275.989 72.7998 275.671 71.5003 274.948 70.4543L274.126 71.0227L273.303 71.5912C273.732 72.2119 273.989 73.079 273.989 74.2727H274.989ZM274.126 71.0227L274.96 70.4715C274.269 69.4261 273.278 68.6808 272.042 68.2217L271.694 69.1591L271.346 70.0965C272.231 70.4253 272.861 70.9224 273.291 71.574L274.126 71.0227ZM271.694 69.1591L272.058 68.2278C270.866 67.7613 269.47 67.5455 267.898 67.5455V68.5455V69.5455C269.297 69.5455 270.431 69.7387 271.329 70.0903L271.694 69.1591ZM267.898 68.5455V67.5455H263.444V68.5455V69.5455H267.898V68.5455ZM263.444 68.5455H262.444V105H263.444H264.444V68.5455H263.444ZM263.444 105V104H250.808V105V106H263.444V105ZM278.08 83.6364L277.202 84.1147L288.838 105.478L289.717 105L290.595 104.522L278.958 83.158L278.08 83.6364ZM289.717 105V104H275.989V105V106H289.717V105ZM275.989 105L276.872 104.53L265.509 83.1667L264.626 83.6364L263.743 84.106L275.106 105.47L275.989 105ZM264.626 83.6364V84.6364H278.08V83.6364V82.6364H264.626V83.6364ZM296.117 105H295.117V106H296.117V105ZM296.117 58.4545V57.4545H295.117V58.4545H296.117ZM325.231 59.8864L324.863 60.816L324.865 60.8168L325.231 59.8864ZM330.708 63.9318L329.891 64.5077L329.894 64.5124L330.708 63.9318ZM331.436 74.7727L330.555 74.2992L330.551 74.3066L331.436 74.7727ZM328.299 78.3182L328.871 79.1387L328.877 79.1344L328.299 78.3182ZM323.572 80.2727L323.374 79.2925L322.572 79.4543V80.2727H323.572ZM323.572 80.7273H322.572V81.6901L323.534 81.7266L323.572 80.7273ZM329.027 82.25L328.529 83.1173L328.535 83.1207L329.027 82.25ZM332.936 86.0909L332.075 86.6007L332.077 86.6042L332.936 86.0909ZM332.39 98.6136L331.56 98.056L331.557 98.0604L332.39 98.6136ZM326.754 103.295L326.332 102.389V102.389L326.754 103.295ZM308.754 94.9091H307.754V95.9091H308.754V94.9091ZM319.436 93.7273L320.032 94.53L320.039 94.5245L319.436 93.7273ZM318.14 85.6818L317.743 86.5994L317.748 86.6017L318.14 85.6818ZM308.754 85.0909V84.0909H307.754V85.0909H308.754ZM308.754 77.2727H307.754V78.2727H308.754V77.2727ZM316.867 76.75L317.247 77.675V77.675L316.867 76.75ZM318.845 75.25L318.036 74.6618L318.034 74.6652L318.845 75.25ZM318.027 69.5227L317.427 70.3228L317.434 70.3284L318.027 69.5227ZM308.754 68.3636V67.3636H307.754V68.3636H308.754ZM296.117 105H297.117V58.4545H296.117H295.117V105H296.117ZM296.117 58.4545V59.4545H316.299V58.4545V57.4545H296.117V58.4545ZM316.299 58.4545V59.4545C319.762 59.4545 322.605 59.9216 324.863 60.816L325.231 59.8864L325.599 58.9567C323.039 57.942 319.927 57.4545 316.299 57.4545V58.4545ZM325.231 59.8864L324.865 60.8168C327.148 61.7158 328.799 62.9574 329.891 64.5077L330.708 63.9318L331.526 63.356C330.163 61.4214 328.163 59.966 325.598 58.9559L325.231 59.8864ZM330.708 63.9318L329.894 64.5124C331.003 66.0677 331.572 67.9126 331.572 70.0909H332.572H333.572C333.572 67.5419 332.898 65.2808 331.523 63.3512L330.708 63.9318ZM332.572 70.0909H331.572C331.572 71.6497 331.229 73.0458 330.555 74.2992L331.436 74.7727L332.316 75.2463C333.158 73.6814 333.572 71.9564 333.572 70.0909H332.572ZM331.436 74.7727L330.551 74.3066C329.885 75.5712 328.947 76.6348 327.722 77.502L328.299 78.3182L328.877 79.1344C330.349 78.0924 331.502 76.7924 332.32 75.2389L331.436 74.7727ZM328.299 78.3182L327.728 77.4977C326.504 78.3499 325.059 78.9527 323.374 79.2925L323.572 80.2727L323.77 81.253C325.691 80.8655 327.397 80.1652 328.871 79.1387L328.299 78.3182ZM323.572 80.2727H322.572V80.7273H323.572H324.572V80.2727H323.572ZM323.572 80.7273L323.534 81.7266C325.383 81.7966 327.041 82.2633 328.529 83.1173L329.027 82.25L329.524 81.3827C327.739 80.3579 325.762 79.8095 323.61 79.728L323.572 80.7273ZM329.027 82.25L328.535 83.1207C330.017 83.9579 331.194 85.1129 332.075 86.6007L332.936 86.0909L333.796 85.5811C332.738 83.7962 331.309 82.3906 329.518 81.3793L329.027 82.25ZM332.936 86.0909L332.077 86.6042C332.94 88.0465 333.39 89.7721 333.39 91.8182H334.39H335.39C335.39 89.4703 334.871 87.3777 333.794 85.5776L332.936 86.0909ZM334.39 91.8182H333.39C333.39 94.1785 332.775 96.2469 331.56 98.056L332.39 98.6136L333.22 99.1713C334.672 97.0107 335.39 94.5488 335.39 91.8182H334.39ZM332.39 98.6136L331.557 98.0604C330.354 99.8728 328.626 101.32 326.332 102.389L326.754 103.295L327.176 104.202C329.76 102.998 331.791 101.324 333.223 99.1669L332.39 98.6136ZM326.754 103.295L326.332 102.389C324.054 103.45 321.296 104 318.027 104V105V106C321.515 106 324.575 105.414 327.176 104.202L326.754 103.295ZM318.027 105V104H296.117V105V106H318.027V105ZM308.754 94.9091V95.9091H314.663V94.9091V93.9091H308.754V94.9091ZM314.663 94.9091V95.9091C316.879 95.9091 318.723 95.5027 320.032 94.53L319.436 93.7273L318.839 92.9245C318.028 93.5276 316.689 93.9091 314.663 93.9091V94.9091ZM319.436 93.7273L320.039 94.5245C321.395 93.4983 322.027 91.9943 322.027 90.1818H321.027H320.027C320.027 91.4905 319.598 92.3502 318.832 92.93L319.436 93.7273ZM321.027 90.1818H322.027C322.027 88.9351 321.739 87.8098 321.111 86.8582L320.277 87.4091L319.442 87.9599C319.814 88.5236 320.027 89.2467 320.027 90.1818H321.027ZM320.277 87.4091L321.111 86.8582C320.492 85.9196 319.617 85.2242 318.532 84.7619L318.14 85.6818L317.748 86.6017C318.512 86.9273 319.061 87.3834 319.442 87.9599L320.277 87.4091ZM318.14 85.6818L318.538 84.7643C317.472 84.3023 316.23 84.0909 314.845 84.0909V85.0909V86.0909C316.035 86.0909 316.991 86.2735 317.743 86.5994L318.14 85.6818ZM314.845 85.0909V84.0909H308.754V85.0909V86.0909H314.845V85.0909ZM308.754 85.0909H307.754V94.9091H308.754H309.754V85.0909H308.754ZM308.754 77.2727V78.2727H313.936V77.2727V76.2727H308.754V77.2727ZM313.936 77.2727V78.2727C315.146 78.2727 316.256 78.0821 317.247 77.675L316.867 76.75L316.488 75.825C315.782 76.1149 314.938 76.2727 313.936 76.2727V77.2727ZM316.867 76.75L317.247 77.675C318.243 77.2659 319.062 76.6583 319.656 75.8348L318.845 75.25L318.034 74.6652C317.688 75.1447 317.188 75.5371 316.488 75.825L316.867 76.75ZM318.845 75.25L319.654 75.8382C320.282 74.9746 320.572 73.9495 320.572 72.8182H319.572H318.572C318.572 73.596 318.378 74.1921 318.036 74.6618L318.845 75.25ZM319.572 72.8182H320.572C320.572 71.1066 319.94 69.6887 318.619 68.7171L318.027 69.5227L317.434 70.3284C318.173 70.8719 318.572 71.6509 318.572 72.8182H319.572ZM318.027 69.5227L318.627 68.7227C317.387 67.7934 315.86 67.3636 314.117 67.3636V68.3636V69.3636C315.526 69.3636 316.605 69.7066 317.427 70.3227L318.027 69.5227ZM314.117 68.3636V67.3636H308.754V68.3636V69.3636H314.117V68.3636ZM308.754 68.3636H307.754V77.2727H308.754H309.754V68.3636H308.754ZM383.496 94.8409L384.365 95.335L384.366 95.3335L383.496 94.8409ZM375.337 102.909L375.806 103.792L375.809 103.791L375.337 102.909ZM352.382 102.886L351.905 103.765L351.91 103.768L352.382 102.886ZM344.246 94.7955L343.374 95.2852L343.376 95.2896L344.246 94.7955ZM344.246 68.6364L343.375 68.1438L343.375 68.145L344.246 68.6364ZM352.382 60.5682L352.853 61.4505L352.854 61.4498L352.382 60.5682ZM375.337 60.5682L374.865 61.4498L374.868 61.4514L375.337 60.5682ZM383.496 68.6364L382.625 69.1289L382.626 69.1305L383.496 68.6364ZM372.405 74.6818L371.469 75.0354L371.473 75.0443L372.405 74.6818ZM369.155 70.3182L368.58 71.1367L368.59 71.1435L369.155 70.3182ZM358.587 70.3182L359.155 71.1407L359.157 71.1394L358.587 70.3182ZM355.337 74.6818L354.404 74.3219L354.402 74.3258L355.337 74.6818ZM355.337 88.7955L354.401 89.149L354.405 89.1579L355.337 88.7955ZM358.587 93.1591L358.012 93.9776L358.022 93.9844L358.587 93.1591ZM369.155 93.1591L369.724 93.9816L369.725 93.9803L369.155 93.1591ZM372.405 88.7955L371.472 88.4355L371.47 88.4395L372.405 88.7955ZM386.518 81.7273H385.518C385.518 86.7817 384.536 90.973 382.625 94.3484L383.496 94.8409L384.366 95.3335C386.486 91.5877 387.518 87.0365 387.518 81.7273H386.518ZM383.496 94.8409L382.626 94.3468C380.7 97.7368 378.114 100.288 374.865 102.027L375.337 102.909L375.809 103.791C379.408 101.864 382.262 99.036 384.365 95.335L383.496 94.8409ZM375.337 102.909L374.868 102.026C371.6 103.761 367.945 104.636 363.882 104.636V105.636V106.636C368.243 106.636 372.225 105.694 375.806 103.792L375.337 102.909ZM363.882 105.636V104.636C359.789 104.636 356.12 103.753 352.854 102.005L352.382 102.886L351.91 103.768C355.493 105.686 359.49 106.636 363.882 106.636V105.636ZM352.382 102.886L352.859 102.007C349.623 100.253 347.043 97.6931 345.115 94.3013L344.246 94.7955L343.376 95.2896C345.479 98.9888 348.323 101.823 351.905 103.765L352.382 102.886ZM344.246 94.7955L345.118 94.3057C343.221 90.9289 342.246 86.7513 342.246 81.7273H341.246H340.246C340.246 87.0062 341.271 91.5408 343.374 95.2852L344.246 94.7955ZM341.246 81.7273H342.246C342.246 76.6715 343.221 72.4876 345.117 69.1277L344.246 68.6364L343.375 68.145C341.27 71.876 340.246 76.4194 340.246 81.7273H341.246ZM344.246 68.6364L345.116 69.1289C347.043 65.7234 349.621 63.174 352.853 61.4505L352.382 60.5682L351.911 59.6858C348.325 61.5987 345.478 64.4282 343.375 68.1438L344.246 68.6364ZM352.382 60.5682L352.854 61.4498C356.12 59.7012 359.789 58.8182 363.882 58.8182V57.8182V56.8182C359.49 56.8182 355.493 57.7685 351.91 59.6866L352.382 60.5682ZM363.882 57.8182V58.8182C367.944 58.8182 371.598 59.7006 374.865 61.4498L375.337 60.5682L375.809 59.6866C372.227 57.7691 368.245 56.8182 363.882 56.8182V57.8182ZM375.337 60.5682L374.868 61.4514C378.114 63.1752 380.699 65.7245 382.625 69.1289L383.496 68.6364L384.366 68.1438C382.262 64.427 379.408 61.5975 375.806 59.685L375.337 60.5682ZM383.496 68.6364L382.626 69.1305C384.536 72.4898 385.518 76.6727 385.518 81.7273H386.518H387.518C387.518 76.4182 386.486 71.8738 384.365 68.1422L383.496 68.6364ZM373.518 81.7273H374.518C374.518 78.8573 374.137 76.3775 373.337 74.3194L372.405 74.6818L371.473 75.0443C372.157 76.8043 372.518 79.0215 372.518 81.7273H373.518ZM372.405 74.6818L373.34 74.3283C372.554 72.2478 371.356 70.6129 369.719 69.4929L369.155 70.3182L368.59 71.1435C369.832 71.9931 370.801 73.2674 371.469 75.0354L372.405 74.6818ZM369.155 70.3182L369.729 69.4998C368.105 68.3594 366.136 67.8182 363.882 67.8182V68.8182V69.8182C365.81 69.8182 367.356 70.2769 368.58 71.1366L369.155 70.3182ZM363.882 68.8182V67.8182C361.627 67.8182 359.653 68.3595 358.016 69.4969L358.587 70.3182L359.157 71.1394C360.399 70.2768 361.955 69.8182 363.882 69.8182V68.8182ZM358.587 70.3182L358.018 69.4957C356.399 70.615 355.204 72.2469 354.404 74.3219L355.337 74.6818L356.27 75.0418C356.954 73.2683 357.926 71.991 359.155 71.1407L358.587 70.3182ZM355.337 74.6818L354.402 74.3258C353.619 76.3818 353.246 78.8592 353.246 81.7273H354.246H355.246C355.246 79.0196 355.6 76.8 356.271 75.0378L355.337 74.6818ZM354.246 81.7273H353.246C353.246 84.5958 353.619 87.0795 354.401 89.149L355.337 88.7955L356.272 88.4419C355.6 86.6629 355.246 84.4345 355.246 81.7273H354.246ZM355.337 88.7955L354.405 89.1579C355.206 91.2177 356.399 92.8452 358.012 93.9775L358.587 93.1591L359.161 92.3407C357.925 91.473 356.952 90.1914 356.269 88.433L355.337 88.7955ZM358.587 93.1591L358.022 93.9844C359.658 95.1041 361.63 95.6364 363.882 95.6364V94.6364V93.6364C361.952 93.6364 360.394 93.1838 359.151 92.3338L358.587 93.1591ZM363.882 94.6364V95.6364C366.133 95.6364 368.1 95.1042 369.724 93.9816L369.155 93.1591L368.586 92.3366C367.361 93.1837 365.813 93.6364 363.882 93.6364V94.6364ZM369.155 93.1591L369.725 93.9803C371.356 92.8473 372.552 91.2167 373.339 89.1515L372.405 88.7955L371.47 88.4395C370.803 90.1924 369.832 91.4708 368.584 92.3378L369.155 93.1591ZM372.405 88.7955L373.338 89.1554C374.137 87.0837 374.518 84.5977 374.518 81.7273H373.518H372.518C372.518 84.4326 372.157 86.6587 371.472 88.4355L372.405 88.7955ZM435.198 58.4545H436.198V57.4545H435.198V58.4545ZM435.198 105V106H436.198V105H435.198ZM424.652 105L423.828 105.567L424.126 106H424.652V105ZM407.834 80.5455L408.658 79.9788L408.36 79.5455H407.834V80.5455ZM407.561 80.5455V79.5455H406.561V80.5455H407.561ZM407.561 105V106H408.561V105H407.561ZM394.925 105H393.925V106H394.925V105ZM394.925 58.4545V57.4545H393.925V58.4545H394.925ZM405.652 58.4545L406.48 57.8927L406.182 57.4545H405.652V58.4545ZM422.198 82.8182L421.37 83.38L421.668 83.8182H422.198V82.8182ZM422.561 82.8182V83.8182H423.561V82.8182H422.561ZM422.561 58.4545V57.4545H421.561V58.4545H422.561ZM435.198 58.4545H434.198V105H435.198H436.198V58.4545H435.198ZM435.198 105V104H424.652V105V106H435.198V105ZM424.652 105L425.476 104.433L408.658 79.9788L407.834 80.5455L407.01 81.1121L423.828 105.567L424.652 105ZM407.834 80.5455V79.5455H407.561V80.5455V81.5455H407.834V80.5455ZM407.561 80.5455H406.561V105H407.561H408.561V80.5455H407.561ZM407.561 105V104H394.925V105V106H407.561V105ZM394.925 105H395.925V58.4545H394.925H393.925V105H394.925ZM394.925 58.4545V59.4545H405.652V58.4545V57.4545H394.925V58.4545ZM405.652 58.4545L404.825 59.0163L421.37 83.38L422.198 82.8182L423.025 82.2564L406.48 57.8927L405.652 58.4545ZM422.198 82.8182V83.8182H422.561V82.8182V81.8182H422.198V82.8182ZM422.561 82.8182H423.561V58.4545H422.561H421.561V82.8182H422.561ZM422.561 58.4545V59.4545H435.198V58.4545V57.4545H422.561V58.4545Z" fill="black" mask="url(#path-1-outside-1_2_43)"/>
<path d="M194.512 115.736V122.336H203.2V123.872H194.512V131H192.736V114.2H204.256V115.736H194.512ZM219.617 131.144C217.953 131.144 216.441 130.776 215.081 130.04C213.737 129.288 212.681 128.264 211.913 126.968C211.161 125.672 210.785 124.216 210.785 122.6C210.785 120.984 211.161 119.528 211.913 118.232C212.681 116.936 213.737 115.92 215.081 115.184C216.441 114.432 217.953 114.056 219.617 114.056C221.281 114.056 222.777 114.424 224.105 115.16C225.449 115.896 226.505 116.92 227.273 118.232C228.041 119.528 228.425 120.984 228.425 122.6C228.425 124.216 228.041 125.68 227.273 126.992C226.505 128.288 225.449 129.304 224.105 130.04C222.777 130.776 221.281 131.144 219.617 131.144ZM219.617 129.56C220.945 129.56 222.145 129.264 223.217 128.672C224.289 128.064 225.129 127.232 225.737 126.176C226.345 125.104 226.649 123.912 226.649 122.6C226.649 121.288 226.345 120.104 225.737 119.048C225.129 117.976 224.289 117.144 223.217 116.552C222.145 115.944 220.945 115.64 219.617 115.64C218.289 115.64 217.081 115.944 215.993 116.552C214.921 117.144 214.073 117.976 213.449 119.048C212.841 120.104 212.537 121.288 212.537 122.6C212.537 123.912 212.841 125.104 213.449 126.176C214.073 127.232 214.921 128.064 215.993 128.672C217.081 129.264 218.289 129.56 219.617 129.56ZM248.437 131L244.597 125.6C244.165 125.648 243.717 125.672 243.253 125.672H238.741V131H236.965V114.2H243.253C245.397 114.2 247.077 114.712 248.293 115.736C249.509 116.76 250.117 118.168 250.117 119.96C250.117 121.272 249.781 122.384 249.109 123.296C248.453 124.192 247.509 124.84 246.277 125.24L250.381 131H248.437ZM243.205 124.16C244.869 124.16 246.141 123.792 247.021 123.056C247.901 122.32 248.341 121.288 248.341 119.96C248.341 118.6 247.901 117.56 247.021 116.84C246.141 116.104 244.869 115.736 243.205 115.736H238.741V124.16H243.205ZM276.478 131.144C274.302 131.144 272.606 130.52 271.39 129.272C270.174 128.024 269.566 126.208 269.566 123.824V114.2H271.342V123.752C271.342 125.704 271.782 127.16 272.662 128.12C273.542 129.08 274.814 129.56 276.478 129.56C278.158 129.56 279.438 129.08 280.318 128.12C281.198 127.16 281.638 125.704 281.638 123.752V114.2H283.366V123.824C283.366 126.208 282.758 128.024 281.542 129.272C280.342 130.52 278.654 131.144 276.478 131.144ZM307.318 114.2V131H305.854L295.054 117.368V131H293.278V114.2H294.742L305.566 127.832V114.2H307.318ZM328.834 131L324.994 125.6C324.562 125.648 324.114 125.672 323.65 125.672H319.138V131H317.362V114.2H323.65C325.794 114.2 327.474 114.712 328.69 115.736C329.906 116.76 330.514 118.168 330.514 119.96C330.514 121.272 330.178 122.384 329.506 123.296C328.85 124.192 327.906 124.84 326.674 125.24L330.778 131H328.834ZM323.602 124.16C325.266 124.16 326.538 123.792 327.418 123.056C328.298 122.32 328.738 121.288 328.738 119.96C328.738 118.6 328.298 117.56 327.418 116.84C326.538 116.104 325.266 115.736 323.602 115.736H319.138V124.16H323.602ZM351.145 129.464V131H339.265V114.2H350.785V115.736H341.041V121.712H349.729V123.224H341.041V129.464H351.145ZM370.416 126.512H361.056L359.04 131H357.192L364.872 114.2H366.624L374.304 131H372.432L370.416 126.512ZM369.768 125.072L365.736 116.048L361.704 125.072H369.768ZM381.643 114.2H383.419V129.464H392.827V131H381.643V114.2Z" fill="black"/>
<path d="M70.5 0L139 40.5L111.5 55.5L70.5 32.5L29 55.5V104L70.5 128L111.5 104L139 120.5L70.5 160L0 120.5V40.5L70.5 0Z" fill="black"/>
<path d="M70.5 55.5L93 68.5V94L70.5 107L48 94V68.5L70.5 55.5Z" fill="black"/>
</svg>
