<svg width="187" height="30" viewBox="0 0 187 30" fill="none" xmlns="http://www.w3.org/2000/svg">
<path d="M51.0589 11.0882C50.7353 11.7059 50.4118 12.3235 49.7942 12.9412C48.4706 14.2647 46.5883 14.8824 44.7059 14.8824C40.0295 14.8824 37.9118 11.353 37.9118 8.00001C37.9118 4.4706 40.2647 0.911774 44.7059 0.911774C46.6765 0.911774 48.5883 1.61766 49.9412 3.02942C50.5 3.61766 50.7647 4.05883 51.0295 4.55883L47.5589 6.29413C47.2353 5.52942 46.5883 4.11766 44.853 4.11766C43.9412 4.11766 43.3824 4.52942 43.0883 4.82354C42.1177 5.76471 42.1177 7.26471 42.1177 7.76471C42.1177 9.70589 42.853 11.5588 44.8824 11.5588C46.8236 11.5588 47.3824 9.85295 47.5295 9.41177L51.0589 11.0882Z" fill="#D8CFB9"/>
<path d="M53 1.35294H59.5294C60.7647 1.35294 61.9706 1.44117 62.7647 1.7647C64.5 2.49999 65.0294 4.29411 65.0294 5.55882C65.0294 6.05882 64.9706 7.23529 64.0294 8.17647C63.5 8.73529 62.9412 8.94117 62.3529 9.17647L65.5294 14.4706H60.9412L58.4118 9.85294H57.1765V14.4706H53.0294V1.35294H53ZM57.1765 4.08823V7.14705H58.9118C59.5882 7.14705 60.9118 7.11764 60.9118 5.61764C60.9118 4.11764 59.6176 4.08823 58.8824 4.08823H57.1765Z" fill="#D8CFB9"/>
<path d="M80.6471 7.79411C80.6471 11.1176 78.7059 14.8823 73.5588 14.8823C68.2059 14.8823 66.5883 10.9118 66.5883 7.94117C66.5883 4.20588 68.9118 0.911761 73.6177 0.911761C78.8236 0.882349 80.6471 4.67647 80.6471 7.79411ZM70.7647 7.91176C70.7647 10.1765 71.7059 11.5588 73.6471 11.5588C75.3236 11.5588 76.4706 10.2353 76.4706 7.7647C76.4706 7.14705 76.4118 6.55882 76.2353 6.02941C75.6177 4.20588 74 4.14705 73.6471 4.14705C72.1471 4.17647 70.7647 5.20588 70.7647 7.91176Z" fill="#D8CFB9"/>
<path d="M84.9118 9.94117C85.2941 10.5294 85.5882 11 86.7353 11.3823C87.2647 11.5588 87.9412 11.6765 88.5588 11.6765C88.8824 11.6765 90.5294 11.6471 90.5294 10.7059C90.5294 10.6176 90.5294 10.1176 89.7941 9.88235C89.3235 9.70588 86.9118 9.29411 86.3824 9.14705C85.1765 8.82352 82.8235 8.08823 82.8235 5.32352C82.8235 4.73529 82.9412 4.14705 83.2059 3.64705C84.0588 1.70588 86.2647 0.970581 88.6176 0.970581C90.1176 0.970581 91.5 1.2647 92.5588 1.79411C93.5294 2.2647 94.0294 2.79411 94.5 3.2647L91.9118 5.44117C91.7059 5.17646 91.5 4.88235 90.9118 4.58823C90.1471 4.20588 89.1471 4.11764 88.4706 4.11764C87.7647 4.11764 87 4.29411 87 4.97058C87 5.58823 87.6765 5.7647 88.7941 5.97058C91.7059 6.47058 94.5882 6.99999 94.5882 10.2353C94.5882 11.6176 94 12.5588 93.4118 13.1765C91.7647 14.8529 89.1177 14.8529 88.4118 14.8529C87.4412 14.8529 86.3824 14.7647 85.3824 14.4706C83.2941 13.8823 82.3529 12.7059 81.7647 12L84.9118 9.94117Z" fill="#D8CFB9"/>
<path d="M99.2353 9.94117C99.6177 10.5294 99.9118 11 101.059 11.3823C101.588 11.5588 102.265 11.6765 102.882 11.6765C103.206 11.6765 104.853 11.6471 104.853 10.7059C104.853 10.6176 104.853 10.1176 104.118 9.88235C103.647 9.70588 101.235 9.29411 100.706 9.14705C99.5 8.82352 97.1471 8.08823 97.1471 5.32352C97.1471 4.73529 97.2647 4.14705 97.5294 3.64705C98.3824 1.70588 100.588 0.970581 102.941 0.970581C104.441 0.970581 105.824 1.2647 106.882 1.79411C107.853 2.2647 108.353 2.79411 108.824 3.2647L106.235 5.44117C106.029 5.17646 105.824 4.88235 105.235 4.58823C104.471 4.20588 103.471 4.11764 102.794 4.11764C102.088 4.11764 101.324 4.29411 101.324 4.97058C101.324 5.58823 102 5.7647 103.118 5.97058C106.029 6.47058 108.912 6.99999 108.912 10.2353C108.912 11.6176 108.324 12.5588 107.735 13.1765C106.088 14.8529 103.441 14.8529 102.735 14.8529C101.765 14.8529 100.706 14.7647 99.7059 14.4706C97.6177 13.8823 96.6765 12.7059 96.0883 12L99.2353 9.94117Z" fill="#D8CFB9"/>
<path d="M111.177 1.35294H117.706C118.941 1.35294 120.147 1.44117 120.941 1.7647C122.677 2.49999 123.206 4.29411 123.206 5.55882C123.206 6.05882 123.147 7.23529 122.206 8.17647C121.677 8.73529 121.118 8.94117 120.529 9.17647L123.706 14.4706H119.088L116.559 9.85294H115.324V14.4706H111.177V1.35294ZM115.353 4.08823V7.14705H117.088C117.765 7.14705 119.088 7.11764 119.088 5.61764C119.088 4.11764 117.794 4.08823 117.059 4.08823H115.353Z" fill="#D8CFB9"/>
<path d="M138.824 7.79411C138.824 11.1176 136.882 14.8823 131.735 14.8823C126.382 14.8823 124.765 10.9118 124.765 7.94117C124.765 4.20588 127.088 0.911761 131.794 0.911761C137 0.882349 138.824 4.67647 138.824 7.79411ZM128.941 7.91176C128.941 10.1765 129.882 11.5588 131.824 11.5588C133.5 11.5588 134.647 10.2353 134.647 7.7647C134.647 7.14705 134.588 6.55882 134.412 6.02941C133.794 4.20588 132.176 4.14705 131.824 4.14705C130.324 4.17647 128.941 5.20588 128.941 7.91176Z" fill="#D8CFB9"/>
<path d="M144.441 1.38235H149.147L154.029 14.4706H149.588L149 12.6471H144.441L143.853 14.4706H139.412L144.441 1.38235ZM146.765 5.08824L145.353 9.70588H148.177L146.765 5.08824Z" fill="#D8CFB9"/>
<path d="M155.765 1.38235H160.206C163.147 1.41177 165.029 1.44118 166.559 2.88235C167.912 4.14706 168.382 6 168.382 7.85294C168.382 10.6176 167.353 13.2353 164.706 14.0882C163.647 14.4412 162.471 14.4412 161.206 14.4412H155.765V1.38235ZM159.912 4.44118V11.4706H161.5C162.088 11.4412 162.676 11.4118 163.235 10.8529C163.853 10.2647 164.206 9.14706 164.206 7.91177C164.206 7.14706 164.088 6.52941 163.882 5.97059C163.324 4.5 162.294 4.44118 161.471 4.41177H159.912V4.44118Z" fill="#D8CFB9"/>
<path d="M172.647 9.94117C173.029 10.5294 173.324 11 174.471 11.3823C175 11.5588 175.676 11.6765 176.294 11.6765C176.618 11.6765 178.265 11.6471 178.265 10.7059C178.265 10.6176 178.265 10.1176 177.529 9.88235C177.059 9.70588 174.647 9.29411 174.118 9.14705C172.912 8.82352 170.559 8.08823 170.559 5.32352C170.559 4.73529 170.676 4.14705 170.941 3.64705C171.794 1.70588 174 0.970581 176.353 0.970581C177.853 0.970581 179.235 1.2647 180.294 1.79411C181.265 2.2647 181.765 2.79411 182.235 3.2647L179.647 5.44117C179.441 5.17646 179.235 4.88235 178.647 4.58823C177.882 4.20588 176.882 4.11764 176.206 4.11764C175.5 4.11764 174.735 4.29411 174.735 4.97058C174.735 5.58823 175.412 5.7647 176.529 5.97058C179.441 6.47058 182.324 6.99999 182.324 10.2353C182.324 11.6176 181.735 12.5588 181.147 13.1765C179.5 14.8529 176.853 14.8529 176.147 14.8529C175.176 14.8529 174.118 14.7647 173.118 14.4706C171.029 13.8823 170.088 12.7059 169.5 12L172.647 9.94117Z" fill="#D8CFB9"/>
<path d="M48.4412 26.3529C48.1765 26.8529 47.9118 27.3529 47.4118 27.8529C46.3236 28.9118 44.8236 29.4118 43.3236 29.4118C39.5588 29.4118 37.853 26.5588 37.853 23.8529C37.853 21 39.7647 18.1176 43.3236 18.1176C44.9118 18.1176 46.4412 18.6765 47.5588 19.8235C48 20.2941 48.2059 20.6471 48.4412 21.0588L45.6471 22.4412C45.3824 21.8235 44.8824 20.6765 43.4706 20.6765C42.7353 20.6765 42.2647 21.0294 42.0588 21.2353C41.2647 22 41.2647 23.2059 41.2647 23.6176C41.2647 25.1765 41.853 26.6765 43.5 26.6765C45.0588 26.6765 45.5294 25.2941 45.6471 24.9412L48.4412 26.3529Z" fill="#D8CFB9"/>
<path d="M50.0294 18.5H53.3529V22.3529H56.5294V18.5H59.8824V29.0588H56.5294V25H53.3529V29.0588H50.0294V18.5Z" fill="#D8CFB9"/>
<path d="M62.1471 18.5H65.5V25.0882C65.5 25.5294 65.5295 26 65.8824 26.3529C66.1471 26.6471 66.5589 26.7353 66.9412 26.7353C67.4706 26.7353 67.8236 26.5294 68 26.3529C68.3824 25.9706 68.4118 25.5294 68.4118 25.0588V18.5H71.7647V24.1176C71.7647 25.3235 71.7647 26.9118 70.5294 28.0882C69.7647 28.7941 68.5295 29.3529 66.9118 29.3529C65.353 29.3529 64 28.8529 63.2353 28.0882C62.1765 27.0588 62.1765 25.8824 62.1471 24.7941V18.5Z" fill="#D8CFB9"/>
<path d="M74 18.5H79.2647C80.2647 18.5 81.2353 18.5588 81.8824 18.8235C83.2941 19.4118 83.7059 20.8529 83.7059 21.8824C83.7059 22.2941 83.6471 23.2353 82.9118 24C82.5 24.4412 82.0294 24.6176 81.5588 24.7941L84.1471 29.0588H80.4412L78.3824 25.3235H77.3824V29.0588H74.0294V18.5H74ZM77.3529 20.7059V23.1765H78.7353C79.2941 23.1765 80.3529 23.1471 80.3529 21.9412C80.3529 20.7353 79.2941 20.7059 78.7353 20.7059H77.3529Z" fill="#D8CFB9"/>
<path d="M95.6177 26.3529C95.3529 26.8529 95.0882 27.3529 94.5882 27.8529C93.5 28.9118 92 29.4118 90.5 29.4118C86.7353 29.4118 85.0294 26.5588 85.0294 23.8529C85.0294 21 86.9412 18.1176 90.5 18.1176C92.0882 18.1176 93.6177 18.6765 94.7353 19.8235C95.1765 20.2941 95.3824 20.6471 95.6177 21.0588L92.8235 22.4412C92.5588 21.8235 92.0588 20.6765 90.6471 20.6765C89.9118 20.6765 89.4412 21.0294 89.2353 21.2353C88.4412 22 88.4412 23.2059 88.4412 23.6176C88.4412 25.1765 89.0294 26.6765 90.6765 26.6765C92.2353 26.6765 92.7059 25.2941 92.8235 24.9412L95.6177 26.3529Z" fill="#D8CFB9"/>
<path d="M97.2059 18.5H100.559V22.3529H103.735V18.5H107.088V29.0588H103.735V25H100.559V29.0588H97.2353V18.5H97.2059Z" fill="#D8CFB9"/>
<path d="M32.647 8.41177L25.3823 1.14706L18.647 7.88236L11.9412 1.14706L4.67645 8.41177L11.4117 15.1471L4.67645 21.8529L11.9412 29.1177L18.6765 22.3824L25.3823 29.1177L32.647 21.8529L25.9117 15.1177L32.647 8.41177ZM29.2941 21.8529L25.3823 25.7647L20.3235 20.7353L24.2353 16.8235L29.2941 21.8529ZM20.3235 9.52942L25.3823 4.47059L29.2941 8.38236L24.2647 13.4412L20.3235 9.52942ZM14.7353 15.1177L8.02939 8.41177L11.9412 4.50001L22.5882 15.1471L11.9412 25.7647L8.02939 21.8529L14.7353 15.1177Z" fill="#FF8200"/>
</svg>
