<svg width="576" height="80" viewBox="0 0 576 80" fill="none" xmlns="http://www.w3.org/2000/svg">
<g clip-path="url(#clip0_2_4)">
<path d="M143.899 75.8616V4.14841H198.924C226.514 4.40737 235.02 33.9293 227.201 56.3247C223.481 66.9821 211.952 75.8616 200.423 75.8616H143.899ZM167.804 59.9253H191.459C192.271 59.9253 195.886 58.3665 196.843 57.8386C207.759 51.7978 207.998 28.7002 196.853 22.6643C195.852 22.1215 191.873 20.5827 190.966 20.5827H167.809V59.9253H167.804Z" fill="black"/>
<path d="M359.537 28.0528H333.391C330.264 21.5139 326.355 18.2221 318.939 17.6046C306.409 16.5587 296.614 22.3705 294.851 35.3336C293.541 44.985 296.031 56.3894 305.633 60.7868C315.528 65.3187 333.083 63.003 335.628 50.4631H321.932L321.185 49.7161V35.5229H359.532V75.8615H350.817C350.613 75.8615 350.304 76.1803 349.686 76.0508C347.639 75.6125 346.638 70.8765 346.081 68.8894C345.727 68.5558 342.037 71.7978 341.255 72.2759C320.951 84.7211 278.611 80.2291 271.419 53.1623C264.129 25.7271 279.985 4.15835 307.968 2.13643C326.967 0.761932 357.017 4.34759 359.532 28.0528H359.537Z" fill="black"/>
<path d="M467.356 32.0368C465 27.4054 463.511 22.9333 458.611 20.3635C449.233 15.4482 435.184 18.0229 430.737 28.2868C425.672 39.9801 428.436 60.3785 443.954 61.9123C454.552 62.9582 464.871 60.0797 467.107 48.4711H493.501C491.26 64.243 480.931 73.5408 465.707 76.7032C439.228 82.1962 405.523 76.9522 403.342 44.258C401.001 9.20318 426.703 0.159355 456.917 2.13645C474.358 3.27688 488.088 11.1205 492.634 28.6653C492.928 29.7908 493.865 31.3446 492.754 32.0368H467.356Z" fill="black"/>
<path d="M529.253 11.763C555.423 9.24304 577.53 19.0438 575.164 48.7102C573.038 75.4432 546.937 81.7381 524.358 77.1215C488.317 69.751 489.96 15.5428 529.253 11.763ZM533.212 27.6743C518.013 30.0398 517.166 57.6594 531.828 61.6883C543.282 64.8357 552.027 58.4711 552.784 46.743C553.606 34.004 546.414 25.6175 533.217 27.6693L533.212 27.6743Z" fill="black"/>
<path d="M260.433 26.5588H239.019V76.8576H260.433V26.5588Z" fill="black"/>
<path d="M393.401 76.8576H371.987V26.5588H392.654L393.401 27.3058V76.8576Z" fill="black"/>
<path d="M10.2987 0.283866C31.4641 -3.30677 31.8376 28.5906 12.1762 27.0518C-3.60067 25.8167 -3.85465 2.68426 10.2987 0.283866Z" fill="black"/>
<path d="M118.366 12.734C137.918 9.41731 140.493 36.9721 123.596 39.3775C105.483 41.9571 102.849 15.3685 118.366 12.734Z" fill="black"/>
<path d="M66.5837 0.293814C85.5628 -2.31575 87.3456 27.1016 68.8646 27.3605C52.0618 27.5946 50.3636 2.52489 66.5837 0.293814Z" fill="black"/>
<path d="M60.1096 53.0827C77.8686 50.5329 80.7968 77.1215 65.3387 79.7261C45.7719 83.0229 42.9233 55.5478 60.1096 53.0827Z" fill="black"/>
<path d="M101.987 18.5309L99.1534 18.1474L75.6125 53.3914L71.245 51.3994L101.623 5.20418C102.649 4.60159 106.872 8.16235 108.008 8.8745L101.987 18.5359V18.5309Z" fill="black"/>
<path d="M260.433 11.6185H239.019V23.5707H260.433V11.6185Z" fill="black"/>
<path d="M393.401 11.6185V22.8237L392.654 23.5707H371.987V11.6185H393.401Z" fill="black"/>
<path d="M48.735 39.4771C50.6573 35.996 52.9332 32.5398 55.3436 29.3874C55.9312 28.6205 57.49 26.0408 58.2669 26.255L61.5338 29.0737L49.5069 46.4791L24.4471 28.9841L24.4571 27.8984L27.1165 24.6066L48.74 39.4771H48.735Z" fill="black"/>
</g>
<defs>
<clipPath id="clip0_2_4">
<rect width="575.339" height="80" fill="white"/>
</clipPath>
</defs>
</svg>
