<svg width="334" height="80" viewBox="0 0 334 80" fill="none" xmlns="http://www.w3.org/2000/svg">
<g clip-path="url(#clip0_1_15)">
<path fill-rule="evenodd" clip-rule="evenodd" d="M0 77.7291V2.06897H0.0565895L8.77139 8.32213V71.8723L0 77.7291ZM18.9442 65.1095L27.6872 59.2949V20.5593L19.0432 14.8155L18.9442 65.1095ZM37.9578 52.4902L46.6017 46.4775V33.4196L37.8303 27.124L37.9578 52.4902Z" fill="black"/>
<path fill-rule="evenodd" clip-rule="evenodd" d="M156.91 36.3771C150.515 35.1605 147.488 34.5098 147.488 31.3548C147.488 28.384 150.02 26.8843 153.557 26.8843C157.575 26.8843 160.065 29.1479 160.447 32.4016H168.553C168.44 25.0168 162.654 20.2775 153.557 20.2775C144.46 20.2775 139.169 25.13 139.169 31.9633C139.169 39.7868 144.899 41.8805 151.407 43.0971C157.858 44.3705 160.999 45.0212 160.999 48.275C160.999 51.3026 158.183 52.9581 154.378 52.9581C149.638 52.9581 146.667 50.3691 146.384 46.6199L138.278 46.5068C138.335 54.3302 144.446 59.5222 154.265 59.5222C163.305 59.5222 169.261 54.5567 169.317 47.3415C169.374 39.5746 163.531 37.5799 156.91 36.3771ZM86.2144 20.6025H100.277V20.5883C112.288 20.5883 120.281 28.525 120.281 39.8287C120.281 51.1324 112.288 59.1823 100.277 59.1823H86.2144V20.6025ZM94.4908 52.2927H100.277V52.3068C107.662 52.3068 111.793 47.2279 111.793 39.843C111.793 32.4579 107.662 27.4922 100.277 27.4922H94.4908V52.2927ZM124.44 20.6035H132.702V59.1834H124.44V20.6035ZM202.307 44.3139H192.715L192.686 44.2999V37.7354H209.946V59.1829H204.16L203.339 54.5567C201.302 57.2588 197.553 59.5222 192.092 59.5222C181.071 59.5222 173.743 51.7553 173.743 39.8999C173.743 28.0444 181.015 20.2775 192.87 20.2775C202.179 20.2775 208.744 26.0213 209.734 34.3399H201.472C200.482 30.0957 197.398 27.2804 192.658 27.2804C186.207 27.2804 182.189 32.4585 182.189 39.8999C182.189 47.3415 186.051 52.5194 192.658 52.5194C197.072 52.5194 201.529 50.2132 202.307 44.8091V44.3139ZM239.105 42.9848C239.105 49.0963 236.842 52.4069 231.494 52.4069C226.146 52.4069 223.939 49.0963 223.939 42.9848V20.6035H215.663V42.5462C215.663 53.5103 221.124 59.523 231.48 59.523C241.836 59.523 247.353 53.5103 247.353 42.5462V20.6035H239.091V42.9848H239.105ZM254.228 20.6035H262.49V59.1834H254.228V20.6035ZM286.555 36.3771C280.16 35.1605 277.131 34.5098 277.131 31.3548C277.131 28.384 279.664 26.8843 283.203 26.8843C287.22 26.8843 289.711 29.1479 290.091 32.4016H298.199C298.086 25.0168 292.298 20.2775 283.203 20.2775C274.105 20.2775 268.814 25.13 268.814 31.9633C268.814 39.7868 274.544 41.8805 281.051 43.0971C287.504 44.3705 290.643 45.0212 290.643 48.275C290.643 51.3026 287.829 52.9581 284.022 52.9581C279.283 52.9581 276.312 50.3691 276.028 46.6199L267.923 46.5068C267.979 54.3302 274.091 59.5222 283.909 59.5222C292.949 59.5222 298.905 54.5567 298.963 47.3415C299.018 39.5746 293.175 37.5799 286.555 36.3771ZM312.941 43.1545V52.0814H331.175V59.1975H304.665V20.6035H330.569V27.7197H312.941V36.3779H327.272V43.1545H312.941Z" fill="black"/>
</g>
<defs>
<clipPath id="clip0_1_15">
<rect width="333.793" height="80" fill="white"/>
</clipPath>
</defs>
</svg>
