<svg width="706" height="80" viewBox="0 0 706 80" fill="none" xmlns="http://www.w3.org/2000/svg">
<g clip-path="url(#clip0_2_24)">
<path d="M0 0V80H80.004V0H0ZM6.176 73.004V6.104C43.124 6.092 73.088 36.032 73.104 72.98C73.104 72.988 73.104 72.996 73.104 73H6.176V73.004ZM73.1 23.144H56.064V6.104H73.1V23.144Z" fill="black"/>
<path d="M132.272 49.792H152.224V63.848H111.988V15.96H132.272V49.788V49.792ZM289.356 28.54C292.9 28.54 297.412 28.54 301.268 29.144L307.056 15.676C302.56 14.776 297.412 14.464 292.256 14.464C271.008 14.464 252.664 26.452 250.728 40.216C248.476 53.68 260.384 65.344 281.312 65.344C286.62 65.328 291.908 64.728 297.084 63.552L302.56 50.104C297.408 50.976 290.332 51.584 286.46 51.272C275.196 51.272 269.728 46.792 270.692 39.612C271.652 33.032 280.664 28.54 289.352 28.54H289.356ZM386.264 39.612C384 53.372 365.652 65.344 344.408 65.344C323.164 65.344 309 53.68 311.252 40.216C313.176 26.452 331.544 14.464 352.78 14.464C374.016 14.464 388.192 26.452 386.264 39.612ZM349.876 28.54C341.184 28.54 332.176 33.032 331.212 39.612C330.236 46.792 338.304 51.272 346.984 51.272C355.664 51.272 364.684 46.792 365.648 40.216C366.94 33.032 358.576 28.54 349.876 28.54ZM222.732 15.96H241.396V63.844H223.04C220.788 60.264 214.024 59.084 207.592 59.364C200.52 59.364 193.424 61.16 189.564 63.844H166.712L222.732 15.96ZM223.692 30.636L203.728 49.792H223.692V30.636ZM162.524 34.216V55.476L185.388 34.216H162.524ZM452.9 15.96L440.988 41.4C438.732 47.112 433.58 50.976 423.924 51.272C415.564 51.584 411.04 45.904 413.292 38.424L423.276 15.96H404.936L395.588 37.828C395.272 38.716 394.952 39.612 394.636 40.528C390.772 53.98 401.072 65.344 419.404 65.344C441.304 65.344 454.828 54.584 460.3 41.108L471.244 15.96H452.9ZM640.888 28.54C644.116 28.54 648.936 28.54 652.8 29.144L658.6 15.676C654.088 14.776 648.936 14.464 643.78 14.464C622.544 14.464 604.2 26.452 602.268 40.216C600.012 53.68 611.592 65.344 632.848 65.344C638.156 65.324 643.444 64.724 648.62 63.552L654.084 50.104C648.932 50.976 641.856 51.584 637.996 51.272C626.712 51.272 621.252 46.792 622.22 39.612C623.18 33.032 632.2 28.54 640.884 28.54H640.888ZM705.272 46.792L700.128 33.032C699.8 31.848 699.152 30.632 698.52 29.14C697.936 27.384 697.5 25.58 697.224 23.752C697.224 21.06 697.552 18.38 699.48 15.96H680.16C676.616 18.96 677.92 25.252 678.88 27.64L685.96 44.688C686.288 45.352 686.288 46.128 685.96 46.792C685.64 48.608 684.348 49.5 683.06 50.108C681.412 50.704 679.672 51 677.92 50.98C673.716 51.24 669.492 50.948 665.364 50.108L659.564 63.268L663.416 63.848C685.308 68.34 703.02 62.356 705.272 53.084C705.908 50.692 706.244 48.612 705.272 46.796V46.792ZM563.628 63.848H581.98L601.616 15.964H583.908L563.628 63.848ZM502.792 33.032C502.472 31.848 501.82 30.632 501.184 29.14C500.552 27.412 500.224 25.588 500.212 23.752C499.892 21.004 500.58 18.236 502.152 15.96H482.824C479.28 18.96 480.58 25.252 481.528 27.64L488.62 44.688C488.94 45.296 488.94 46.192 488.94 46.792C488.296 48.608 487.016 49.5 485.732 50.108C484.08 50.708 482.336 51 480.58 50.98C477.032 51.276 472.524 50.98 468.012 50.108L462.22 63.268L466.084 63.848C487.976 68.34 505.688 62.356 507.944 53.084C508.568 50.692 508.896 48.612 507.944 46.796L502.788 33.036L502.792 33.032ZM572.636 15.96H521.46L515.332 28.54H533.044L517.904 63.844H536.58C537.544 61.452 540.444 54.264 543.672 47.112C547.536 38.716 551.712 29.144 552.996 28.54H567.16L572.632 15.96H572.636Z" fill="black"/>
</g>
<defs>
<clipPath id="clip0_2_24">
<rect width="705.884" height="80" fill="white"/>
</clipPath>
</defs>
</svg>
