<svg width="69" height="80" viewBox="0 0 69 80" fill="none" xmlns="http://www.w3.org/2000/svg">
<g clip-path="url(#clip0_1_18)">
<path d="M41.5451 0L37.3185 33.6432C37.4249 34.1413 38.2083 34.8135 38.7257 34.7652L67.4896 16.471L68.3794 17.2931L42.3091 38.1358C42.077 38.9579 42.6476 39.277 43.3779 39.3979L58.8043 40.1717C59.3556 40.3361 59.3556 41.4532 58.9736 41.724L41.7385 43.3489C38.3727 44.1613 35.5582 46.6372 34.6056 49.9982L27.7918 79.4487L27.3904 80L26.0751 79.7872L29.8954 48.5232L28.6139 47.6479L0.797921 64.7766L0 63.7079L25.4609 44.2435L25.4706 43.2763L24.4792 42.8121L7.93085 42.5558L7.9647 41.1389L25.1127 39.0643C28.788 38.1503 31.6557 35.447 32.5261 31.7282L40.0653 0.140241L41.5451 0Z" fill="black"/>
</g>
<defs>
<clipPath id="clip0_1_18">
<rect width="68.3794" height="80" fill="white"/>
</clipPath>
</defs>
</svg>
