<svg width="102" height="80" viewBox="0 0 102 80" fill="none" xmlns="http://www.w3.org/2000/svg">
<g clip-path="url(#clip0_2_21)">
<path d="M0.160247 21.8555C0.658283 10.1053 6.42105 -2.2121 20.3708 0.446187C30.0613 2.29222 34.0471 13.3543 33.8366 22.1681L34.3268 17.2522C35.392 6.04084 45.095 -3.48311 56.6976 1.23802C64.8484 4.55459 67.5742 14.066 67.6654 22.1681C67.9387 22.2042 67.813 21.8115 67.8209 21.6214C67.8712 20.3975 67.8602 19.2679 67.9968 18.033C69.1846 7.32914 76.0974 -1.80047 87.8727 0.446187C96.8327 2.15553 100.856 11.6418 101.343 19.8884C100.79 33.106 102.053 46.8924 101.343 60.044C100.833 69.4815 95.7141 79.5727 85.1249 79.8712C72.8987 80.2152 67.6261 68.3786 67.7408 57.7628C67.4658 61.414 67.1438 64.8437 65.8994 68.3095C60.465 83.4517 41.6669 83.8712 35.9042 68.9395C34.5295 65.3778 34.1241 61.5507 33.9104 57.7628C33.7973 65.7423 31.0856 75.4171 23.0228 78.6944C9.12333 84.3456 -0.317365 70.5876 0.160247 58.077C0.53888 46.0958 -0.345645 33.8005 0.160247 21.8555Z" fill="black"/>
</g>
<defs>
<clipPath id="clip0_2_21">
<rect width="101.566" height="80" fill="white"/>
</clipPath>
</defs>
</svg>
