<svg width="327" height="80" viewBox="0 0 327 80" fill="none" xmlns="http://www.w3.org/2000/svg">
<g clip-path="url(#clip0_1_6)">
<mask id="mask0_1_6" style="mask-type:luminance" maskUnits="userSpaceOnUse" x="0" y="0" width="327" height="80">
<path d="M326.4 0H0V80H326.4V0Z" fill="white"/>
</mask>
<g mask="url(#mask0_1_6)">
<path d="M150.598 49.3184L152.421 48.0234L161.351 41.6643L157.943 31.3033L155.063 22.626L151.654 12.3293H138.299L137.599 10.361L134.191 0H102.816L99.3945 10.361L98.7075 12.459H85.4051L81.9964 22.82L79.1168 31.4973L75.7084 41.8586L84.6387 48.2176L86.4617 49.5126L85.7616 51.6237L82.3532 61.92L91.2832 68.279L98.8134 73.641L107.743 80L116.674 73.641L118.497 72.3456L120.32 73.641L129.263 80L138.193 73.641L145.71 68.279L154.653 61.92L151.232 51.6237L150.598 49.3184ZM132.724 43.6326L136.832 56.0272L129.263 61.3891L118.497 53.7219L107.743 61.3891L100.227 56.0272L104.362 43.6326L93.5952 35.9658L96.4352 27.3013H109.751L113.86 14.907H123.107L127.216 27.3013H140.558L143.424 35.9658L132.724 43.6326ZM250.15 23.6747C248.67 21.8996 246.782 20.4928 244.642 19.569C242.26 18.5707 239.688 18.0807 237.099 18.1317C234.409 18.0996 231.744 18.6332 229.283 19.6967C226.822 20.7601 224.622 22.3286 222.831 24.2963C220.993 26.315 219.571 28.6636 218.643 31.2123C217.61 33.9965 217.095 36.9402 217.124 39.9027C217.087 42.8829 217.602 45.8448 218.643 48.6448C219.571 51.1664 220.974 53.495 222.779 55.5091C224.499 57.4246 226.603 58.9722 228.961 60.0547C231.358 61.1389 233.97 61.6918 236.61 61.6736C239.488 61.7331 242.333 61.0733 244.879 59.7571C247.283 58.4906 249.326 56.6566 250.824 54.4211L263.493 63.6813C260.69 67.5757 256.846 70.6365 252.383 72.527C248.027 74.4182 243.316 75.3974 238.552 75.4019C233.473 75.4547 228.426 74.6125 223.651 72.9152C219.27 71.3555 215.26 68.9363 211.867 65.8054C208.507 62.6397 205.869 58.8128 204.125 54.5763C202.221 49.9037 201.278 44.9078 201.351 39.8768C201.278 34.8454 202.221 29.8496 204.125 25.177C205.872 20.9421 208.51 17.116 211.867 13.9483C215.263 10.8267 219.272 8.41619 223.651 6.864C228.426 5.16717 233.473 4.3249 238.552 4.37734C240.593 4.38733 242.63 4.56499 244.642 4.90832C246.771 5.26288 248.859 5.82246 250.877 6.57901C252.958 7.3648 254.935 8.39094 256.768 9.63568C258.681 10.9409 260.386 12.5164 261.828 14.311L250.15 23.6747ZM265.528 6.1H280.719V31.3167H310.231V6.1H325.424V73.7059H310.231V44.4877H280.746V73.7059H265.528V6.1Z" fill="black"/>
<path d="M63.5414 39.903C63.5226 27.6008 67.8186 15.6663 75.7085 6.10033H50.1994V53.1005H50.001L20.6479 6.10033H0V73.7059H15.1919V25.579H15.3901L45.4832 73.7059H75.7085C67.8182 64.1398 63.5226 52.2051 63.5414 39.903ZM170.743 6.10001H161.298C169.171 15.6757 173.463 27.6041 173.463 39.903C173.463 52.2019 169.171 64.1302 161.298 73.7059H185.856V19.3107H205.539V6.10001H170.743Z" fill="black"/>
</g>
</g>
<defs>
<clipPath id="clip0_1_6">
<rect width="326.4" height="80" fill="white"/>
</clipPath>
</defs>
</svg>
