<svg width="455" height="80" viewBox="0 0 455 80" fill="none" xmlns="http://www.w3.org/2000/svg">
<g clip-path="url(#clip0_1_21)">
<path d="M45.6338 34.3662C47.2113 31.5493 48 28.507 48 25.6901C48 16 40 7.77462 30.3099 7.77462H10.3662V36.3943H37.5211C40.5634 36.3943 43.2676 35.6056 45.6338 34.3662C42.7042 39.4366 37.4085 43.6056 30.3099 43.6056H10.3662V79.4366H0V10.9296L10.3662 0.563354H37.5211C47.2113 0.563354 55.2113 8.78871 55.2113 18.4788C55.2113 24.2253 51.7183 31.0986 45.6338 34.3662Z" fill="black"/>
<path d="M99.831 71.662C105.915 71.662 111.437 70.1972 116.282 67.6056C110.085 75.1549 100.958 80 90.3662 80C70.5352 80 56 63.662 56 43.3803C56 28.7324 63.662 16.338 75.3803 10.5915C69.1831 17.2394 65.4648 26.3662 65.4648 36.0563C65.4648 55.5493 80 71.662 99.831 71.662ZM116.282 67.6056C121.577 61.0704 124.732 52.507 124.732 43.3803C124.732 23.5493 109.746 7.21127 90.3662 7.21127C84.9577 7.21127 79.8873 8.4507 75.3803 10.5915C81.4648 4.05634 90.0282 0 99.831 0C119.662 0 134.197 16.1127 134.197 36.0563C134.197 49.8028 127.211 61.6338 116.282 67.6056Z" fill="black"/>
<path d="M184.601 69.9718C185.502 68.0563 186.066 65.8028 186.066 63.3239C186.066 52.7324 176.263 46.1972 162.629 43.6056C154.178 42.0282 141.784 37.8592 141.784 23.7746C141.784 17.3521 145.39 12.6197 150.46 9.80282C149.559 11.831 148.995 14.0845 148.995 16.5634C148.995 30.6479 161.39 34.8169 169.84 36.3944C183.474 38.9859 193.277 45.5211 193.277 56.1127C193.277 62.5352 189.784 67.2676 184.601 69.9718ZM172.319 72.7887C176.826 72.7887 181.108 71.7747 184.601 69.9718C181.446 76.507 173.671 80 165.108 80C156.995 80 147.418 75.831 142.235 69.4085L149.446 62.1972C154.629 68.507 164.206 72.7887 172.319 72.7887ZM161.502 7.21127C157.559 7.21127 153.728 8.11268 150.46 9.80282C153.615 3.60563 160.939 0 168.714 0C179.418 0 187.868 6.19718 191.925 11.9437L184.826 19.0423C179.418 12.169 171.305 7.21127 161.502 7.21127Z" fill="black"/>
<path d="M244.432 69.9718C245.333 68.0563 245.897 65.8028 245.897 63.3239C245.897 52.7324 236.094 46.1972 222.46 43.6056C214.009 42.0282 201.615 37.8592 201.615 23.7746C201.615 17.3521 205.221 12.6197 210.291 9.80282C209.39 11.831 208.826 14.0845 208.826 16.5634C208.826 30.6479 221.221 34.8169 229.671 36.3944C243.305 38.9859 253.108 45.5211 253.108 56.1127C253.1 62.5352 249.615 67.2676 244.432 69.9718ZM232.15 72.7887C236.657 72.7887 240.939 71.7747 244.432 69.9718C241.277 76.507 233.502 80 224.939 80C216.826 80 207.249 75.831 202.066 69.4085L209.277 62.1972C214.46 68.507 224.038 72.7887 232.15 72.7887ZM221.333 7.21127C217.39 7.21127 213.559 8.11268 210.291 9.80282C213.446 3.60563 220.77 0 228.545 0C239.249 0 247.699 6.19718 251.756 11.9437L244.657 19.0423C239.249 12.169 231.136 7.21127 221.333 7.21127Z" fill="black"/>
<path d="M265.577 0.563354H275.944V79.4366H265.577V0.563354Z" fill="black"/>
<path d="M345.495 54.3098C345.495 60.0563 342.002 66.9296 335.917 70.1972C337.495 67.3802 338.283 64.338 338.283 61.5211C338.283 51.831 330.283 43.6056 320.593 43.6056H300.65V72.2253H327.805C330.847 72.2253 333.551 71.4366 335.917 70.1972C332.988 75.2676 327.692 79.4366 320.593 79.4366H290.283V10.9296L300.65 0.563354H324.537C334.227 0.563354 342.227 8.78871 342.227 18.4788C342.227 24.2253 338.734 31.0986 332.65 34.3662C334.227 31.5493 335.016 28.507 335.016 25.6901C335.016 16 327.016 7.77462 317.326 7.77462H300.65V36.3943H324.537C327.579 36.3943 330.283 35.6056 332.65 34.3662C332.199 35.1549 331.636 35.9436 331.072 36.7324C339.185 38.3098 345.495 45.7465 345.495 54.3098Z" fill="black"/>
<path d="M400.556 72.2253V79.4366H353.232V0.563354H363.598V72.2253H400.556Z" fill="black"/>
<path d="M417.908 7.77462V36.3943H452.274V43.6056H417.908V72.2253H454.866V79.4366H407.542V10.4788L417.908 0.563354H454.866V7.77462H417.908Z" fill="black"/>
</g>
<defs>
<clipPath id="clip0_1_21">
<rect width="454.866" height="80" fill="white"/>
</clipPath>
</defs>
</svg>
