<svg width="92" height="80" viewBox="0 0 92 80" fill="none" xmlns="http://www.w3.org/2000/svg">
<g clip-path="url(#clip0_1_48)">
<path d="M82.7187 45.7388L74.7725 46.9605L71.0793 25.6325C70.9154 25.742 70.9435 25.8815 70.9323 26.0472C70.8143 27.8222 70.9538 29.689 70.7497 31.4771L68.7454 47.9949L61.0275 49.2916L51.2922 14.5931L60.4593 11.1321L64.2012 31.1054L64.2967 33.0227H64.5766L64.5728 30.0719L67.0031 8.66337L73.7848 6.08515L73.9271 6.31919C75.1254 13.4276 77.039 20.5051 77.9424 27.6546C78.0079 28.1742 77.9826 28.8782 78.1146 29.3585C78.1605 29.5242 78.0856 29.601 78.3281 29.5607L78.3243 25.8619L80.3989 3.61364L89.6455 0L82.7187 45.7388Z" fill="black"/>
<path d="M43.99 17.4972L53.7187 50.458L44.2418 52.0982L43.2579 48.1382L42.8404 48.0951L36.435 49.315L35.7694 53.5615L26.3159 55.0987L34.1704 21.2063L43.99 17.4962V17.4972ZM39.5984 30.496L37.9161 41.1609L41.4707 40.3183L39.5984 30.496Z" fill="black"/>
<path d="M2.18038 33.4431C5.92415 32.0547 9.60519 30.4098 13.3827 29.117C17.4213 27.7333 21.1511 27.723 22.6218 32.4601C23.9184 36.6382 23.0346 41.731 19.4229 44.4178C19.231 44.5601 18.2339 45.0133 18.4577 45.2763C18.8855 45.3437 19.3377 45.7041 19.6185 46.0337L25.4743 55.2391L15.152 56.9579L10.9739 48.8328L11.0656 57.7181L2.17944 59.1224V33.444L2.18038 33.4431ZM10.8803 42.377C12.0935 42.1046 13.3433 41.7479 14.0174 40.6029C14.5857 39.6359 14.7055 37.7064 13.4997 37.1859C12.7901 36.8798 11.5562 37.448 10.8803 37.7467V42.377Z" fill="black"/>
<path d="M78.5143 79.4205H72.0594L71.3469 76.1411L66.7269 76.2394L66.447 79.4205H59.9921L64.9032 53.8826L65.1888 53.7009L71.5969 52.8949L78.5134 79.4205H78.5143ZM68.7846 62.0207H68.5047C68.5983 64.7254 67.8962 67.3804 67.7567 70.0662L70.0953 69.879L68.7846 62.0207Z" fill="black"/>
<path d="M29.6834 79.5141L29.3192 58.7562L37.3965 57.6197C43.9292 56.4504 45.7182 67.839 41.1263 70.5174C40.9737 70.6063 40.4597 70.6822 40.5355 70.86C40.6451 71.1156 41.3987 71.5678 41.4858 71.9685L45.399 79.515H38.4301L35.4839 72.5929L35.6702 79.515H29.6834V79.5141ZM35.3894 67.5404C35.4268 67.5778 36.3125 67.4542 36.4416 67.4224C38.3814 66.9543 37.9573 63.7002 36.466 63.7039C36.2675 63.7039 35.3576 63.8032 35.3089 63.9511L35.3894 67.5394V67.5404Z" fill="black"/>
<path d="M53.4436 72.7324L53.599 72.8579L58.8697 72.6847L59.0569 79.4214L47.5915 79.427L46.9886 56.2211L58.1207 54.7241L58.2677 61.4655L53.1637 62.0216L53.2573 64.2666L57.9335 63.7985L58.1217 70.347L53.4436 70.5343V72.7324Z" fill="black"/>
<path d="M85.9036 70.1598L91.0497 69.9725L91.4242 79.3277L80.1976 79.4214L79.1687 51.7311L85.1555 50.8895L85.9036 70.1598Z" fill="black"/>
<path d="M21.6379 74.1825L26.9694 73.9017L27.064 79.515L15.6501 79.6086C15.6295 79.002 15.6782 78.3869 15.6548 77.7803C15.5397 74.8828 15.5846 71.9891 15.5612 69.0804C15.5415 66.6482 15.1699 63.2892 15.4591 60.9413C15.4713 60.842 15.4554 60.7231 15.5509 60.6585L26.595 59.1213L26.6895 64.7346L21.5443 65.2018V67.0723L26.2224 66.6978L26.316 72.0312L21.6379 72.2175V74.1816V74.1825Z" fill="black"/>
<path d="M12.6365 61.3879L12.938 68.3821C11.734 67.3354 10.3148 66.5444 8.67742 67.0677C4.96174 68.2548 5.24633 74.6582 9.99087 74.1807C11.2332 74.0562 12.0982 73.223 12.938 72.4039L12.8359 79.3166C10.7033 80.0038 8.37223 80.2575 6.18345 79.6733C2.79074 78.768 0.293026 75.791 0.0308964 72.2616C-0.487745 65.2974 5.78932 59.7224 12.6374 61.386L12.6365 61.3879Z" fill="black"/>
</g>
<defs>
<clipPath id="clip0_1_48">
<rect width="91.4242" height="80" fill="white"/>
</clipPath>
</defs>
</svg>
