<svg width="114" height="80" viewBox="0 0 114 80" fill="none" xmlns="http://www.w3.org/2000/svg">
<path d="M7.61442 10.4489C8.19929 10.4489 8.67341 9.97474 8.67341 9.38987C8.67341 8.805 8.19929 8.33087 7.61442 8.33087C7.02955 8.33087 6.55542 8.805 6.55542 9.38987C6.55542 9.97474 7.02955 10.4489 7.61442 10.4489Z" fill="black"/>
<path d="M11.6731 10.5644C12.3209 10.5644 12.8477 10.039 12.8477 9.38987C12.8477 8.74077 12.3222 8.21664 11.6731 8.21664C11.024 8.21664 10.4985 8.74211 10.4985 9.38987C10.4985 10.0376 11.024 10.5644 11.6731 10.5644Z" fill="black"/>
<path d="M14.4443 9.38986C14.4443 10.1021 15.0209 10.6787 15.7331 10.6787C16.4454 10.6787 17.0219 10.1021 17.0219 9.38986C17.0219 8.67759 16.4454 8.10106 15.7331 8.10106C15.0209 8.10106 14.4443 8.67759 14.4443 9.38986Z" fill="black"/>
<path d="M19.7917 10.7929C20.5666 10.7929 21.1947 10.1647 21.1947 9.38987C21.1947 8.61499 20.5666 7.98683 19.7917 7.98683C19.0168 7.98683 18.3887 8.61499 18.3887 9.38987C18.3887 10.1647 19.0168 10.7929 19.7917 10.7929Z" fill="black"/>
<path d="M3.55585 14.4161C4.07763 14.4161 4.50062 13.9931 4.50062 13.4713C4.50062 12.9495 4.07763 12.5266 3.55585 12.5266C3.03407 12.5266 2.61108 12.9495 2.61108 13.4713C2.61108 13.9931 3.03407 14.4161 3.55585 14.4161Z" fill="black"/>
<path d="M3.55585 10.3346C4.07763 10.3346 4.50062 9.91164 4.50062 9.38986C4.50062 8.86809 4.07763 8.4451 3.55585 8.4451C3.03407 8.4451 2.61108 8.86809 2.61108 9.38986C2.61108 9.91164 3.03407 10.3346 3.55585 10.3346Z" fill="black"/>
<path d="M7.61442 14.5303C8.19929 14.5303 8.67341 14.0562 8.67341 13.4713C8.67341 12.8864 8.19929 12.4123 7.61442 12.4123C7.02955 12.4123 6.55542 12.8864 6.55542 13.4713C6.55542 14.0562 7.02955 14.5303 7.61442 14.5303Z" fill="black"/>
<path d="M11.6731 12.2981C11.0253 12.2981 10.4985 12.8235 10.4985 13.4727C10.4985 14.1218 11.024 14.6459 11.6731 14.6459C12.3222 14.6459 12.8477 14.1204 12.8477 13.4727C12.8477 12.8249 12.3222 12.2981 11.6731 12.2981Z" fill="black"/>
<path d="M14.4443 13.4713C14.4443 14.1836 15.0209 14.7601 15.7331 14.7601C16.4454 14.7601 17.0219 14.1836 17.0219 13.4713C17.0219 12.759 16.4454 12.1825 15.7331 12.1825C15.0209 12.1825 14.4443 12.759 14.4443 13.4713Z" fill="black"/>
<path d="M19.7917 14.8743C20.5666 14.8743 21.1947 14.2462 21.1947 13.4713C21.1947 12.6964 20.5666 12.0683 19.7917 12.0683C19.0168 12.0683 18.3887 12.6964 18.3887 13.4713C18.3887 14.2462 19.0168 14.8743 19.7917 14.8743Z" fill="black"/>
<path d="M5.6498 8.29324C6.07313 8.29324 6.42792 8.01236 6.54753 7.62801H4.76955C4.76955 7.62801 4.75879 7.62801 4.75342 7.62801C4.87303 8.01236 5.22782 8.2919 5.65115 8.2919L5.6498 8.29324Z" fill="black"/>
<path d="M9.7096 8.40881C10.1974 8.40881 10.6073 8.07821 10.7296 7.62935H8.68823C8.81053 8.07821 9.22042 8.40881 9.70826 8.40881H9.7096Z" fill="black"/>
<path d="M13.7682 8.52305C14.3205 8.52305 14.7815 8.14138 14.9078 7.62801H12.6299C12.7549 8.14138 13.2172 8.52305 13.7695 8.52305H13.7682Z" fill="black"/>
<path d="M17.8281 8.63862C18.4436 8.63862 18.9583 8.20588 19.086 7.62935H16.5715C16.6992 8.20723 17.2139 8.63862 17.8294 8.63862H17.8281Z" fill="black"/>
<path d="M5.64984 12.376C6.17162 12.376 6.59461 11.953 6.59461 11.4313C6.59461 10.9095 6.17162 10.4865 5.64984 10.4865C5.12806 10.4865 4.70508 10.9095 4.70508 11.4313C4.70508 11.953 5.12806 12.376 5.64984 12.376Z" fill="black"/>
<path d="M9.88003 12.4759C10.4573 12.3822 10.8494 11.8382 10.7557 11.2609C10.662 10.6836 10.118 10.2915 9.54068 10.3852C8.96336 10.4789 8.57133 11.0229 8.66504 11.6002C8.75875 12.1775 9.30272 12.5696 9.88003 12.4759Z" fill="black"/>
<path d="M13.7683 12.6058C14.417 12.6058 14.9429 12.08 14.9429 11.4313C14.9429 10.7826 14.417 10.2567 13.7683 10.2567C13.1196 10.2567 12.5938 10.7826 12.5938 11.4313C12.5938 12.08 13.1196 12.6058 13.7683 12.6058Z" fill="black"/>
<path d="M17.8281 12.7201C18.5399 12.7201 19.1169 12.143 19.1169 11.4313C19.1169 10.7195 18.5399 10.1425 17.8281 10.1425C17.1163 10.1425 16.5393 10.7195 16.5393 11.4313C16.5393 12.143 17.1163 12.7201 17.8281 12.7201Z" fill="black"/>
<path d="M3.55585 16.608C3.03441 16.608 2.61108 17.0313 2.61108 17.5528C2.61108 18.0742 3.03441 18.4975 3.55585 18.4975C4.07728 18.4975 4.50062 18.0742 4.50062 17.5528C4.50062 17.0313 4.07728 16.608 3.55585 16.608Z" fill="black"/>
<path d="M7.61442 18.6117C8.19929 18.6117 8.67341 18.1376 8.67341 17.5527C8.67341 16.9679 8.19929 16.4937 7.61442 16.4937C7.02955 16.4937 6.55542 16.9679 6.55542 17.5527C6.55542 18.1376 7.02955 18.6117 7.61442 18.6117Z" fill="black"/>
<path d="M11.6731 16.3795C11.0253 16.3795 10.4985 16.905 10.4985 17.5541C10.4985 18.2032 11.024 18.7273 11.6731 18.7273C12.3222 18.7273 12.8477 18.2019 12.8477 17.5541C12.8477 16.9063 12.3222 16.3795 11.6731 16.3795Z" fill="black"/>
<path d="M17.0219 17.5528C17.0219 16.8405 16.4454 16.2639 15.7331 16.2639C15.0209 16.2639 14.4443 16.8405 14.4443 17.5528C14.4443 18.265 15.0209 18.8416 15.7331 18.8416C16.4454 18.8416 17.0219 18.265 17.0219 17.5528Z" fill="black"/>
<path d="M21.1947 17.5527C21.1947 16.7773 20.5658 16.1497 19.7917 16.1497C19.0176 16.1497 18.3887 16.7787 18.3887 17.5527C18.3887 18.3268 19.0176 18.9558 19.7917 18.9558C20.5658 18.9558 21.1947 18.3268 21.1947 17.5527Z" fill="black"/>
<path d="M5.64984 16.4561C6.17128 16.4561 6.59461 16.0328 6.59461 15.5114C6.59461 14.9899 6.17128 14.5666 5.64984 14.5666C5.12841 14.5666 4.70508 14.9899 4.70508 15.5114C4.70508 16.0328 5.12841 16.4561 5.64984 16.4561Z" fill="black"/>
<path d="M9.87955 16.557C10.4569 16.4633 10.8489 15.9193 10.7552 15.342C10.6615 14.7647 10.1175 14.3727 9.54019 14.4664C8.96288 14.5601 8.57084 15.1041 8.66455 15.6814C8.75826 16.2587 9.30223 16.6507 9.87955 16.557Z" fill="black"/>
<path d="M13.7683 14.3381C13.1206 14.3381 12.5938 14.8636 12.5938 15.5113C12.5938 16.1591 13.1192 16.6859 13.7683 16.6859C14.4174 16.6859 14.9429 16.1605 14.9429 15.5113C14.9429 14.8622 14.4174 14.3381 13.7683 14.3381Z" fill="black"/>
<path d="M19.1157 15.5127C19.1157 14.8004 18.5392 14.2239 17.8269 14.2239C17.1146 14.2239 16.5381 14.8004 16.5381 15.5127C16.5381 16.225 17.1146 16.8015 17.8269 16.8015C18.5392 16.8015 19.1157 16.225 19.1157 15.5127Z" fill="black"/>
<path d="M3.55585 22.579C4.07763 22.579 4.50062 22.156 4.50062 21.6342C4.50062 21.1124 4.07763 20.6894 3.55585 20.6894C3.03407 20.6894 2.61108 21.1124 2.61108 21.6342C2.61108 22.156 3.03407 22.579 3.55585 22.579Z" fill="black"/>
<path d="M7.61442 22.6932C8.19929 22.6932 8.67341 22.2191 8.67341 21.6342C8.67341 21.0493 8.19929 20.5752 7.61442 20.5752C7.02955 20.5752 6.55542 21.0493 6.55542 21.6342C6.55542 22.2191 7.02955 22.6932 7.61442 22.6932Z" fill="black"/>
<path d="M12.759 22.0845C13.0072 21.4852 12.7226 20.7981 12.1233 20.5499C11.524 20.3016 10.8369 20.5862 10.5886 21.1855C10.3404 21.7848 10.625 22.4719 11.2243 22.7202C11.8236 22.9684 12.5107 22.6838 12.759 22.0845Z" fill="black"/>
<path d="M15.7331 22.923C16.4449 22.923 17.0219 22.346 17.0219 21.6342C17.0219 20.9224 16.4449 20.3454 15.7331 20.3454C15.0214 20.3454 14.4443 20.9224 14.4443 21.6342C14.4443 22.346 15.0214 22.923 15.7331 22.923Z" fill="black"/>
<path d="M19.7917 23.0372C20.5666 23.0372 21.1947 22.4091 21.1947 21.6342C21.1947 20.8593 20.5666 20.2312 19.7917 20.2312C19.0168 20.2312 18.3887 20.8593 18.3887 21.6342C18.3887 22.4091 19.0168 23.0372 19.7917 23.0372Z" fill="black"/>
<path d="M5.64984 20.5376C6.17162 20.5376 6.59461 20.1146 6.59461 19.5928C6.59461 19.071 6.17162 18.648 5.64984 18.648C5.12806 18.648 4.70508 19.071 4.70508 19.5928C4.70508 20.1146 5.12806 20.5376 5.64984 20.5376Z" fill="black"/>
<path d="M10.687 19.9982C10.9108 19.4579 10.6542 18.8384 10.1139 18.6146C9.57351 18.3907 8.95403 18.6473 8.73021 19.1877C8.50639 19.728 8.76299 20.3475 9.30334 20.5713C9.84368 20.7952 10.4632 20.5386 10.687 19.9982Z" fill="black"/>
<path d="M14.9429 19.5928C14.9429 18.945 14.4174 18.4196 13.7683 18.4196C13.1192 18.4196 12.5938 18.945 12.5938 19.5928C12.5938 20.2406 13.1192 20.7674 13.7683 20.7674C14.4174 20.7674 14.9429 20.2419 14.9429 19.5928Z" fill="black"/>
<path d="M19.1157 19.5928C19.1157 18.8805 18.5392 18.304 17.8269 18.304C17.1146 18.304 16.5381 18.8805 16.5381 19.5928C16.5381 20.3051 17.1146 20.8816 17.8269 20.8816C18.5392 20.8816 19.1157 20.3051 19.1157 19.5928Z" fill="black"/>
<path d="M3.55585 24.7709C3.03441 24.7709 2.61108 25.1942 2.61108 25.7156C2.61108 26.2371 3.03441 26.6604 3.55585 26.6604C4.07728 26.6604 4.50062 26.2371 4.50062 25.7156C4.50062 25.1942 4.07728 24.7709 3.55585 24.7709Z" fill="black"/>
<path d="M7.61442 26.7746C8.19929 26.7746 8.67341 26.3005 8.67341 25.7156C8.67341 25.1308 8.19929 24.6566 7.61442 24.6566C7.02955 24.6566 6.55542 25.1308 6.55542 25.7156C6.55542 26.3005 7.02955 26.7746 7.61442 26.7746Z" fill="black"/>
<path d="M11.6731 26.8889C12.3209 26.8889 12.8477 26.3634 12.8477 25.7143C12.8477 25.0652 12.3222 24.5411 11.6731 24.5411C11.024 24.5411 10.4985 25.0665 10.4985 25.7143C10.4985 26.3621 11.024 26.8889 11.6731 26.8889Z" fill="black"/>
<path d="M17.0219 25.7156C17.0219 25.0034 16.4454 24.4268 15.7331 24.4268C15.0209 24.4268 14.4443 25.0034 14.4443 25.7156C14.4443 26.4279 15.0209 27.0044 15.7331 27.0044C16.4454 27.0044 17.0219 26.4279 17.0219 25.7156Z" fill="black"/>
<path d="M21.1947 25.7156C21.1947 24.9402 20.5658 24.3126 19.7917 24.3126C19.0176 24.3126 18.3887 24.9415 18.3887 25.7156C18.3887 26.4897 19.0176 27.1187 19.7917 27.1187C20.5658 27.1187 21.1947 26.4897 21.1947 25.7156Z" fill="black"/>
<path d="M5.64984 24.619C6.17128 24.619 6.59461 24.1957 6.59461 23.6742C6.59461 23.1528 6.17128 22.7295 5.64984 22.7295C5.12841 22.7295 4.70508 23.1528 4.70508 23.6742C4.70508 24.1957 5.12841 24.619 5.64984 24.619Z" fill="black"/>
<path d="M10.688 24.0799C10.9118 23.5396 10.6552 22.9201 10.1148 22.6963C9.57449 22.4725 8.95501 22.7291 8.73119 23.2694C8.50737 23.8098 8.76397 24.4292 9.30431 24.6531C9.84466 24.8769 10.4641 24.6203 10.688 24.0799Z" fill="black"/>
<path d="M14.9429 23.6742C14.9429 23.0265 14.4174 22.4997 13.7683 22.4997C13.1192 22.4997 12.5938 23.0251 12.5938 23.6742C12.5938 24.3233 13.1192 24.8475 13.7683 24.8475C14.4174 24.8475 14.9429 24.322 14.9429 23.6742Z" fill="black"/>
<path d="M19.1157 23.6742C19.1157 22.962 18.5392 22.3854 17.8269 22.3854C17.1146 22.3854 16.5381 22.962 16.5381 23.6742C16.5381 24.3865 17.1146 24.963 17.8269 24.963C18.5392 24.963 19.1157 24.3865 19.1157 23.6742Z" fill="black"/>
<path d="M3.55585 30.7418C4.07763 30.7418 4.50062 30.3189 4.50062 29.7971C4.50062 29.2753 4.07763 28.8523 3.55585 28.8523C3.03407 28.8523 2.61108 29.2753 2.61108 29.7971C2.61108 30.3189 3.03407 30.7418 3.55585 30.7418Z" fill="black"/>
<path d="M7.61442 30.8561C8.19929 30.8561 8.67341 30.3819 8.67341 29.7971C8.67341 29.2122 8.19929 28.7381 7.61442 28.7381C7.02955 28.7381 6.55542 29.2122 6.55542 29.7971C6.55542 30.3819 7.02955 30.8561 7.61442 30.8561Z" fill="black"/>
<path d="M12.8412 29.91C12.905 29.2652 12.434 28.6907 11.7892 28.6269C11.1444 28.5632 10.5699 29.0342 10.5061 29.679C10.4423 30.3238 10.9133 30.8982 11.5582 30.962C12.203 31.0258 12.7774 30.5548 12.8412 29.91Z" fill="black"/>
<path d="M15.7331 31.0859C16.4449 31.0859 17.0219 30.5089 17.0219 29.7971C17.0219 29.0853 16.4449 28.5083 15.7331 28.5083C15.0214 28.5083 14.4443 29.0853 14.4443 29.7971C14.4443 30.5089 15.0214 31.0859 15.7331 31.0859Z" fill="black"/>
<path d="M19.7917 31.2001C20.5666 31.2001 21.1947 30.5719 21.1947 29.7971C21.1947 29.0222 20.5666 28.394 19.7917 28.394C19.0168 28.394 18.3887 29.0222 18.3887 29.7971C18.3887 30.5719 19.0168 31.2001 19.7917 31.2001Z" fill="black"/>
<path d="M5.64984 28.7004C6.17128 28.7004 6.59461 28.2771 6.59461 27.7557C6.59461 27.2342 6.17128 26.8109 5.64984 26.8109C5.12841 26.8109 4.70508 27.2342 4.70508 27.7557C4.70508 28.2771 5.12841 28.7004 5.64984 28.7004Z" fill="black"/>
<path d="M10.6877 28.1603C10.9115 27.62 10.6549 27.0005 10.1146 26.7767C9.57424 26.5528 8.95476 26.8094 8.73094 27.3498C8.50712 27.8901 8.76372 28.5096 9.30407 28.7334C9.84442 28.9573 10.4639 28.7007 10.6877 28.1603Z" fill="black"/>
<path d="M14.9429 27.7557C14.9429 27.1079 14.4174 26.5811 13.7683 26.5811C13.1192 26.5811 12.5938 27.1066 12.5938 27.7557C12.5938 28.4048 13.1192 28.9289 13.7683 28.9289C14.4174 28.9289 14.9429 28.4034 14.9429 27.7557Z" fill="black"/>
<path d="M19.1157 27.7557C19.1157 27.0434 18.5392 26.4669 17.8269 26.4669C17.1146 26.4669 16.5381 27.0434 16.5381 27.7557C16.5381 28.4679 17.1146 29.0445 17.8269 29.0445C18.5392 29.0445 19.1157 28.4679 19.1157 27.7557Z" fill="black"/>
<path d="M3.55594 32.9337C3.24281 32.9337 2.96865 33.087 2.79663 33.3221C3.06004 33.9188 3.58685 34.3717 4.23058 34.5384C4.39722 34.3677 4.5007 34.1352 4.5007 33.8785C4.5007 33.3571 4.07737 32.9337 3.55594 32.9337Z" fill="black"/>
<path d="M6.84839 34.6083H8.3791C8.56053 34.4188 8.67342 34.1607 8.67342 33.8772C8.67342 33.2926 8.19902 32.8182 7.61442 32.8182C7.02982 32.8182 6.55542 33.2926 6.55542 33.8772C6.55542 34.1607 6.66696 34.4174 6.84974 34.6083H6.84839Z" fill="black"/>
<path d="M10.7552 34.6082H12.591C12.7509 34.408 12.8477 34.154 12.8477 33.8772C12.8477 33.2294 12.3222 32.7026 11.6731 32.7026C11.024 32.7026 10.4985 33.2281 10.4985 33.8772C10.4985 34.154 10.5953 34.4067 10.7552 34.6082Z" fill="black"/>
<path d="M19.7917 35.2815C20.5666 35.2815 21.1947 34.6534 21.1947 33.8785C21.1947 33.1036 20.5666 32.4755 19.7917 32.4755C19.0168 32.4755 18.3887 33.1036 18.3887 33.8785C18.3887 34.6534 19.0168 35.2815 19.7917 35.2815Z" fill="black"/>
<path d="M5.64984 32.7819C6.17162 32.7819 6.59461 32.3589 6.59461 31.8371C6.59461 31.3153 6.17162 30.8923 5.64984 30.8923C5.12806 30.8923 4.70508 31.3153 4.70508 31.8371C4.70508 32.3589 5.12806 32.7819 5.64984 32.7819Z" fill="black"/>
<path d="M10.6875 32.242C10.9113 31.7017 10.6547 31.0822 10.1143 30.8584C9.574 30.6346 8.95452 30.8912 8.7307 31.4315C8.50688 31.9719 8.76348 32.5913 9.30382 32.8152C9.84417 33.039 10.4637 32.7824 10.6875 32.242Z" fill="black"/>
<path d="M13.7683 33.0117C14.417 33.0117 14.9429 32.4858 14.9429 31.8371C14.9429 31.1884 14.417 30.6625 13.7683 30.6625C13.1196 30.6625 12.5938 31.1884 12.5938 31.8371C12.5938 32.4858 13.1196 33.0117 13.7683 33.0117Z" fill="black"/>
<path d="M17.8281 33.1259C18.5399 33.1259 19.1169 32.5489 19.1169 31.8371C19.1169 31.1253 18.5399 30.5483 17.8281 30.5483C17.1163 30.5483 16.5393 31.1253 16.5393 31.8371C16.5393 32.5489 17.1163 33.1259 17.8281 33.1259Z" fill="black"/>
<path d="M11.8634 39.1185C12.5037 39.0145 12.9386 38.4112 12.8346 37.7709C12.7307 37.1306 12.1274 36.6957 11.487 36.7997C10.8467 36.9036 10.4119 37.507 10.5158 38.1473C10.6198 38.7876 11.2231 39.2224 11.8634 39.1185Z" fill="black"/>
<path d="M15.7331 39.2488C16.4449 39.2488 17.0219 38.6717 17.0219 37.9599C17.0219 37.2482 16.4449 36.6711 15.7331 36.6711C15.0214 36.6711 14.4443 37.2482 14.4443 37.9599C14.4443 38.6717 15.0214 39.2488 15.7331 39.2488Z" fill="black"/>
<path d="M21.1947 37.96C21.1947 37.1845 20.5658 36.5569 19.7917 36.5569C19.0176 36.5569 18.3887 37.1859 18.3887 37.96C18.3887 38.734 19.0176 39.363 19.7917 39.363C20.5658 39.363 21.1947 38.734 21.1947 37.96Z" fill="black"/>
<path d="M14.9428 35.9185C14.9428 35.6619 14.8595 35.424 14.7183 35.2305C13.9913 35.3877 13.283 35.596 12.5977 35.8527C12.5977 35.8742 12.595 35.8957 12.595 35.9185C12.595 36.5663 13.1204 37.0931 13.7695 37.0931C14.4186 37.0931 14.9441 36.5677 14.9441 35.9185H14.9428Z" fill="black"/>
<path d="M7.61442 43.099C8.19929 43.099 8.67341 42.6249 8.67341 42.04C8.67341 41.4552 8.19929 40.981 7.61442 40.981C7.02955 40.981 6.55542 41.4552 6.55542 42.04C6.55542 42.6249 7.02955 43.099 7.61442 43.099Z" fill="black"/>
<path d="M11.8627 43.1983C12.503 43.0943 12.9378 42.491 12.8339 41.8507C12.73 41.2104 12.1266 40.7755 11.4863 40.8795C10.846 40.9834 10.4112 41.5868 10.5151 42.2271C10.619 42.8674 11.2224 43.3022 11.8627 43.1983Z" fill="black"/>
<path d="M15.7331 43.3289C16.4449 43.3289 17.0219 42.7518 17.0219 42.0401C17.0219 41.3283 16.4449 40.7513 15.7331 40.7513C15.0214 40.7513 14.4443 41.3283 14.4443 42.0401C14.4443 42.7518 15.0214 43.3289 15.7331 43.3289Z" fill="black"/>
<path d="M21.1947 42.04C21.1947 41.2646 20.5658 40.637 19.7917 40.637C19.0176 40.637 18.3887 41.266 18.3887 42.04C18.3887 42.8141 19.0176 43.4431 19.7917 43.4431C20.5658 43.4431 21.1947 42.8141 21.1947 42.04Z" fill="black"/>
<path d="M10.6884 40.4055C10.9123 39.8651 10.6557 39.2456 10.1153 39.0218C9.57498 38.798 8.9555 39.0546 8.73168 39.5949C8.50786 40.1353 8.76445 40.7548 9.3048 40.9786C9.84515 41.2024 10.4646 40.9458 10.6884 40.4055Z" fill="black"/>
<path d="M13.7682 41.1732C14.4162 41.1732 14.9414 40.648 14.9414 40C14.9414 39.352 14.4162 38.8268 13.7682 38.8268C13.1202 38.8268 12.595 39.352 12.595 40C12.595 40.648 13.1202 41.1732 13.7682 41.1732Z" fill="black"/>
<path d="M17.8281 41.2888C18.5399 41.2888 19.1169 40.7118 19.1169 40C19.1169 39.2882 18.5399 38.7112 17.8281 38.7112C17.1163 38.7112 16.5393 39.2882 16.5393 40C16.5393 40.7118 17.1163 41.2888 17.8281 41.2888Z" fill="black"/>
<path d="M3.55602 45.1781C3.52645 45.1781 3.49957 45.1835 3.47135 45.1861C3.27917 45.7345 3.11925 46.2975 2.99023 46.8727C3.14882 46.9923 3.34368 47.0649 3.55602 47.0649C4.07745 47.0649 4.50078 46.6416 4.50078 46.1201C4.50078 45.5987 4.07745 45.1754 3.55602 45.1754V45.1781Z" fill="black"/>
<path d="M7.61442 47.1805C8.19929 47.1805 8.67341 46.7064 8.67341 46.1215C8.67341 45.5366 8.19929 45.0625 7.61442 45.0625C7.02955 45.0625 6.55542 45.5366 6.55542 46.1215C6.55542 46.7064 7.02955 47.1805 7.61442 47.1805Z" fill="black"/>
<path d="M11.6731 47.2961C12.3209 47.2961 12.8477 46.7706 12.8477 46.1215C12.8477 45.4724 12.3222 44.9483 11.6731 44.9483C11.024 44.9483 10.4985 45.4737 10.4985 46.1215C10.4985 46.7693 11.024 47.2961 11.6731 47.2961Z" fill="black"/>
<path d="M17.0219 46.1215C17.0219 45.4092 16.4454 44.8327 15.7331 44.8327C15.0209 44.8327 14.4443 45.4092 14.4443 46.1215C14.4443 46.8338 15.0209 47.4103 15.7331 47.4103C16.4454 47.4103 17.0219 46.8338 17.0219 46.1215Z" fill="black"/>
<path d="M19.7917 47.5245C20.5666 47.5245 21.1947 46.8964 21.1947 46.1215C21.1947 45.3466 20.5666 44.7184 19.7917 44.7184C19.0168 44.7184 18.3887 45.3466 18.3887 46.1215C18.3887 46.8964 19.0168 47.5245 19.7917 47.5245Z" fill="black"/>
<path d="M5.64984 45.0262C6.17128 45.0262 6.59461 44.6029 6.59461 44.0814C6.59461 43.56 6.17128 43.1367 5.64984 43.1367C5.12841 43.1367 4.70508 43.56 4.70508 44.0814C4.70508 44.6029 5.12841 45.0262 5.64984 45.0262Z" fill="black"/>
<path d="M10.6882 44.4859C10.912 43.9455 10.6554 43.326 10.1151 43.1022C9.57473 42.8784 8.95525 43.135 8.73143 43.6753C8.50761 44.2157 8.76421 44.8352 9.30456 45.059C9.84491 45.2828 10.4644 45.0262 10.6882 44.4859Z" fill="black"/>
<path d="M14.9429 44.0814C14.9429 43.4337 14.4174 42.9069 13.7683 42.9069C13.1192 42.9069 12.5938 43.4323 12.5938 44.0814C12.5938 44.7305 13.1192 45.2547 13.7683 45.2547C14.4174 45.2547 14.9429 44.7292 14.9429 44.0814Z" fill="black"/>
<path d="M19.1157 44.0814C19.1157 43.3692 18.5392 42.7926 17.8269 42.7926C17.1146 42.7926 16.5381 43.3692 16.5381 44.0814C16.5381 44.7937 17.1146 45.3702 17.8269 45.3702C18.5392 45.3702 19.1157 44.7937 19.1157 44.0814Z" fill="black"/>
<path d="M3.55585 49.2595C3.04113 49.2595 2.62318 49.6734 2.61377 50.1855C2.61377 50.1949 2.61377 50.2043 2.61377 50.2137C2.61915 50.7297 3.03979 51.1477 3.55719 51.1477C4.07459 51.1477 4.50196 50.7244 4.50196 50.2029C4.50196 49.6815 4.07863 49.2582 3.55719 49.2582L3.55585 49.2595Z" fill="black"/>
<path d="M7.61442 51.2619C8.19929 51.2619 8.67341 50.7878 8.67341 50.2029C8.67341 49.6181 8.19929 49.1439 7.61442 49.1439C7.02955 49.1439 6.55542 49.6181 6.55542 50.2029C6.55542 50.7878 7.02955 51.2619 7.61442 51.2619Z" fill="black"/>
<path d="M12.8402 50.3143C12.904 49.6695 12.433 49.0951 11.7882 49.0313C11.1434 48.9675 10.5689 49.4385 10.5052 50.0833C10.4414 50.7281 10.9124 51.3026 11.5572 51.3664C12.202 51.4302 12.7764 50.9591 12.8402 50.3143Z" fill="black"/>
<path d="M15.7331 51.4917C16.4449 51.4917 17.0219 50.9147 17.0219 50.2029C17.0219 49.4911 16.4449 48.9141 15.7331 48.9141C15.0214 48.9141 14.4443 49.4911 14.4443 50.2029C14.4443 50.9147 15.0214 51.4917 15.7331 51.4917Z" fill="black"/>
<path d="M19.7917 51.606C20.5666 51.606 21.1947 50.9778 21.1947 50.2029C21.1947 49.4281 20.5666 48.7999 19.7917 48.7999C19.0168 48.7999 18.3887 49.4281 18.3887 50.2029C18.3887 50.9778 19.0168 51.606 19.7917 51.606Z" fill="black"/>
<path d="M5.64984 49.1076C6.17162 49.1076 6.59461 48.6847 6.59461 48.1629C6.59461 47.6411 6.17162 47.2181 5.64984 47.2181C5.12806 47.2181 4.70508 47.6411 4.70508 48.1629C4.70508 48.6847 5.12806 49.1076 5.64984 49.1076Z" fill="black"/>
<path d="M10.688 48.5676C10.9118 48.0272 10.6552 47.4078 10.1148 47.1839C9.57449 46.9601 8.95501 47.2167 8.73119 47.7571C8.50737 48.2974 8.76397 48.9169 9.30431 49.1407C9.84466 49.3645 10.4641 49.1079 10.688 48.5676Z" fill="black"/>
<path d="M13.7683 49.3375C14.417 49.3375 14.9429 48.8116 14.9429 48.1629C14.9429 47.5142 14.417 46.9883 13.7683 46.9883C13.1196 46.9883 12.5938 47.5142 12.5938 48.1629C12.5938 48.8116 13.1196 49.3375 13.7683 49.3375Z" fill="black"/>
<path d="M17.8281 49.4517C18.5399 49.4517 19.1169 48.8747 19.1169 48.1629C19.1169 47.4511 18.5399 46.8741 17.8281 46.8741C17.1163 46.8741 16.5393 47.4511 16.5393 48.1629C16.5393 48.8747 17.1163 49.4517 17.8281 49.4517Z" fill="black"/>
<path d="M3.55585 53.3409C3.03441 53.3409 2.61108 53.7643 2.61108 54.2857C2.61108 54.8071 3.03441 55.2305 3.55585 55.2305C4.07728 55.2305 4.50062 54.8071 4.50062 54.2857C4.50062 53.7643 4.07728 53.3409 3.55585 53.3409Z" fill="black"/>
<path d="M7.61442 55.3434C8.19929 55.3434 8.67341 54.8692 8.67341 54.2844C8.67341 53.6995 8.19929 53.2254 7.61442 53.2254C7.02955 53.2254 6.55542 53.6995 6.55542 54.2844C6.55542 54.8692 7.02955 55.3434 7.61442 55.3434Z" fill="black"/>
<path d="M11.6731 55.4589C12.3209 55.4589 12.8477 54.9335 12.8477 54.2857C12.8477 53.638 12.3222 53.1111 11.6731 53.1111C11.024 53.1111 10.4985 53.6366 10.4985 54.2857C10.4985 54.9348 11.024 55.4589 11.6731 55.4589Z" fill="black"/>
<path d="M17.0219 54.2844C17.0219 53.5721 16.4454 52.9956 15.7331 52.9956C15.0209 52.9956 14.4443 53.5721 14.4443 54.2844C14.4443 54.9966 15.0209 55.5732 15.7331 55.5732C16.4454 55.5732 17.0219 54.9966 17.0219 54.2844Z" fill="black"/>
<path d="M21.1947 54.2844C21.1947 53.5089 20.5658 52.8813 19.7917 52.8813C19.0176 52.8813 18.3887 53.5103 18.3887 54.2844C18.3887 55.0585 19.0176 55.6874 19.7917 55.6874C20.5658 55.6874 21.1947 55.0585 21.1947 54.2844Z" fill="black"/>
<path d="M5.64984 53.1877C6.17128 53.1877 6.59461 52.7644 6.59461 52.243C6.59461 51.7215 6.17128 51.2982 5.64984 51.2982C5.12841 51.2982 4.70508 51.7215 4.70508 52.243C4.70508 52.7644 5.12841 53.1877 5.64984 53.1877Z" fill="black"/>
<path d="M10.6877 52.6493C10.9115 52.109 10.6549 51.4895 10.1146 51.2657C9.57424 51.0418 8.95476 51.2984 8.73094 51.8388C8.50712 52.3791 8.76372 52.9986 9.30407 53.2224C9.84442 53.4462 10.4639 53.1897 10.6877 52.6493Z" fill="black"/>
<path d="M14.9429 52.2443C14.9429 51.5966 14.4174 51.0711 13.7683 51.0711C13.1192 51.0711 12.5938 51.5966 12.5938 52.2443C12.5938 52.8921 13.1192 53.4189 13.7683 53.4189C14.4174 53.4189 14.9429 52.8934 14.9429 52.2443Z" fill="black"/>
<path d="M19.1157 52.2443C19.1157 51.532 18.5392 50.9555 17.8269 50.9555C17.1146 50.9555 16.5381 51.532 16.5381 52.2443C16.5381 52.9566 17.1146 53.5331 17.8269 53.5331C18.5392 53.5331 19.1157 52.9566 19.1157 52.2443Z" fill="black"/>
<path d="M3.55585 59.3106C4.07763 59.3106 4.50062 58.8876 4.50062 58.3658C4.50062 57.844 4.07763 57.421 3.55585 57.421C3.03407 57.421 2.61108 57.844 2.61108 58.3658C2.61108 58.8876 3.03407 59.3106 3.55585 59.3106Z" fill="black"/>
<path d="M7.61442 59.4248C8.19929 59.4248 8.67341 58.9507 8.67341 58.3658C8.67341 57.7809 8.19929 57.3068 7.61442 57.3068C7.02955 57.3068 6.55542 57.7809 6.55542 58.3658C6.55542 58.9507 7.02955 59.4248 7.61442 59.4248Z" fill="black"/>
<path d="M11.8632 59.5241C12.5035 59.4202 12.9383 58.8168 12.8344 58.1765C12.7304 57.5362 12.1271 57.1014 11.4868 57.2053C10.8465 57.3093 10.4117 57.9126 10.5156 58.5529C10.6195 59.1932 11.2229 59.628 11.8632 59.5241Z" fill="black"/>
<path d="M15.7331 59.6546C16.4449 59.6546 17.0219 59.0776 17.0219 58.3658C17.0219 57.654 16.4449 57.077 15.7331 57.077C15.0214 57.077 14.4443 57.654 14.4443 58.3658C14.4443 59.0776 15.0214 59.6546 15.7331 59.6546Z" fill="black"/>
<path d="M19.7917 59.7688C20.5666 59.7688 21.1947 59.1407 21.1947 58.3658C21.1947 57.5909 20.5666 56.9628 19.7917 56.9628C19.0168 56.9628 18.3887 57.5909 18.3887 58.3658C18.3887 59.1407 19.0168 59.7688 19.7917 59.7688Z" fill="black"/>
<path d="M5.64984 57.2692C6.17128 57.2692 6.59461 56.8459 6.59461 56.3244C6.59461 55.803 6.17128 55.3797 5.64984 55.3797C5.12841 55.3797 4.70508 55.803 4.70508 56.3244C4.70508 56.8459 5.12841 57.2692 5.64984 57.2692Z" fill="black"/>
<path d="M10.6887 56.731C10.9125 56.1907 10.6559 55.5712 10.1156 55.3474C9.57522 55.1236 8.95574 55.3801 8.73192 55.9205C8.5081 56.4608 8.7647 57.0803 9.30505 57.3041C9.84539 57.528 10.4649 57.2714 10.6887 56.731Z" fill="black"/>
<path d="M12.595 56.3258C12.595 56.9735 13.1204 57.5003 13.7695 57.5003C14.4186 57.5003 14.9441 56.9749 14.9441 56.3258C14.9441 55.6766 14.4186 55.1525 13.7695 55.1525C13.1204 55.1525 12.595 55.678 12.595 56.3258Z" fill="black"/>
<path d="M19.1157 56.3258C19.1157 55.6135 18.5392 55.037 17.8269 55.037C17.1146 55.037 16.5381 55.6135 16.5381 56.3258C16.5381 57.038 17.1146 57.6146 17.8269 57.6146C18.5392 57.6146 19.1157 57.038 19.1157 56.3258Z" fill="black"/>
<path d="M3.55585 61.5025C3.03441 61.5025 2.61108 61.9258 2.61108 62.4473C2.61108 62.9687 3.03441 63.392 3.55585 63.392C4.07728 63.392 4.50062 62.9687 4.50062 62.4473C4.50062 61.9258 4.07728 61.5025 3.55585 61.5025Z" fill="black"/>
<path d="M7.61442 63.5062C8.19929 63.5062 8.67341 63.0321 8.67341 62.4472C8.67341 61.8624 8.19929 61.3882 7.61442 61.3882C7.02955 61.3882 6.55542 61.8624 6.55542 62.4472C6.55542 63.0321 7.02955 63.5062 7.61442 63.5062Z" fill="black"/>
<path d="M11.6731 63.6205C12.3209 63.6205 12.8477 63.095 12.8477 62.4459C12.8477 61.7968 12.3222 61.2727 11.6731 61.2727C11.024 61.2727 10.4985 61.7981 10.4985 62.4459C10.4985 63.0937 11.024 63.6205 11.6731 63.6205Z" fill="black"/>
<path d="M17.0219 62.4473C17.0219 61.735 16.4454 61.1584 15.7331 61.1584C15.0209 61.1584 14.4443 61.735 14.4443 62.4473C14.4443 63.1595 15.0209 63.7361 15.7331 63.7361C16.4454 63.7361 17.0219 63.1595 17.0219 62.4473Z" fill="black"/>
<path d="M21.1947 62.4473C21.1947 61.6718 20.5658 61.0442 19.7917 61.0442C19.0176 61.0442 18.3887 61.6732 18.3887 62.4473C18.3887 63.2213 19.0176 63.8503 19.7917 63.8503C20.5658 63.8503 21.1947 63.2213 21.1947 62.4473Z" fill="black"/>
<path d="M5.64984 61.352C6.17162 61.352 6.59461 60.929 6.59461 60.4072C6.59461 59.8854 6.17162 59.4624 5.64984 59.4624C5.12806 59.4624 4.70508 59.8854 4.70508 60.4072C4.70508 60.929 5.12806 61.352 5.64984 61.352Z" fill="black"/>
<path d="M10.6884 60.8114C10.9123 60.2711 10.6557 59.6516 10.1153 59.4278C9.57498 59.2039 8.9555 59.4605 8.73168 60.0009C8.50786 60.5412 8.76445 61.1607 9.3048 61.3845C9.84515 61.6083 10.4646 61.3517 10.6884 60.8114Z" fill="black"/>
<path d="M13.7682 61.5804C14.4162 61.5804 14.9414 61.0552 14.9414 60.4072C14.9414 59.7592 14.4162 59.234 13.7682 59.234C13.1202 59.234 12.595 59.7592 12.595 60.4072C12.595 61.0552 13.1202 61.5804 13.7682 61.5804Z" fill="black"/>
<path d="M19.1157 60.4072C19.1157 59.6949 18.5392 59.1184 17.8269 59.1184C17.1146 59.1184 16.5381 59.6949 16.5381 60.4072C16.5381 61.1195 17.1146 61.696 17.8269 61.696C18.5392 61.696 19.1157 61.1195 19.1157 60.4072Z" fill="black"/>
<path d="M3.55585 67.4735C4.07763 67.4735 4.50062 67.0505 4.50062 66.5287C4.50062 66.0069 4.07763 65.5839 3.55585 65.5839C3.03407 65.5839 2.61108 66.0069 2.61108 66.5287C2.61108 67.0505 3.03407 67.4735 3.55585 67.4735Z" fill="black"/>
<path d="M3.55585 71.5549C4.07763 71.5549 4.50062 71.1319 4.50062 70.6101C4.50062 70.0883 4.07763 69.6654 3.55585 69.6654C3.03407 69.6654 2.61108 70.0883 2.61108 70.6101C2.61108 71.1319 3.03407 71.5549 3.55585 71.5549Z" fill="black"/>
<path d="M7.61442 67.5877C8.19929 67.5877 8.67341 67.1136 8.67341 66.5287C8.67341 65.9438 8.19929 65.4697 7.61442 65.4697C7.02955 65.4697 6.55542 65.9438 6.55542 66.5287C6.55542 67.1136 7.02955 67.5877 7.61442 67.5877Z" fill="black"/>
<path d="M11.6731 67.7019C12.3209 67.7019 12.8477 67.1764 12.8477 66.5273C12.8477 65.8782 12.3222 65.3541 11.6731 65.3541C11.024 65.3541 10.4985 65.8796 10.4985 66.5273C10.4985 67.1751 11.024 67.7019 11.6731 67.7019Z" fill="black"/>
<path d="M15.7331 67.8175C16.4449 67.8175 17.0219 67.2405 17.0219 66.5287C17.0219 65.8169 16.4449 65.2399 15.7331 65.2399C15.0214 65.2399 14.4443 65.8169 14.4443 66.5287C14.4443 67.2405 15.0214 67.8175 15.7331 67.8175Z" fill="black"/>
<path d="M19.7917 67.9317C20.5666 67.9317 21.1947 67.3036 21.1947 66.5287C21.1947 65.7538 20.5666 65.1257 19.7917 65.1257C19.0168 65.1257 18.3887 65.7538 18.3887 66.5287C18.3887 67.3036 19.0168 67.9317 19.7917 67.9317Z" fill="black"/>
<path d="M5.64984 65.4321C6.17162 65.4321 6.59461 65.0091 6.59461 64.4873C6.59461 63.9655 6.17162 63.5425 5.64984 63.5425C5.12806 63.5425 4.70508 63.9655 4.70508 64.4873C4.70508 65.0091 5.12806 65.4321 5.64984 65.4321Z" fill="black"/>
<path d="M10.687 64.8926C10.9108 64.3523 10.6542 63.7328 10.1139 63.509C9.57351 63.2851 8.95403 63.5417 8.73021 64.0821C8.50639 64.6224 8.76299 65.2419 9.30334 65.4657C9.84369 65.6896 10.4632 65.433 10.687 64.8926Z" fill="black"/>
<path d="M13.7683 65.6619C14.4161 65.6619 14.9429 65.1364 14.9429 64.4886C14.9429 63.8409 14.4174 63.3141 13.7683 63.3141C13.1192 63.3141 12.5938 63.8395 12.5938 64.4886C12.5938 65.1377 13.1192 65.6619 13.7683 65.6619Z" fill="black"/>
<path d="M17.8281 65.7761C18.5404 65.7761 19.1169 65.1996 19.1169 64.4873C19.1169 63.775 18.5404 63.1985 17.8281 63.1985C17.1158 63.1985 16.5393 63.775 16.5393 64.4873C16.5393 65.1996 17.1158 65.7761 17.8281 65.7761Z" fill="black"/>
<path d="M7.61442 71.6691C8.19929 71.6691 8.67341 71.195 8.67341 70.6101C8.67341 70.0253 8.19929 69.5511 7.61442 69.5511C7.02955 69.5511 6.55542 70.0253 6.55542 70.6101C6.55542 71.195 7.02955 71.6691 7.61442 71.6691Z" fill="black"/>
<path d="M11.7622 71.7804C12.4092 71.7344 12.8965 71.1725 12.8504 70.5254C12.8044 69.8784 12.2425 69.3911 11.5954 69.4372C10.9484 69.4832 10.4612 70.0451 10.5072 70.6922C10.5532 71.3392 11.1151 71.8265 11.7622 71.7804Z" fill="black"/>
<path d="M17.0219 70.6101C17.0219 69.8979 16.4454 69.3213 15.7331 69.3213C15.0209 69.3213 14.4443 69.8979 14.4443 70.6101C14.4443 71.3224 15.0209 71.8989 15.7331 71.8989C16.4454 71.8989 17.0219 71.3224 17.0219 70.6101Z" fill="black"/>
<path d="M19.7917 72.0132C20.5666 72.0132 21.1947 71.385 21.1947 70.6101C21.1947 69.8353 20.5666 69.2071 19.7917 69.2071C19.0168 69.2071 18.3887 69.8353 18.3887 70.6101C18.3887 71.385 19.0168 72.0132 19.7917 72.0132Z" fill="black"/>
<path d="M5.64984 69.5135C6.17128 69.5135 6.59461 69.0902 6.59461 68.5687C6.59461 68.0473 6.17128 67.624 5.64984 67.624C5.12841 67.624 4.70508 68.0473 4.70508 68.5687C4.70508 69.0902 5.12841 69.5135 5.64984 69.5135Z" fill="black"/>
<path d="M9.70963 69.6277C10.2942 69.6277 10.7686 69.1533 10.7686 68.5687C10.7686 67.9841 10.2942 67.5097 9.70963 67.5097C9.12503 67.5097 8.65063 67.9841 8.65063 68.5687C8.65063 69.1533 9.12503 69.6277 9.70963 69.6277Z" fill="black"/>
<path d="M13.7683 69.7433C14.4161 69.7433 14.9429 69.2178 14.9429 68.5701C14.9429 67.9223 14.4174 67.3955 13.7683 67.3955C13.1192 67.3955 12.5938 67.921 12.5938 68.5701C12.5938 69.2192 13.1192 69.7433 13.7683 69.7433Z" fill="black"/>
<path d="M17.8281 69.8575C18.5404 69.8575 19.1169 69.281 19.1169 68.5687C19.1169 67.8565 18.5404 67.2799 17.8281 67.2799C17.1158 67.2799 16.5393 67.8565 16.5393 68.5687C16.5393 69.281 17.1158 69.8575 17.8281 69.8575Z" fill="black"/>
<path d="M5.64968 71.7068C5.22232 71.7068 4.86619 71.9917 4.74927 72.3801C4.75599 72.3801 4.76271 72.3801 4.76808 72.3801H6.54876C6.43184 71.9903 6.0757 71.7054 5.64834 71.7054L5.64968 71.7068Z" fill="black"/>
<path d="M9.70972 71.5912C9.21785 71.5912 8.80662 71.9272 8.68701 72.3801H10.7338C10.6142 71.9258 10.2016 71.5912 9.71107 71.5912H9.70972Z" fill="black"/>
<path d="M13.7682 71.4769C13.2131 71.4769 12.7481 71.8627 12.6272 72.3814H14.9105C14.7882 71.864 14.3245 71.4769 13.7695 71.4769H13.7682Z" fill="black"/>
<path d="M17.8282 71.3614C17.2087 71.3614 16.6926 71.7981 16.5676 72.3801H19.0874C18.9638 71.7981 18.4464 71.3614 17.8269 71.3614H17.8282Z" fill="black"/>
<path d="M78.1547 7.61995C69.262 7.61995 61.208 11.2055 55.3566 17.0085C53.0182 11.4958 47.5566 7.62936 41.1919 7.62936H20.5105C20.6395 8.2704 21.2067 8.7542 21.8867 8.7542C22.1353 8.7542 22.3691 8.68835 22.5721 8.57412C22.4216 8.81065 22.3329 9.09018 22.3329 9.39122C22.3329 9.69225 22.4216 9.97178 22.5721 10.2083C22.3691 10.0941 22.1353 10.0282 21.8867 10.0282C21.1112 10.0282 20.4836 10.6572 20.4836 11.4313C20.4836 12.2054 21.1126 12.8343 21.8867 12.8343C22.1353 12.8343 22.3691 12.7685 22.5721 12.6542C22.4216 12.8907 22.3329 13.1703 22.3329 13.4713C22.3329 13.7723 22.4216 14.0519 22.5721 14.2884C22.3691 14.1742 22.1353 14.1083 21.8867 14.1083C21.1112 14.1083 20.4836 14.7373 20.4836 15.5114C20.4836 16.2855 21.1126 16.9144 21.8867 16.9144C22.1353 16.9144 22.3691 16.8485 22.5721 16.7343C22.4216 16.9708 22.3329 17.2504 22.3329 17.5514C22.3329 17.8524 22.4216 18.132 22.5721 18.3685C22.3691 18.2543 22.1353 18.1884 21.8867 18.1884C21.1112 18.1884 20.4836 18.8174 20.4836 19.5915C20.4836 20.3655 21.1126 20.9945 21.8867 20.9945C22.1353 20.9945 22.3691 20.9286 22.5721 20.8144C22.4216 21.0509 22.3329 21.3305 22.3329 21.6315C22.3329 21.9325 22.4216 22.2121 22.5721 22.4486C22.3691 22.3344 22.1353 22.2685 21.8867 22.2685C21.1112 22.2685 20.4836 22.8975 20.4836 23.6716C20.4836 24.4456 21.1126 25.0746 21.8867 25.0746C22.1353 25.0746 22.3691 25.0087 22.5721 24.8945C22.4216 25.131 22.3329 25.4106 22.3329 25.7116C22.3329 26.0126 22.4216 26.2922 22.5721 26.5287C22.3691 26.4145 22.1353 26.3486 21.8867 26.3486C21.1112 26.3486 20.4836 26.9776 20.4836 27.7516C20.4836 28.5257 21.1126 29.1547 21.8867 29.1547C22.1353 29.1547 22.3691 29.0888 22.5721 28.9746C22.4216 29.2111 22.3329 29.4907 22.3329 29.7917C22.3329 30.0927 22.4216 30.3723 22.5721 30.6088C22.3691 30.4946 22.1353 30.4287 21.8867 30.4287C21.1112 30.4287 20.4836 31.0577 20.4836 31.8317C20.4836 32.6058 21.1126 33.2348 21.8867 33.2348C22.1353 33.2348 22.3691 33.1689 22.5721 33.0547C22.4216 33.2912 22.3329 33.5708 22.3329 33.8718C22.3329 34.1728 22.4216 34.4524 22.5721 34.6889C22.3691 34.5747 22.1353 34.5088 21.8867 34.5088C21.1112 34.5088 20.4836 35.1378 20.4836 35.9118C20.4836 36.6859 21.1126 37.3149 21.8867 37.3149C22.1353 37.3149 22.3691 37.249 22.5721 37.1348C22.4216 37.3713 22.3329 37.6509 22.3329 37.9519C22.3329 38.2529 22.4216 38.5325 22.5721 38.769C22.3691 38.6548 22.1353 38.5889 21.8867 38.5889C21.1112 38.5889 20.4836 39.2178 20.4836 39.9919C20.4836 40.766 21.1126 41.395 21.8867 41.395C22.1353 41.395 22.3691 41.3291 22.5721 41.2149C22.4216 41.4514 22.3329 41.731 22.3329 42.032C22.3329 42.333 22.4216 42.6126 22.5721 42.8491C22.3691 42.7348 22.1353 42.669 21.8867 42.669C21.1112 42.669 20.4836 43.2979 20.4836 44.072C20.4836 44.8461 21.1126 45.4751 21.8867 45.4751C22.1353 45.4751 22.3691 45.4092 22.5721 45.295C22.4216 45.5315 22.3329 45.811 22.3329 46.1121C22.3329 46.4131 22.4216 46.6927 22.5721 46.9292C22.3691 46.8149 22.1353 46.7491 21.8867 46.7491C21.1112 46.7491 20.4836 47.378 20.4836 48.1521C20.4836 48.9262 21.1126 49.5552 21.8867 49.5552C22.1353 49.5552 22.3691 49.4893 22.5721 49.3751C22.4216 49.6116 22.3329 49.8911 22.3329 50.1922C22.3329 50.4932 22.4216 50.7727 22.5721 51.0093C22.3691 50.895 22.1353 50.8292 21.8867 50.8292C21.1112 50.8292 20.4836 51.4581 20.4836 52.2322C20.4836 53.0063 21.1126 53.6353 21.8867 53.6353C22.1353 53.6353 22.3691 53.5694 22.5721 53.4552C22.4216 53.6917 22.3329 53.9712 22.3329 54.2723C22.3329 54.5505 22.4095 54.8098 22.5398 55.0343H22.4632C22.2872 54.955 22.0923 54.9093 21.8867 54.9093C21.1112 54.9093 20.4836 55.5382 20.4836 56.3123C20.4836 57.0864 21.1126 57.7154 21.8867 57.7154C22.1353 57.7154 22.3691 57.6495 22.5721 57.5353C22.4216 57.7718 22.3329 58.0513 22.3329 58.3524C22.3329 58.6534 22.4216 58.9329 22.5721 59.1695C22.3691 59.0552 22.1353 58.9894 21.8867 58.9894C21.1112 58.9894 20.4836 59.6183 20.4836 60.3924C20.4836 61.1665 21.1126 61.7955 21.8867 61.7955C22.1353 61.7955 22.3691 61.7296 22.5721 61.6154C22.4216 61.8519 22.3329 62.1314 22.3329 62.4325C22.3329 62.7335 22.4216 63.013 22.5721 63.2496C22.3691 63.1353 22.1353 63.0695 21.8867 63.0695C21.1112 63.0695 20.4836 63.6984 20.4836 64.4725C20.4836 65.2466 21.1126 65.8756 21.8867 65.8756C22.1353 65.8756 22.3691 65.8097 22.5721 65.6955C22.4216 65.932 22.3329 66.2115 22.3329 66.5126C22.3329 66.8136 22.4216 67.0931 22.5721 67.3297C22.3691 67.2154 22.1353 67.1496 21.8867 67.1496C21.1112 67.1496 20.4836 67.7785 20.4836 68.5526C20.4836 69.3267 21.1126 69.9556 21.8867 69.9556C22.1353 69.9556 22.3691 69.8898 22.5721 69.7756C22.4216 70.0121 22.3329 70.2916 22.3329 70.5927C22.3329 70.8937 22.4216 71.1732 22.5721 71.4098C22.3691 71.2955 22.1353 71.2297 21.8867 71.2297C21.204 71.2297 20.6355 71.7175 20.5092 72.3639H54.4119C55.6039 72.3639 56.5702 71.3977 56.5702 70.2056V64.111C62.2979 69.238 69.8614 72.3545 78.1547 72.3545C96.0353 72.3545 110.531 57.8592 110.531 39.9785C110.531 22.0978 96.0353 7.60248 78.1547 7.60248V7.61995ZM23.0814 67.8363C23.3072 67.9694 23.5692 68.0473 23.8501 68.0473C24.131 68.0473 24.389 67.9707 24.6135 67.8403C24.4939 68.0567 24.4267 68.3053 24.4267 68.5701C24.4267 68.8348 24.4952 69.0835 24.6135 69.2998C24.389 69.1681 24.1283 69.0929 23.8501 69.0929C23.5719 69.0929 23.3072 69.1708 23.0814 69.3039C23.2131 69.0902 23.2897 68.8402 23.2897 68.5701C23.2897 68.3 23.2131 68.05 23.0814 67.8363ZM23.0814 63.7549C23.3072 63.8879 23.5692 63.9659 23.8501 63.9659C24.131 63.9659 24.389 63.8893 24.6135 63.7589C24.4939 63.9753 24.4267 64.2239 24.4267 64.4886C24.4267 64.7534 24.4952 65.002 24.6135 65.2184C24.389 65.088 24.1283 65.0114 23.8501 65.0114C23.5719 65.0114 23.3072 65.0894 23.0814 65.2224C23.2131 65.0087 23.2897 64.7588 23.2897 64.4886C23.2897 64.2185 23.2131 63.9686 23.0814 63.7549ZM23.0814 59.6734C23.3072 59.8065 23.5692 59.8844 23.8501 59.8844C24.131 59.8844 24.389 59.8078 24.6135 59.6775C24.4939 59.8938 24.4267 60.1425 24.4267 60.4072C24.4267 60.672 24.4952 60.9206 24.6135 61.1369C24.389 61.0052 24.1283 60.93 23.8501 60.93C23.5719 60.93 23.3072 61.0079 23.0814 61.141C23.2131 60.9273 23.2897 60.6773 23.2897 60.4072C23.2897 60.1371 23.2131 59.8871 23.0814 59.6734ZM23.0814 18.8604C23.3072 18.9934 23.5692 19.0714 23.8501 19.0714C24.131 19.0714 24.389 18.9948 24.6135 18.8644C24.4939 19.0808 24.4267 19.3294 24.4267 19.5941C24.4267 19.8589 24.4952 20.1075 24.6135 20.3239C24.389 20.1922 24.1283 20.1169 23.8501 20.1169C23.5719 20.1169 23.3072 20.1949 23.0814 20.3279C23.2131 20.1142 23.2897 19.8643 23.2897 19.5941C23.2897 19.324 23.2131 19.0741 23.0814 18.8604ZM23.0814 14.7789C23.3072 14.912 23.5692 14.9899 23.8501 14.9899C24.131 14.9899 24.389 14.9133 24.6135 14.783C24.4939 14.9993 24.4267 15.248 24.4267 15.5127C24.4267 15.7775 24.4952 16.0261 24.6135 16.2424C24.389 16.1107 24.1283 16.0355 23.8501 16.0355C23.5719 16.0355 23.3072 16.1134 23.0814 16.2465C23.2131 16.0328 23.2897 15.7828 23.2897 15.5127C23.2897 15.2426 23.2131 14.9926 23.0814 14.7789ZM23.0814 10.6975C23.3072 10.8305 23.5692 10.9085 23.8501 10.9085C24.131 10.9085 24.389 10.8319 24.6135 10.7015C24.4939 10.9179 24.4267 11.1665 24.4267 11.4313C24.4267 11.696 24.4952 11.9446 24.6135 12.161C24.389 12.0293 24.1283 11.954 23.8501 11.954C23.5719 11.954 23.3072 12.032 23.0814 12.165C23.2131 11.9514 23.2897 11.7014 23.2897 11.4313C23.2897 11.1611 23.2131 10.9112 23.0814 10.6975ZM32.349 68.9047C32.2267 68.8778 32.1004 68.8617 31.9687 68.8617C31.837 68.8617 31.7214 68.8752 31.6031 68.9007C31.6246 68.7932 31.6367 68.683 31.6367 68.5687C31.6367 68.4545 31.6246 68.3443 31.6031 68.2368C31.7214 68.2623 31.8423 68.2758 31.9687 68.2758C32.095 68.2758 32.2267 68.2596 32.349 68.2328C32.3275 68.3416 32.3154 68.4532 32.3154 68.5687C32.3154 68.6843 32.3275 68.7959 32.349 68.9047ZM28.4503 69.07C28.281 69.0109 28.0996 68.9759 27.9101 68.9759C27.7206 68.9759 27.5459 69.0082 27.3792 69.066C27.433 68.9101 27.4639 68.7435 27.4639 68.5687C27.4639 68.394 27.433 68.2274 27.3792 68.0715C27.5459 68.1293 27.7246 68.1615 27.9101 68.1615C28.0955 68.1615 28.281 68.1279 28.4503 68.0675C28.3992 68.226 28.371 68.394 28.371 68.5687C28.371 68.7435 28.3992 68.9114 28.4503 69.07ZM25.1819 49.4732C25.4064 49.6049 25.6671 49.6802 25.9453 49.6802C26.0985 49.6802 26.2477 49.6573 26.3874 49.6143C26.3162 49.7971 26.2759 49.9946 26.2759 50.2029C26.2759 50.4112 26.3162 50.6088 26.3874 50.7916C26.2477 50.7486 26.0998 50.7257 25.9453 50.7257C25.6671 50.7257 25.4064 50.8023 25.1819 50.9327C25.3015 50.7163 25.3687 50.4677 25.3687 50.2029C25.3687 49.9382 25.3002 49.6896 25.1819 49.4732ZM27.3792 10.9327C27.5459 10.9905 27.7246 11.0227 27.9101 11.0227C28.0955 11.0227 28.281 10.9891 28.4503 10.9286C28.3992 11.0872 28.371 11.2552 28.371 11.4299C28.371 11.6046 28.3992 11.7726 28.4503 11.9312C28.281 11.8721 28.0996 11.8371 27.9101 11.8371C27.7206 11.8371 27.5459 11.8694 27.3792 11.9272C27.433 11.7713 27.4639 11.6046 27.4639 11.4299C27.4639 11.2552 27.433 11.0886 27.3792 10.9327ZM31.6045 11.0993C31.7227 11.1249 31.8437 11.1383 31.97 11.1383C32.0963 11.1383 32.228 11.1235 32.3503 11.0953C32.3288 11.2041 32.3167 11.3157 32.3167 11.4313C32.3167 11.5468 32.3288 11.6584 32.3503 11.7672C32.228 11.7404 32.1017 11.7242 31.97 11.7242C31.8383 11.7242 31.7227 11.7377 31.6045 11.7632C31.626 11.6557 31.6381 11.5455 31.6381 11.4313C31.6381 11.317 31.626 11.2068 31.6045 11.0993ZM32.349 64.8233C32.2267 64.7964 32.1004 64.7803 31.9687 64.7803C31.837 64.7803 31.7214 64.7937 31.6031 64.8192C31.6246 64.7117 31.6367 64.6015 31.6367 64.4873C31.6367 64.3731 31.6246 64.2629 31.6031 64.1554C31.7214 64.1809 31.8423 64.1943 31.9687 64.1943C32.095 64.1943 32.2267 64.1795 32.349 64.1513C32.3275 64.2602 32.3154 64.3717 32.3154 64.4873C32.3154 64.6029 32.3275 64.7144 32.349 64.8233ZM28.4503 64.9886C28.281 64.9294 28.0996 64.8945 27.9101 64.8945C27.7206 64.8945 27.5459 64.9268 27.3792 64.9845C27.433 64.8287 27.4639 64.662 27.4639 64.4873C27.4639 64.3126 27.433 64.1459 27.3792 63.9901C27.5459 64.0478 27.7246 64.0801 27.9101 64.0801C28.0955 64.0801 28.281 64.0465 28.4503 63.986C28.3992 64.1446 28.371 64.3126 28.371 64.4873C28.371 64.662 28.3992 64.83 28.4503 64.9886ZM25.1819 20.9045C25.4064 21.0362 25.6671 21.1114 25.9453 21.1114C26.0985 21.1114 26.2477 21.0886 26.3874 21.0456C26.3162 21.2283 26.2759 21.4259 26.2759 21.6342C26.2759 21.8425 26.3162 22.0401 26.3874 22.2228C26.2477 22.1798 26.0998 22.157 25.9453 22.157C25.6671 22.157 25.4064 22.2336 25.1819 22.3639C25.3015 22.1476 25.3687 21.8989 25.3687 21.6342C25.3687 21.3694 25.3002 21.1208 25.1819 20.9045ZM27.3792 15.0141C27.5459 15.0719 27.7246 15.1042 27.9101 15.1042C28.0955 15.1042 28.281 15.0706 28.4503 15.0101C28.3992 15.1687 28.371 15.3367 28.371 15.5114C28.371 15.6861 28.3992 15.8541 28.4503 16.0126C28.281 15.9535 28.0996 15.9186 27.9101 15.9186C27.7206 15.9186 27.5459 15.9508 27.3792 16.0086C27.433 15.8527 27.4639 15.6861 27.4639 15.5114C27.4639 15.3367 27.433 15.17 27.3792 15.0141ZM31.6045 15.1808C31.7227 15.2063 31.8437 15.2197 31.97 15.2197C32.0963 15.2197 32.228 15.205 32.3503 15.1767C32.3288 15.2856 32.3167 15.3971 32.3167 15.5127C32.3167 15.6283 32.3288 15.7398 32.3503 15.8487C32.228 15.8218 32.1017 15.8057 31.97 15.8057C31.8383 15.8057 31.7227 15.8191 31.6045 15.8446C31.626 15.7371 31.6381 15.6269 31.6381 15.5127C31.6381 15.3985 31.626 15.2883 31.6045 15.1808ZM32.349 60.7418C32.2267 60.715 32.1004 60.6988 31.9687 60.6988C31.837 60.6988 31.7214 60.7123 31.6031 60.7378C31.6246 60.6303 31.6367 60.5201 31.6367 60.4059C31.6367 60.2916 31.6246 60.1814 31.6031 60.0739C31.7214 60.0995 31.8423 60.1129 31.9687 60.1129C32.095 60.1129 32.2267 60.0981 32.349 60.0699C32.3275 60.1787 32.3154 60.2903 32.3154 60.4059C32.3154 60.5214 32.3275 60.633 32.349 60.7418ZM28.4503 60.9071C28.281 60.848 28.0996 60.8131 27.9101 60.8131C27.7206 60.8131 27.5459 60.8453 27.3792 60.9031C27.433 60.7472 27.4639 60.5806 27.4639 60.4059C27.4639 60.2312 27.433 60.0645 27.3792 59.9086C27.5459 59.9664 27.7246 59.9987 27.9101 59.9987C28.0955 59.9987 28.281 59.9651 28.4503 59.9046C28.3992 60.0632 28.371 60.2312 28.371 60.4059C28.371 60.5806 28.3992 60.7486 28.4503 60.9071ZM27.3792 47.6656C27.5459 47.7234 27.7246 47.7557 27.9101 47.7557C28.0955 47.7557 28.281 47.7221 28.4503 47.6616C28.3992 47.8202 28.371 47.9882 28.371 48.1629C28.371 48.3376 28.3992 48.5056 28.4503 48.6642C28.281 48.605 28.0996 48.5701 27.9101 48.5701C27.7206 48.5701 27.5459 48.6023 27.3792 48.6601C27.433 48.5042 27.4639 48.3376 27.4639 48.1629C27.4639 47.9882 27.433 47.8215 27.3792 47.6656ZM27.3792 19.0956C27.5459 19.1533 27.7246 19.1856 27.9101 19.1856C28.0955 19.1856 28.281 19.152 28.4503 19.0915C28.3992 19.2501 28.371 19.4181 28.371 19.5928C28.371 19.7675 28.3992 19.9355 28.4503 20.0941C28.281 20.0349 28.0996 20 27.9101 20C27.7206 20 27.5459 20.0323 27.3792 20.09C27.433 19.9342 27.4639 19.7675 27.4639 19.5928C27.4639 19.4181 27.433 19.2514 27.3792 19.0956ZM31.6045 19.2622C31.7227 19.2877 31.8437 19.3012 31.97 19.3012C32.0963 19.3012 32.228 19.2864 32.3503 19.2582C32.3288 19.367 32.3167 19.4786 32.3167 19.5941C32.3167 19.7097 32.3288 19.8213 32.3503 19.9301C32.228 19.9032 32.1017 19.8871 31.97 19.8871C31.8383 19.8871 31.7227 19.9006 31.6045 19.9261C31.626 19.8186 31.6381 19.7084 31.6381 19.5941C31.6381 19.4799 31.626 19.3697 31.6045 19.2622ZM27.3792 39.5028C27.5459 39.5605 27.7246 39.5928 27.9101 39.5928C28.0955 39.5928 28.281 39.5592 28.4503 39.4987C28.3992 39.6573 28.371 39.8253 28.371 40C28.371 40.1747 28.3992 40.3427 28.4503 40.5013C28.281 40.4421 28.0996 40.4072 27.9101 40.4072C27.7206 40.4072 27.5459 40.4395 27.3792 40.4972C27.433 40.3414 27.4639 40.1747 27.4639 40C27.4639 39.8253 27.433 39.6587 27.3792 39.5028ZM27.3792 31.3399C27.5459 31.3977 27.7246 31.4299 27.9101 31.4299C28.0955 31.4299 28.281 31.3963 28.4503 31.3358C28.3992 31.4944 28.371 31.6624 28.371 31.8371C28.371 32.0118 28.3992 32.1798 28.4503 32.3384C28.281 32.2793 28.0996 32.2443 27.9101 32.2443C27.7206 32.2443 27.5459 32.2766 27.3792 32.3344C27.433 32.1785 27.4639 32.0118 27.4639 31.8371C27.4639 31.6624 27.433 31.4958 27.3792 31.3399ZM29.4636 49.7017C29.633 49.7608 29.8144 49.7957 30.0039 49.7957C30.0966 49.7957 30.188 49.7863 30.2767 49.7715C30.2417 49.91 30.2202 50.0538 30.2202 50.2029C30.2202 50.3521 30.2404 50.4959 30.2767 50.6343C30.188 50.6195 30.0979 50.6101 30.0039 50.6101C29.8144 50.6101 29.633 50.6437 29.4636 50.7042C29.5147 50.5456 29.5429 50.3776 29.5429 50.2029C29.5429 50.0282 29.5147 49.8602 29.4636 49.7017ZM29.4636 45.6202C29.633 45.6793 29.8144 45.7143 30.0039 45.7143C30.0966 45.7143 30.188 45.7049 30.2767 45.6901C30.2417 45.8285 30.2202 45.9723 30.2202 46.1215C30.2202 46.2707 30.2404 46.4145 30.2767 46.5542C30.188 46.5394 30.0979 46.53 30.0039 46.53C29.8144 46.53 29.633 46.5636 29.4636 46.6241C29.5147 46.4655 29.5429 46.2975 29.5429 46.1228C29.5429 45.9481 29.5147 45.7801 29.4636 45.6216V45.6202ZM31.6045 31.5065C31.7227 31.5321 31.8437 31.5455 31.97 31.5455C32.0963 31.5455 32.228 31.5307 32.3503 31.5025C32.3288 31.6113 32.3167 31.7229 32.3167 31.8385C32.3167 31.954 32.3288 32.0656 32.3503 32.1744C32.228 32.1476 32.1017 32.1314 31.97 32.1314C31.8383 32.1314 31.7227 32.1449 31.6045 32.1704C31.626 32.0629 31.6381 31.9527 31.6381 31.8385C31.6381 31.7242 31.626 31.614 31.6045 31.5065ZM31.6045 47.8309C31.7227 47.8565 31.8437 47.8699 31.97 47.8699C32.0963 47.8699 32.228 47.8551 32.3503 47.8269C32.3288 47.9358 32.3167 48.0473 32.3167 48.1629C32.3167 48.2785 32.3288 48.39 32.3503 48.4989C32.228 48.472 32.1017 48.4559 31.97 48.4559C31.8383 48.4559 31.7227 48.4693 31.6045 48.4948C31.626 48.3873 31.6381 48.2771 31.6381 48.1629C31.6381 48.0487 31.626 47.9385 31.6045 47.8309ZM31.6045 43.7495C31.7227 43.775 31.8437 43.7885 31.97 43.7885C32.0963 43.7885 32.228 43.7737 32.3503 43.7455C32.3288 43.8543 32.3167 43.9659 32.3167 44.0814C32.3167 44.197 32.3288 44.3086 32.3503 44.4174C32.228 44.3905 32.1017 44.3744 31.97 44.3744C31.8383 44.3744 31.7227 44.3879 31.6045 44.4134C31.626 44.3059 31.6381 44.1957 31.6381 44.0814C31.6381 43.9672 31.626 43.857 31.6045 43.7495ZM33.6835 45.7869C33.8058 45.8137 33.9321 45.8299 34.0638 45.8299C34.1068 45.8299 34.1498 45.8258 34.1915 45.8231C34.1754 45.9212 34.1646 46.0207 34.1646 46.1228C34.1646 46.225 34.1754 46.3244 34.1915 46.4225C34.1485 46.4198 34.1068 46.4158 34.0638 46.4158C33.9334 46.4158 33.8058 46.4306 33.6835 46.4588C33.705 46.35 33.7171 46.2384 33.7171 46.1228C33.7171 46.0073 33.705 45.8957 33.6835 45.7869ZM34.1915 42.3397C34.1485 42.3371 34.1068 42.333 34.0638 42.333C33.9334 42.333 33.8058 42.3478 33.6835 42.376C33.705 42.2672 33.7171 42.1556 33.7171 42.0401C33.7171 41.9245 33.705 41.8129 33.6835 41.7041C33.8058 41.731 33.9321 41.7471 34.0638 41.7471C34.1068 41.7471 34.1498 41.743 34.1915 41.7404C34.1754 41.8385 34.1646 41.9379 34.1646 42.0401C34.1646 42.1422 34.1754 42.2416 34.1915 42.3397ZM31.6045 39.6681C31.7227 39.6936 31.8437 39.707 31.97 39.707C32.0963 39.707 32.228 39.6923 32.3503 39.664C32.3288 39.7729 32.3167 39.8844 32.3167 40C32.3167 40.1156 32.3288 40.2271 32.3503 40.336C32.228 40.3091 32.1017 40.293 31.97 40.293C31.8383 40.293 31.7227 40.3064 31.6045 40.3319C31.626 40.2244 31.6381 40.1142 31.6381 40C31.6381 39.8858 31.626 39.7756 31.6045 39.6681ZM33.6835 49.8683C33.8058 49.8952 33.9321 49.9113 34.0638 49.9113C34.1068 49.9113 34.1498 49.9073 34.1915 49.9046C34.1754 50.0027 34.1646 50.1021 34.1646 50.2043C34.1646 50.3064 34.1754 50.4059 34.1915 50.504C34.1485 50.5013 34.1068 50.4972 34.0638 50.4972C33.9334 50.4972 33.8058 50.512 33.6835 50.5403C33.705 50.4314 33.7171 50.3199 33.7171 50.2043C33.7171 50.0887 33.705 49.9772 33.6835 49.8683ZM34.1915 34.1769C34.1485 34.1742 34.1068 34.1701 34.0638 34.1701C33.9334 34.1701 33.8058 34.1849 33.6835 34.2131C33.705 34.1043 33.7171 33.9927 33.7171 33.8772C33.7171 33.7616 33.705 33.6501 33.6835 33.5412C33.8058 33.5681 33.9321 33.5842 34.0638 33.5842C34.1068 33.5842 34.1498 33.5802 34.1915 33.5775C34.1754 33.6756 34.1646 33.775 34.1646 33.8772C34.1646 33.9793 34.1754 34.0788 34.1915 34.1769ZM30.2767 34.3099C30.188 34.2951 30.0979 34.2857 30.0039 34.2857C29.8144 34.2857 29.633 34.3193 29.4636 34.3798C29.5147 34.2212 29.5429 34.0532 29.5429 33.8785C29.5429 33.7038 29.5147 33.5358 29.4636 33.3772C29.633 33.4364 29.8144 33.4713 30.0039 33.4713C30.0966 33.4713 30.188 33.4619 30.2767 33.4471C30.2417 33.5855 30.2202 33.7293 30.2202 33.8799C30.2202 34.0304 30.2404 34.1728 30.2767 34.3113V34.3099ZM29.4636 41.5401C29.633 41.5993 29.8144 41.6342 30.0039 41.6342C30.0966 41.6342 30.188 41.6248 30.2767 41.61C30.2417 41.7484 30.2202 41.8922 30.2202 42.0414C30.2202 42.1906 30.2404 42.3344 30.2767 42.4728C30.188 42.458 30.0979 42.4486 30.0039 42.4486C29.8144 42.4486 29.633 42.4822 29.4636 42.5427C29.5147 42.3841 29.5429 42.2161 29.5429 42.0414C29.5429 41.8667 29.5147 41.6987 29.4636 41.5401ZM34.1915 30.0954C34.1485 30.0927 34.1068 30.0887 34.0638 30.0887C33.9334 30.0887 33.8058 30.1035 33.6835 30.1317C33.705 30.0229 33.7171 29.9113 33.7171 29.7957C33.7171 29.6802 33.705 29.5686 33.6835 29.4598C33.8058 29.4866 33.9321 29.5028 34.0638 29.5028C34.1068 29.5028 34.1498 29.4987 34.1915 29.496C34.1754 29.5941 34.1646 29.6936 34.1646 29.7957C34.1646 29.8979 34.1754 29.9973 34.1915 30.0954ZM30.2767 30.2285C30.188 30.2137 30.0979 30.2043 30.0039 30.2043C29.8144 30.2043 29.633 30.2379 29.4636 30.2984C29.5147 30.1398 29.5429 29.9718 29.5429 29.7971C29.5429 29.6224 29.5147 29.4544 29.4636 29.2958C29.633 29.3549 29.8144 29.3899 30.0039 29.3899C30.0966 29.3899 30.188 29.3805 30.2767 29.3657C30.2417 29.5041 30.2202 29.6479 30.2202 29.7971C30.2202 29.9462 30.2404 30.09 30.2767 30.2285ZM27.3792 43.5842C27.5459 43.642 27.7246 43.6742 27.9101 43.6742C28.0955 43.6742 28.281 43.6406 28.4503 43.5802C28.3992 43.7387 28.371 43.9067 28.371 44.0814C28.371 44.2562 28.3992 44.4241 28.4503 44.5827C28.281 44.5236 28.0996 44.4886 27.9101 44.4886C27.7206 44.4886 27.5459 44.5209 27.3792 44.5787C27.433 44.4228 27.4639 44.2562 27.4639 44.0814C27.4639 43.9067 27.433 43.7401 27.3792 43.5842ZM34.1915 21.9339C34.1485 21.9312 34.1068 21.9272 34.0638 21.9272C33.9334 21.9272 33.8058 21.9419 33.6835 21.9702C33.705 21.8613 33.7171 21.7498 33.7171 21.6342C33.7171 21.5186 33.705 21.4071 33.6835 21.2982C33.8058 21.3251 33.9321 21.3412 34.0638 21.3412C34.1068 21.3412 34.1498 21.3372 34.1915 21.3345C34.1754 21.4326 34.1646 21.5321 34.1646 21.6342C34.1646 21.7363 34.1754 21.8358 34.1915 21.9339ZM30.2767 22.0656C30.188 22.0508 30.0979 22.0414 30.0039 22.0414C29.8144 22.0414 29.633 22.075 29.4636 22.1355C29.5147 21.9769 29.5429 21.8089 29.5429 21.6342C29.5429 21.4595 29.5147 21.2915 29.4636 21.1329C29.633 21.192 29.8144 21.227 30.0039 21.227C30.0966 21.227 30.188 21.2176 30.2767 21.2028C30.2417 21.3412 30.2202 21.485 30.2202 21.6342C30.2202 21.7834 30.2404 21.9272 30.2767 22.0656ZM25.1819 57.6361C25.4064 57.7664 25.6671 57.843 25.9453 57.843C26.0985 57.843 26.2477 57.8202 26.3874 57.7772C26.3162 57.96 26.2759 58.1575 26.2759 58.3658C26.2759 58.5741 26.3162 58.7717 26.3874 58.9544C26.2477 58.9114 26.0998 58.8886 25.9453 58.8886C25.6671 58.8886 25.4064 58.9652 25.1819 59.0956C25.3015 58.8792 25.3687 58.6306 25.3687 58.3658C25.3687 58.1011 25.3002 57.8524 25.1819 57.6361ZM29.4636 57.8645C29.633 57.9237 29.8144 57.9586 30.0039 57.9586C30.0966 57.9586 30.188 57.9492 30.2767 57.9344C30.2417 58.0728 30.2202 58.2166 30.2202 58.3658C30.2202 58.515 30.2404 58.6588 30.2767 58.7972C30.188 58.7824 30.0979 58.773 30.0039 58.773C29.8144 58.773 29.633 58.8066 29.4636 58.8671C29.5147 58.7085 29.5429 58.5405 29.5429 58.3658C29.5429 58.1911 29.5147 58.0231 29.4636 57.8645ZM33.6835 58.0312C33.8058 58.0581 33.9321 58.0742 34.0638 58.0742C34.1068 58.0742 34.1498 58.0702 34.1915 58.0675C34.1754 58.1656 34.1646 58.265 34.1646 58.3672C34.1646 58.4693 34.1754 58.5687 34.1915 58.6668C34.1485 58.6642 34.1068 58.6601 34.0638 58.6601C33.9334 58.6601 33.8058 58.6749 33.6835 58.7031C33.705 58.5943 33.7171 58.4827 33.7171 58.3672C33.7171 58.2516 33.705 58.14 33.6835 58.0312ZM34.1915 17.8524C34.1485 17.8498 34.1068 17.8457 34.0638 17.8457C33.9334 17.8457 33.8058 17.8605 33.6835 17.8887C33.705 17.7799 33.7171 17.6683 33.7171 17.5528C33.7171 17.4372 33.705 17.3256 33.6835 17.2168C33.8058 17.2437 33.9321 17.2598 34.0638 17.2598C34.1068 17.2598 34.1498 17.2558 34.1915 17.2531C34.1754 17.3512 34.1646 17.4506 34.1646 17.5528C34.1646 17.6549 34.1754 17.7543 34.1915 17.8524ZM30.2767 17.9855C30.188 17.9707 30.0979 17.9613 30.0039 17.9613C29.8144 17.9613 29.633 17.9949 29.4636 18.0554C29.5147 17.8968 29.5429 17.7288 29.5429 17.5541C29.5429 17.3794 29.5147 17.2114 29.4636 17.0528C29.633 17.112 29.8144 17.1469 30.0039 17.1469C30.0966 17.1469 30.188 17.1375 30.2767 17.1227C30.2417 17.2611 30.2202 17.4049 30.2202 17.5554C30.2202 17.706 30.2404 17.8484 30.2767 17.9868V17.9855ZM26.3874 18.1414C26.2477 18.0984 26.0998 18.0755 25.9453 18.0755C25.6671 18.0755 25.4064 18.1521 25.1819 18.2825C25.3015 18.0661 25.3687 17.8175 25.3687 17.5528C25.3687 17.288 25.3002 17.0394 25.1819 16.823C25.4064 16.9547 25.6671 17.03 25.9453 17.03C26.0985 17.03 26.2477 17.0071 26.3874 16.9641C26.3162 17.1469 26.2759 17.3444 26.2759 17.5528C26.2759 17.7611 26.3162 17.9586 26.3874 18.1414ZM25.1819 61.7175C25.4064 61.8492 25.6671 61.9245 25.9453 61.9245C26.0985 61.9245 26.2477 61.9016 26.3874 61.8586C26.3162 62.0414 26.2759 62.239 26.2759 62.4473C26.2759 62.6556 26.3162 62.8531 26.3874 63.0359C26.2477 62.9929 26.0998 62.97 25.9453 62.97C25.6671 62.97 25.4064 63.0466 25.1819 63.177C25.3015 62.9606 25.3687 62.712 25.3687 62.4473C25.3687 62.1825 25.3002 61.9339 25.1819 61.7175ZM29.4636 61.946C29.633 62.0051 29.8144 62.0401 30.0039 62.0401C30.0966 62.0401 30.188 62.0306 30.2767 62.0159C30.2417 62.1543 30.2202 62.2981 30.2202 62.4473C30.2202 62.5964 30.2404 62.7402 30.2767 62.88C30.188 62.8652 30.0979 62.8558 30.0039 62.8558C29.8144 62.8558 29.633 62.8894 29.4636 62.9499C29.5147 62.7913 29.5429 62.6233 29.5429 62.4486C29.5429 62.2739 29.5147 62.1059 29.4636 61.9473V61.946ZM33.6835 62.1113C33.8058 62.1382 33.9321 62.1543 34.0638 62.1543C34.1068 62.1543 34.1498 62.1503 34.1915 62.1476C34.1754 62.2457 34.1646 62.3451 34.1646 62.4473C34.1646 62.5494 34.1754 62.6488 34.1915 62.7469C34.1485 62.7443 34.1068 62.7402 34.0638 62.7402C33.9334 62.7402 33.8058 62.755 33.6835 62.7832C33.705 62.6744 33.7171 62.5628 33.7171 62.4473C33.7171 62.3317 33.705 62.2201 33.6835 62.1113ZM34.1915 13.771C34.1485 13.7683 34.1068 13.7643 34.0638 13.7643C33.9334 13.7643 33.8058 13.7791 33.6835 13.8073C33.705 13.6984 33.7171 13.5869 33.7171 13.4713C33.7171 13.3557 33.705 13.2442 33.6835 13.1353C33.8058 13.1622 33.9321 13.1783 34.0638 13.1783C34.1068 13.1783 34.1498 13.1743 34.1915 13.1716C34.1754 13.2697 34.1646 13.3692 34.1646 13.4713C34.1646 13.5734 34.1754 13.6729 34.1915 13.771ZM30.2767 13.9041C30.188 13.8893 30.0979 13.8799 30.0039 13.8799C29.8144 13.8799 29.633 13.9135 29.4636 13.9739C29.5147 13.8154 29.5429 13.6474 29.5429 13.4727C29.5429 13.2979 29.5147 13.13 29.4636 12.9714C29.633 13.0305 29.8144 13.0655 30.0039 13.0655C30.0966 13.0655 30.188 13.056 30.2767 13.0413C30.2417 13.1797 30.2202 13.3235 30.2202 13.4727C30.2202 13.6218 30.2404 13.7656 30.2767 13.9041ZM26.3874 14.0599C26.2477 14.0169 26.0998 13.9941 25.9453 13.9941C25.6671 13.9941 25.4064 14.0707 25.1819 14.2011C25.3015 13.9847 25.3687 13.7361 25.3687 13.4713C25.3687 13.2066 25.3002 12.9579 25.1819 12.7416C25.4064 12.8733 25.6671 12.9485 25.9453 12.9485C26.0985 12.9485 26.2477 12.9257 26.3874 12.8827C26.3162 13.0655 26.2759 13.263 26.2759 13.4713C26.2759 13.6796 26.3162 13.8772 26.3874 14.0599ZM25.1819 65.799C25.4064 65.9307 25.6671 66.0059 25.9453 66.0059C26.0985 66.0059 26.2477 65.9831 26.3874 65.9401C26.3162 66.1228 26.2759 66.3204 26.2759 66.5287C26.2759 66.737 26.3162 66.9346 26.3874 67.1173C26.2477 67.0743 26.0998 67.0515 25.9453 67.0515C25.6671 67.0515 25.4064 67.1281 25.1819 67.2584C25.3015 67.0421 25.3687 66.7934 25.3687 66.5287C25.3687 66.2639 25.3002 66.0153 25.1819 65.799ZM29.4636 66.0274C29.633 66.0865 29.8144 66.1215 30.0039 66.1215C30.0966 66.1215 30.188 66.1121 30.2767 66.0973C30.2417 66.2357 30.2202 66.3795 30.2202 66.5287C30.2202 66.6779 30.2404 66.8217 30.2767 66.9601C30.188 66.9453 30.0979 66.9359 30.0039 66.9359C29.8144 66.9359 29.633 66.9695 29.4636 67.03C29.5147 66.8714 29.5429 66.7034 29.5429 66.5287C29.5429 66.354 29.5147 66.186 29.4636 66.0274ZM33.6835 66.1927C33.8058 66.2196 33.9321 66.2357 34.0638 66.2357C34.1068 66.2357 34.1498 66.2317 34.1915 66.229C34.1754 66.3271 34.1646 66.4266 34.1646 66.5287C34.1646 66.6308 34.1754 66.7303 34.1915 66.8284C34.1485 66.8257 34.1068 66.8217 34.0638 66.8217C33.9334 66.8217 33.8058 66.8364 33.6835 66.8647C33.705 66.7558 33.7171 66.6443 33.7171 66.5287C33.7171 66.4131 33.705 66.3016 33.6835 66.1927ZM34.0638 9.0969C34.1068 9.0969 34.1498 9.09287 34.1915 9.09018C34.1754 9.18829 34.1646 9.28774 34.1646 9.38987C34.1646 9.49201 34.1754 9.59146 34.1915 9.68956C34.1485 9.68688 34.1068 9.68284 34.0638 9.68284C33.9334 9.68284 33.8058 9.69763 33.6835 9.72585C33.705 9.61699 33.7171 9.50545 33.7171 9.38987C33.7171 9.2743 33.705 9.16275 33.6835 9.0539C33.8058 9.08077 33.9321 9.0969 34.0638 9.0969ZM30.2767 8.95848C30.2417 9.0969 30.2202 9.2407 30.2202 9.38987C30.2202 9.53905 30.2404 9.68284 30.2767 9.82261C30.188 9.80783 30.0979 9.79842 30.0039 9.79842C29.8144 9.79842 29.633 9.83202 29.4636 9.89249C29.5147 9.73391 29.5429 9.56592 29.5429 9.39122C29.5429 9.21651 29.5147 9.04852 29.4636 8.88994C29.633 8.94907 29.8144 8.98401 30.0039 8.98401C30.0966 8.98401 30.188 8.97461 30.2767 8.95982V8.95848ZM25.9453 8.86844C26.0985 8.86844 26.2477 8.84559 26.3874 8.80259C26.3162 8.98536 26.2759 9.18291 26.2759 9.39122C26.2759 9.59952 26.3162 9.79708 26.3874 9.97985C26.2477 9.93684 26.0998 9.91399 25.9453 9.91399C25.6671 9.91399 25.4064 9.9906 25.1819 10.121C25.3015 9.90459 25.3687 9.65597 25.3687 9.39122C25.3687 9.12647 25.3002 8.87784 25.1819 8.66148C25.4064 8.79318 25.6671 8.86844 25.9453 8.86844ZM25.9453 71.1316C25.6671 71.1316 25.4064 71.2082 25.1819 71.3385C25.3015 71.1222 25.3687 70.8735 25.3687 70.6088C25.3687 70.344 25.3002 70.0954 25.1819 69.879C25.4064 70.0094 25.6671 70.086 25.9453 70.086C26.0985 70.086 26.2477 70.0632 26.3874 70.0202C26.3162 70.2029 26.2759 70.4005 26.2759 70.6088C26.2759 70.8171 26.3162 71.0147 26.3874 71.1974C26.2477 71.1544 26.0998 71.1316 25.9453 71.1316ZM30.0052 71.0173C29.8157 71.0173 29.6343 71.0509 29.465 71.1114C29.516 70.9528 29.5443 70.7848 29.5443 70.6101C29.5443 70.4354 29.516 70.2674 29.465 70.1089C29.6343 70.168 29.8157 70.2029 30.0052 70.2029C30.0979 70.2029 30.1893 70.1935 30.278 70.1787C30.2431 70.3172 30.2216 70.461 30.2216 70.6115C30.2216 70.762 30.2417 70.9045 30.278 71.0442C30.1893 71.0294 30.0993 71.02 30.0052 71.02V71.0173ZM34.0638 70.9031C33.9334 70.9031 33.8058 70.9179 33.6835 70.9461C33.705 70.8373 33.7171 70.7257 33.7171 70.6101C33.7171 70.4946 33.705 70.383 33.6835 70.2742C33.8058 70.301 33.9321 70.3172 34.0638 70.3172C34.1068 70.3172 34.1498 70.3145 34.1915 70.3104C34.1754 70.4085 34.1646 70.508 34.1646 70.6101C34.1646 70.7123 34.1754 70.8117 34.1915 70.9098C34.1485 70.9071 34.1068 70.9031 34.0638 70.9031Z" fill="black"/>
<path d="M15.7331 35.1673C16.4449 35.1673 17.0219 34.5903 17.0219 33.8785C17.0219 33.1667 16.4449 32.5897 15.7331 32.5897C15.0214 32.5897 14.4443 33.1667 14.4443 33.8785C14.4443 34.5903 15.0214 35.1673 15.7331 35.1673Z" fill="black"/>
<path d="M17.8281 37.2074C18.5399 37.2074 19.1169 36.6303 19.1169 35.9186C19.1169 35.2068 18.5399 34.6297 17.8281 34.6297C17.1163 34.6297 16.5393 35.2068 16.5393 35.9186C16.5393 36.6303 17.1163 37.2074 17.8281 37.2074Z" fill="black"/>
<path d="M57.7099 48.9343C50.7834 48.9343 45.1484 43.2993 45.1484 36.3728C45.1484 29.4463 50.7834 23.8113 57.7099 23.8113C64.6364 23.8113 70.2714 29.4463 70.2714 36.3728C70.2714 43.2993 64.6364 48.9343 57.7099 48.9343ZM57.7099 28.2919C53.2535 28.2919 49.629 31.9177 49.629 36.3728C49.629 40.8278 53.2549 44.4537 57.7099 44.4537C62.165 44.4537 65.7908 40.8278 65.7908 36.3728C65.7908 31.9177 62.165 28.2919 57.7099 28.2919Z" fill="white"/>
<path d="M38.9733 48.8966C38.855 48.3551 38.7018 47.3995 38.5311 45.7129C38.3699 44.1016 38.0796 42.8867 37.6441 42.0011C37.1899 41.0832 36.4951 40.3575 35.5799 39.8414C34.4927 39.2474 33.0036 38.9598 31.0214 38.9598H30.8977H26.5408V48.8966H22.1543V25.6484C22.1543 24.7332 22.8988 23.9874 23.8154 23.9874H33.6138C37.1335 23.9874 39.6009 24.4255 40.9502 25.2883C41.8398 25.8554 42.5387 26.6134 43.0265 27.542C43.521 28.476 43.771 29.5229 43.771 30.6558C43.771 32.9741 43.1716 34.7507 42.0414 35.9831C40.6303 37.5232 39.1117 38.132 39.1117 38.132C39.1117 38.132 40.3535 38.7327 40.8373 39.2165C41.36 39.7393 42.1435 40.7311 42.5749 41.4635C42.8975 42.0091 43.0776 42.5803 43.1985 43.1058C43.3248 43.6487 43.4324 44.4846 43.5184 45.5933C43.6339 47.0044 43.7791 48.0943 43.9605 48.8953H38.9746L38.9733 48.8966ZM26.5395 35.4012H34.2226C35.6498 35.4012 36.6631 35.1781 37.3176 34.7171C38.3053 34.0089 38.8039 32.8249 38.8039 31.1947C38.8039 28.8644 37.5783 27.9331 36.5502 27.5622C36.0462 27.3834 35.2856 27.2961 34.2226 27.2961H27.2705C26.8674 27.2961 26.5395 27.6226 26.5395 28.0271V35.4012Z" fill="white"/>
<path d="M85.4898 48.945C83.5653 48.945 81.8572 48.8241 80.4125 48.5876C78.2247 48.2314 76.4655 47.2638 75.1794 45.7116C73.3046 43.4337 72.3545 40.2755 72.3545 36.3244C72.3545 31.9621 73.6957 28.5325 76.3405 26.1336C77.2261 25.3407 78.1803 24.7803 79.1735 24.4698C80.1948 24.15 81.5992 23.9887 83.349 23.9887H91.0267V27.4291H85.4898C83.5129 27.4291 82.1018 27.5675 81.1772 27.8511C80.1989 28.1481 79.3751 28.7314 78.7273 29.5847C78.2986 30.1586 78.0016 30.7499 77.8417 31.3452C77.6898 31.9164 77.5648 32.8303 77.46 34.1406L77.4089 34.7789H91.0254V38.2193H77.4062L77.46 38.8604C77.6643 41.3036 78.4021 43.0466 79.6519 44.0398C80.8923 45.0249 82.884 45.5046 85.7384 45.5046H91.0254V48.945H85.4885H85.4898Z" fill="white"/>
<path d="M25.7116 55.4011V56.1873H24.1702C23.8772 56.1873 23.6528 56.1725 23.4969 56.1416C22.9553 56.0355 22.5696 55.7331 22.3411 55.2318C22.1906 54.8972 22.114 54.4832 22.114 53.9887C22.114 53.3947 22.2296 52.9122 22.4607 52.5386C22.6274 52.2712 22.8505 52.0763 23.13 51.9527C23.4095 51.829 23.771 51.7686 24.2159 51.7686H25.7116V52.5547H24.3234C23.9028 52.5547 23.5937 52.6676 23.3974 52.8921C23.2362 53.0775 23.1542 53.4148 23.1542 53.9027C23.1542 54.5545 23.2805 54.9832 23.5332 55.1875C23.7106 55.3299 23.9847 55.4011 24.3583 55.4011H25.7116Z" fill="white"/>
<path d="M27.8483 54.5074V56.1873H26.9089V51.7686H29.0646C29.6841 51.7686 30.1168 51.8478 30.3628 52.0051C30.5294 52.1113 30.6584 52.251 30.7498 52.4244C30.8412 52.5977 30.8869 52.7899 30.8869 52.9996C30.8869 53.4202 30.7807 53.7441 30.567 53.9712C30.4353 54.1096 30.2606 54.2145 30.0429 54.2884C30.2149 54.3462 30.3466 54.4107 30.434 54.4792C30.5227 54.5478 30.602 54.6499 30.6732 54.7829C30.727 54.8864 30.7659 54.9872 30.7888 55.0853C30.8116 55.1834 30.8305 55.3286 30.8452 55.5207C30.8708 55.8379 30.9071 56.0596 30.9527 56.1873H29.8978C29.8655 56.0838 29.8333 55.8742 29.801 55.5597C29.7755 55.3003 29.7284 55.1028 29.6599 54.9657C29.5914 54.8286 29.4892 54.7211 29.3508 54.6432C29.1801 54.5504 28.9315 54.5047 28.6063 54.5074H27.8483ZM27.8483 53.7212H29.1694C29.3898 53.7212 29.5457 53.689 29.6384 53.6245C29.7782 53.525 29.8494 53.3544 29.8494 53.1125C29.8494 52.8423 29.7432 52.6703 29.5322 52.5951C29.4583 52.5695 29.3374 52.5561 29.1694 52.5561H27.8483V53.7212Z" fill="white"/>
<path d="M35.494 51.7686V52.5547H34.267C33.9458 52.5547 33.7119 52.5762 33.5655 52.6206C33.4203 52.6649 33.298 52.751 33.2013 52.8773C33.1368 52.9633 33.0924 53.0506 33.0682 53.1393C33.044 53.228 33.0239 53.3786 33.0064 53.5922H35.4926V54.3784H33.0064C33.0386 54.7601 33.1502 55.0262 33.3397 55.1754C33.5292 55.3245 33.8517 55.3984 34.3073 55.3984H35.4926V56.1846H34.2656C33.9337 56.1846 33.6407 56.1645 33.3881 56.1228C32.9916 56.0583 32.6744 55.8849 32.4393 55.6014C32.1046 55.1955 31.938 54.6459 31.938 53.9511C31.938 53.181 32.1745 52.5816 32.6476 52.1543C32.8088 52.0091 32.9822 51.9083 33.165 51.8519C33.3477 51.7941 33.5937 51.7659 33.9028 51.7659H35.4926L35.494 51.7686Z" fill="white"/>
<path d="M36.3418 56.1873L38.1709 51.7686H39.2554L41.0844 56.1873H39.9811L39.5537 55.1646H37.8738L37.4465 56.1873H36.3431H36.3418ZM38.7151 52.8302L38.0835 54.3771H39.3427L38.7151 52.8302Z" fill="white"/>
<path d="M42.5439 52.5561H41.1355V51.7699H44.9455V52.5561H43.482V56.1887H42.5439V52.5561Z" fill="white"/>
<path d="M45.9614 56.1873V51.7686H46.9008V56.1873H45.9614Z" fill="white"/>
<path d="M52.6341 51.7686L50.7016 56.1873H49.7595L47.8955 51.7686H48.9545L50.2554 55.0934L51.5765 51.7686H52.6355H52.6341Z" fill="white"/>
<path d="M56.9454 51.7686V52.5547H55.7184C55.3972 52.5547 55.1634 52.5762 55.0169 52.6206C54.8717 52.6649 54.7494 52.751 54.6527 52.8773C54.5882 52.9633 54.5438 53.0506 54.5196 53.1393C54.4954 53.228 54.4753 53.3786 54.4578 53.5922H56.944V54.3784H54.4578C54.4901 54.7601 54.6016 55.0262 54.7911 55.1754C54.9806 55.3245 55.3031 55.3984 55.7587 55.3984H56.944V56.1846H55.717C55.3851 56.1846 55.0921 56.1645 54.8395 56.1228C54.443 56.0583 54.1259 55.8849 53.8907 55.6014C53.5561 55.1955 53.3894 54.6459 53.3894 53.9511C53.3894 53.181 53.6259 52.5816 54.099 52.1543C54.2603 52.0091 54.4336 51.9083 54.6164 51.8519C54.7992 51.7941 55.0451 51.7659 55.3542 51.7659H56.944L56.9454 51.7686Z" fill="white"/>
<path d="M60.4086 51.7686H62.2833C62.7523 51.7686 63.1139 51.8156 63.3705 51.9083C63.8436 52.079 64.1581 52.3935 64.3153 52.8531C64.4363 53.2052 64.4967 53.5828 64.4967 53.986C64.4967 54.3892 64.4389 54.7614 64.3247 55.1162C64.2105 55.4791 64.0196 55.7452 63.7522 55.9158C63.5842 56.0234 63.4001 56.0959 63.1999 56.1322C62.9996 56.1685 62.6946 56.1873 62.282 56.1873H60.4072V51.7686H60.4086ZM61.3466 52.5561V55.4011H62.282C62.6919 55.4011 62.9768 55.3097 63.1367 55.1256C63.2335 55.0127 63.3114 54.8528 63.3719 54.6445C63.431 54.4362 63.4606 54.2145 63.4606 53.9793C63.4606 53.7199 63.4256 53.482 63.3558 53.2643C63.2859 53.0466 63.1918 52.884 63.0762 52.7792C62.9082 52.63 62.6435 52.5561 62.2833 52.5561H61.348H61.3466Z" fill="white"/>
<path d="M65.6914 56.1873V51.7686H66.6308V56.1873H65.6914Z" fill="white"/>
<path d="M68.0499 56.1873V55.4011H70.0671C70.3909 55.4011 70.606 55.3689 70.7148 55.3044C70.8707 55.2116 70.9473 55.0719 70.9473 54.8864C70.9473 54.6727 70.8573 54.5168 70.6759 54.4174C70.5724 54.361 70.4071 54.3327 70.18 54.3327H69.3615C68.8602 54.3327 68.5001 54.2427 68.2797 54.0613C68.1412 53.947 68.0337 53.8032 67.9558 53.6285C67.8778 53.4552 67.8389 53.2697 67.8389 53.0735C67.8389 52.763 67.9289 52.4795 68.1103 52.2215C68.2877 51.9728 68.5713 51.829 68.9624 51.7874C69.0941 51.7739 69.2903 51.7686 69.551 51.7686H71.7429V52.5547H69.7647C69.469 52.5574 69.2728 52.5695 69.1761 52.5937C68.9772 52.6434 68.8777 52.794 68.8777 53.0439C68.8777 53.2549 68.961 53.3974 69.1277 53.4713C69.2392 53.521 69.426 53.5452 69.6841 53.5452H70.3936C70.7565 53.5452 71.0266 53.5761 71.2067 53.6393C71.5198 53.7454 71.7348 53.9309 71.8504 54.1956C71.9458 54.4093 71.9929 54.6378 71.9929 54.8824C71.9929 55.1498 71.9311 55.3904 71.8088 55.6041C71.6367 55.9064 71.376 56.0865 71.0293 56.1443C70.8613 56.1725 70.6087 56.186 70.2713 56.186H68.0512L68.0499 56.1873Z" fill="white"/>
<path d="M74.1418 54.6432V56.1873H73.2024V51.7686H75.4064C75.8082 51.7686 76.0958 51.7968 76.2705 51.8532C76.5595 51.95 76.7879 52.1516 76.9573 52.458C77.0822 52.6851 77.1454 52.9337 77.1454 53.2052C77.1454 53.4296 77.1037 53.642 77.0218 53.8435C76.9398 54.0438 76.8256 54.2091 76.6791 54.3394C76.5501 54.4537 76.4103 54.533 76.2611 54.5773C76.1119 54.6217 75.909 54.6432 75.6523 54.6432H74.1404H74.1418ZM74.1418 53.857H75.4239C75.6523 53.857 75.8136 53.8207 75.9063 53.7468C76.0448 53.6366 76.1133 53.4458 76.1133 53.1743C76.1133 52.8759 76.0085 52.6851 75.7988 52.6018C75.7236 52.5722 75.6039 52.5561 75.4427 52.5561H74.1418V53.857Z" fill="white"/>
<path d="M78.2273 51.7686H79.1667V54.2481C79.1801 54.5625 79.1936 54.7722 79.2083 54.8757C79.2379 55.0759 79.3347 55.2143 79.4973 55.2882C79.6599 55.3622 79.9461 55.3998 80.3574 55.3998H81.2605V56.186H80.2606C79.7876 56.1887 79.4449 56.1618 79.2312 56.1053C78.7434 55.9629 78.4343 55.6538 78.3052 55.1767C78.2555 54.9939 78.23 54.6835 78.2273 54.2481V51.7686Z" fill="white"/>
<path d="M82.0508 56.1873L83.8798 51.7686H84.9644L86.7934 56.1873H85.6901L85.2627 55.1646H83.5828L83.1555 56.1873H82.0521H82.0508ZM84.4228 52.8302L83.7911 54.3771H85.0504L84.4228 52.8302Z" fill="white"/>
<path d="M88.3631 54.2494L86.7275 51.7699H87.8282L88.8415 53.4955L89.9099 51.7699H91.0267L89.3011 54.2884V56.1887H88.3631V54.2494Z" fill="white"/>
</svg>
