<svg width="240" height="80" viewBox="0 0 240 80" fill="none" xmlns="http://www.w3.org/2000/svg">
<path fill-rule="evenodd" clip-rule="evenodd" d="M234.268 3.4897C233.884 3.15392 233.272 3.01001 232.457 3.01001H229.819V9.83357H230.886V6.89548H232.013L233.872 9.82158H235.011L233.068 6.81154C233.572 6.76357 234.004 6.58369 234.34 6.30787C234.687 6.00806 234.855 5.57634 234.855 4.96474C234.855 4.30517 234.651 3.81349 234.268 3.4897ZM232.673 6.02005C232.457 6.02005 232.241 6.02005 231.989 6.02005H230.874V3.84946H232.277C232.457 3.84946 232.637 3.84946 232.817 3.88544C232.997 3.92142 233.164 3.96939 233.296 4.02935C233.44 4.11329 233.56 4.20923 233.644 4.34114C233.728 4.47306 233.776 4.65294 233.776 4.88079C233.776 5.15661 233.728 5.36048 233.632 5.51638C233.536 5.66029 233.404 5.78021 233.248 5.86415C233.08 5.93611 232.889 5.98408 232.685 5.99607L232.673 6.02005Z" fill="black"/>
<path fill-rule="evenodd" clip-rule="evenodd" d="M227.96 2.27843C227.42 2.7941 227 3.41769 226.689 4.12523C226.377 4.84476 226.221 5.58828 226.221 6.41574C226.221 7.2432 226.389 8.04668 226.689 8.74223C227 9.46176 227.42 10.0734 227.96 10.601C228.499 11.1167 229.111 11.5364 229.843 11.8122C230.562 12.112 231.306 12.244 232.121 12.244C232.937 12.244 233.668 12.1 234.388 11.8122C235.083 11.5124 235.707 11.1167 236.246 10.601C236.774 10.0854 237.206 9.46176 237.518 8.74223C237.829 8.0227 237.985 7.2432 237.985 6.41574C237.985 5.58828 237.817 4.83277 237.518 4.12523C237.206 3.42968 236.786 2.80609 236.246 2.27843C235.707 1.75077 235.095 1.34304 234.388 1.06722C233.668 0.767412 232.925 0.635498 232.121 0.635498C231.318 0.635498 230.562 0.779404 229.843 1.06722C229.111 1.34304 228.499 1.76277 227.96 2.27843ZM228.667 9.98942C228.248 9.53371 227.9 9.00606 227.648 8.40645C227.396 7.80684 227.264 7.13527 227.264 6.42773C227.264 5.72019 227.384 5.08461 227.648 4.485C227.9 3.88539 228.236 3.35773 228.667 2.92601C229.099 2.49429 229.615 2.12253 230.202 1.88269C230.79 1.61886 231.414 1.49894 232.121 1.49894C232.829 1.49894 233.416 1.63085 234.016 1.88269C234.603 2.14652 235.107 2.4823 235.527 2.92601C235.959 3.35773 236.294 3.88539 236.546 4.485C236.798 5.08461 236.93 5.73219 236.93 6.42773C236.93 7.12328 236.798 7.80684 236.546 8.40645C236.294 9.00606 235.959 9.54571 235.527 9.98942C235.107 10.4211 234.58 10.7929 234.016 11.0567C233.428 11.3206 232.817 11.4405 232.121 11.4405C231.438 11.4405 230.802 11.3086 230.202 11.0567C229.615 10.7929 229.099 10.4451 228.667 9.98942Z" fill="black"/>
<path fill-rule="evenodd" clip-rule="evenodd" d="M20.171 56.4352L36.3844 7.87878H61.2323C65.8373 7.87878 69.2191 8.26253 71.4017 9.06601C73.5603 9.86949 75.0473 11.3325 75.8148 13.4911C76.5823 15.6377 76.4624 18.264 75.431 21.358C74.5316 24.0443 73.1885 26.3708 71.3897 28.3255C69.5908 30.2802 67.4922 31.8512 65.0818 33.0864C63.5468 33.8659 61.604 34.5015 59.2056 35.0052C60.7886 35.6048 61.8679 36.2164 62.5034 36.804C63.8226 38.0032 64.794 40.4016 65.1177 42.3804L67.6361 56.4472H50.7631L47.753 41.6129C47.3693 39.6941 46.9016 38.4349 46.302 37.8713C45.4745 37.1278 44.3832 36.744 43.0281 36.744H41.709L35.1372 56.4592H20.147C20.147 56.4352 20.171 56.4352 20.171 56.4352ZM44.791 27.546H51.0749C53.905 27.546 56.2675 27.0903 58.1743 25.3634C59.0737 24.548 59.7093 23.6006 60.057 22.5453C60.5727 20.9863 60.4768 19.787 59.7812 18.9356C59.0857 18.0842 57.3588 17.6884 54.6366 17.6884H48.0888C48.0768 17.6764 44.791 27.546 44.791 27.546Z" fill="black"/>
<path fill-rule="evenodd" clip-rule="evenodd" d="M77.3977 32.211C79.9401 24.536 84.0414 18.5879 89.6778 14.3067C95.3141 10.0494 101.91 7.90283 109.441 7.90283C116.972 7.90283 122.44 10.0015 125.211 14.2107C127.993 18.408 128.137 24.2962 125.606 31.8513C123.784 37.3437 121.373 41.8288 118.387 45.3425C115.389 48.8562 111.851 51.6024 107.738 53.5452C103.625 55.4879 99.0077 56.4713 93.851 56.4713C88.6944 56.4713 84.5451 55.6198 81.691 53.9409C78.8248 52.25 76.9181 49.5997 76.0066 45.9301C75.0952 42.2845 75.5389 37.7155 77.3498 32.223L77.3977 32.211ZM91.7284 32.271C90.1455 37.0079 89.8816 40.4137 90.9489 42.5003C92.0162 44.563 94.0309 45.6063 97.017 45.6063C100.003 45.6063 102.821 44.587 105.184 42.5603C107.546 40.5336 109.597 36.888 111.336 31.6354C112.799 27.2223 113.003 23.9844 111.899 21.9457C110.796 19.907 108.757 18.8877 105.747 18.8877C102.737 18.8877 100.195 19.931 97.7605 21.9937C95.3261 24.0563 93.3114 27.4981 91.7284 32.271Z" fill="black"/>
<path d="M127.945 39.9939L141.94 39.1305C141.484 41.3611 141.52 43.0759 142.036 44.2272C142.887 46.122 144.698 47.0574 147.444 47.0574C149.495 47.0574 151.234 46.5777 152.685 45.6063C154.112 44.6469 155.059 43.5197 155.479 42.2365C155.875 41.0373 155.731 39.946 154.975 38.9746C154.244 38.0152 152.085 37.1158 148.511 36.2644C142.671 34.8493 138.81 32.9425 136.903 30.5801C134.984 28.2176 134.636 25.2076 135.86 21.5619C136.663 19.1515 138.126 16.885 140.225 14.7623C142.323 12.6397 144.986 10.9488 148.176 9.73761C151.366 8.5264 155.371 7.91479 160.24 7.91479C166.2 7.91479 170.373 9.03007 172.748 11.2606C175.122 13.4912 175.806 17.0169 174.774 21.8617L160.935 22.6652C161.283 20.5666 161.031 19.0316 160.204 18.0722C159.376 17.1128 157.937 16.6451 155.911 16.6451C154.232 16.6451 152.853 17.0049 151.773 17.7244C150.682 18.444 149.962 19.3074 149.627 20.3387C149.375 21.0822 149.495 21.7538 150.01 22.3414C150.478 22.953 151.905 23.5286 154.256 24.0683C160.096 25.4354 164.137 26.8025 166.404 28.2056C168.67 29.5847 170.061 31.3356 170.613 33.3862C171.165 35.4489 170.997 37.7514 170.157 40.3057C169.138 43.3038 167.411 46.062 164.905 48.5924C162.398 51.1227 159.448 53.0415 156.055 54.3486C152.649 55.6438 148.703 56.2914 144.17 56.2914C136.231 56.2914 131.255 54.7564 129.24 51.6983C127.213 48.6283 126.77 44.7309 127.945 39.9939Z" fill="black"/>
<path d="M174.667 39.9939L188.661 39.1305C188.206 41.3611 188.242 43.0759 188.757 44.2272C189.609 46.122 191.42 47.0574 194.166 47.0574C196.217 47.0574 197.979 46.5777 199.407 45.6063C200.834 44.6349 201.781 43.5197 202.201 42.2365C202.596 41.0373 202.453 39.946 201.697 38.9746C200.966 38.0152 198.807 37.1158 195.233 36.2644C189.393 34.8493 185.532 32.9425 183.625 30.5801C181.706 28.2176 181.358 25.2076 182.581 21.5619C183.385 19.1515 184.848 16.885 186.947 14.7623C189.045 12.6277 191.708 10.9488 194.897 9.73761C198.087 8.5264 202.105 7.91479 206.974 7.91479C212.934 7.91479 217.107 9.03007 219.481 11.2606C221.856 13.4912 222.539 17.0169 221.508 21.8617L207.669 22.6652C208.017 20.5666 207.765 19.0316 206.938 18.0722C206.11 17.1128 204.671 16.6451 202.644 16.6451C200.966 16.6451 199.586 17.0049 198.507 17.7244C197.416 18.444 196.696 19.3074 196.36 20.3387C196.109 21.0822 196.229 21.7538 196.744 22.3414C197.212 22.953 198.639 23.5286 200.989 24.0683C206.818 25.4354 210.871 26.8025 213.138 28.2056C215.404 29.5847 216.795 31.3356 217.335 33.3862C217.887 35.4489 217.719 37.7514 216.879 40.3057C215.86 43.3038 214.133 46.062 211.627 48.5924C209.12 51.1227 206.17 53.0415 202.776 54.3486C199.371 55.6438 195.425 56.2914 190.892 56.2914C182.953 56.2914 177.976 54.7564 175.962 51.6983C173.923 48.6283 173.491 44.7309 174.667 39.9939Z" fill="black"/>
<path d="M2.20669 73.3683C1.89489 73.1524 1.61907 72.4329 2.20669 72.0251C2.37458 71.9052 2.55446 71.7973 2.92622 71.5934C4.17341 70.8739 7.33935 69.5427 19.3196 68.3315C35.0413 66.7486 170.313 65.7532 200.594 66.6406C209.048 66.8925 214.001 67.0004 216.999 67.0604C220.165 67.1323 221.088 67.1443 221.556 67.2402C222.012 67.3242 222.204 68.0557 221.292 68.2716C221.172 68.3075 221.064 68.3075 220.933 68.3195C219.589 68.4035 169.606 70.1304 118.795 71.8213C113.542 72.0011 108.266 72.169 103.037 72.3249C73.1526 73.2723 44.5632 74.1837 27.7621 75.8147C18.7919 76.6901 14.3788 78.0332 12.6399 79.2324C12.6399 79.2324 12.2562 79.5083 11.8364 79.2684C11.4167 79.0046 2.32661 73.4882 2.1827 73.3803L2.20669 73.3683Z" fill="black"/>
</svg>
