<svg width="78" height="80" viewBox="0 0 78 80" fill="none" xmlns="http://www.w3.org/2000/svg">
<g clip-path="url(#clip0_1_37)">
<mask id="mask0_1_37" style="mask-type:luminance" maskUnits="userSpaceOnUse" x="2" y="2" width="76" height="79">
<path d="M77.331 2.00195H2.10449V80.002H77.331V2.00195Z" fill="white"/>
</mask>
<g mask="url(#mask0_1_37)">
<path d="M49.0452 30.6672C47.8947 30.0812 46.8063 29.3832 45.7957 28.5835C44.5755 27.6267 43.5807 26.4177 42.8815 25.0407C42.558 24.3254 42.3603 23.5606 42.297 22.7793C42.227 21.7302 42.3815 20.6784 42.751 19.6927C43.1203 18.707 43.6957 17.8099 44.44 17.0601C46.523 15.2017 49.26 14.2287 52.0608 14.351C57.6088 14.351 61.3258 18.0249 61.3258 23.3427V24.2226H75.3517V23.0417C75.3517 11.2638 65.027 2.00195 52.0452 2.00195C38.7982 2.00195 28.3877 11.2638 28.3877 22.6018C28.3877 29.1855 31.1618 35.2055 36.819 38.81C39.5317 40.5442 42.362 42.0915 45.2892 43.441L54.4217 47.8325C57.7803 49.4687 62.744 52.1625 63.1725 57.0942C63.2942 58.3655 63.121 59.6472 62.6657 60.842C62.2107 62.0365 61.4857 63.1122 60.5465 63.9867C59.441 65.0267 58.1385 65.8397 56.714 66.3787C55.2897 66.918 53.7717 67.1725 52.2477 67.128C46.4035 67.128 41.0658 63.1995 41.0658 54.5937V45.5402H2.10449V58.2135H27.819C28.2942 64.913 30.936 70.061 34.6373 73.4337C39.8035 78.0647 44.9543 80.002 52.279 80.002C58.5693 79.9492 64.653 77.7707 69.5232 73.8275C71.8767 71.9662 73.7965 69.6235 75.151 66.9592C76.5052 64.2947 77.2623 61.372 77.37 58.391C77.37 51.0665 74.3545 44.4982 67.9335 40.4077C65.0528 38.518 62.04 36.8337 58.918 35.3677L49.0452 30.6672Z" fill="black"/>
</g>
</g>
<defs>
<clipPath id="clip0_1_37">
<rect width="77.5" height="80" fill="white"/>
</clipPath>
</defs>
</svg>
