<svg width="73" height="80" viewBox="0 0 73 80" fill="none" xmlns="http://www.w3.org/2000/svg">
<g clip-path="url(#clip0_3_50)">
<path d="M72.0159 79.8909C71.776 79.923 71.6766 79.8265 71.5178 79.6768C70.6252 78.8352 69.5779 77.0359 68.7252 76.0061C68.5524 75.7977 68.339 75.4108 68.0725 75.3989V79.8909H67.7437V74.5231L68.134 74.6259L71.6857 79.1241C71.7697 77.7138 71.5766 76.188 71.6864 74.7917C71.713 74.4552 71.6326 74.5098 72.0152 74.5231V79.8909H72.0159Z" fill="black"/>
<path d="M60.1861 80H59.2004C55.8243 79.0374 56.4623 74.1929 60.1357 74.5182C63.111 74.7819 63.1571 79.4529 60.1861 80ZM59.1717 74.8777C56.5273 75.3353 56.8596 79.7516 59.7859 79.6635C63.0333 79.5656 62.7339 74.2621 59.1717 74.8777Z" fill="black"/>
<path d="M29.9542 80H28.9685C25.4091 79.0297 26.4683 73.8046 30.1795 74.5706C30.5412 74.6455 31.6878 75.2345 31.5968 75.6704C31.5143 76.0663 30.8924 75.2821 30.758 75.1968C29.7514 74.5588 28.4131 74.7553 27.6729 75.6906C26.1828 77.5732 27.9283 80.17 30.1977 79.5292C30.565 79.5607 31.3639 78.6079 31.5982 78.7387C31.8067 78.8555 31.573 78.9716 31.4877 79.0675C31.0274 79.5859 30.5894 79.7587 29.9542 79.9986V80Z" fill="black"/>
<path d="M43.7561 80C43.5028 79.7496 42.2107 79.5453 42.7172 79.0143C43.4035 79.5516 44.4528 79.9461 45.237 79.3452C45.6099 79.0598 45.7184 78.5722 45.57 78.13C45.2482 77.1737 42.2842 77.541 42.6857 75.5885C42.9257 74.4216 44.6585 74.2209 45.5036 74.8015C45.8156 75.0163 45.9618 75.3772 45.5015 75.2436C45.2979 75.1849 45.1048 74.9379 44.7718 74.8763C43.2125 74.5874 42.2499 76.0684 43.7309 76.7932C44.4137 77.1276 45.6085 77.1779 45.91 78.0062C46.2892 79.0479 45.6645 79.6516 44.7418 79.9993H43.7561V80Z" fill="black"/>
<path d="M34.4847 5.98272L3.01317 51.9046C2.74454 52.1424 1.30342 52.1096 0.868292 52.0697C0.0141176 51.9913 -0.107608 51.4582 0.153332 50.6866L33.4794 2.18406C34.6085 0.628215 35.6173 -1.10392 37.5572 0.913639L71.904 51.0336C71.9677 51.3337 71.7907 51.8087 71.5297 51.9626C71.2688 52.1165 69.5842 52.12 69.217 52.0704C69.0644 52.0494 68.9301 52.0508 68.8357 51.9039L37.6195 6.21988C36.8157 5.19151 35.4291 5.07748 34.4847 5.98202V5.98272Z" fill="black"/>
<path d="M67.5254 52.0648H64.732L37.3473 12.1886C36.2658 11.3106 35.1598 11.4897 34.2902 12.5258L7.11614 52.0648H4.32275L35.3172 6.87047C35.6831 6.5067 35.9258 6.38077 36.4085 6.6648L67.5247 52.0648H67.5254Z" fill="black"/>
<path d="M63.2531 52.0648H60.6786L37.667 18.88C36.7422 17.5725 35.0618 17.7005 34.1803 18.9898L11.3331 52.0655H8.59497L35.3745 13.0624C35.8719 12.6636 36.3476 12.8021 36.6918 13.2827L63.2531 52.0648Z" fill="black"/>
<path d="M54.8191 52.0648H50.3279L37.4516 33.2282C36.326 32.0109 34.8485 32.4356 34.0741 33.7822L21.4658 52.0655H17.1389L35.3186 25.7463C35.7027 25.4161 36.156 25.3174 36.5317 25.7141L54.8191 52.0655V52.0648Z" fill="black"/>
<path d="M59.0907 52.0648H56.2974L37.6671 25.2335C36.3729 23.7119 35.1382 24.054 34.0273 25.5182C27.8025 33.7214 22.2374 42.8661 16.1728 51.2624C16 51.5016 15.7874 51.7758 15.7146 52.0641H12.7568L35.4845 19.3081C35.8384 19.0479 36.1966 19.0731 36.5331 19.3564L59.09 52.0641L59.0907 52.0648Z" fill="black"/>
<path d="M71.9069 57.6515V59.7328H65.6086C65.4128 59.7328 64.6803 60.0119 64.511 60.1686C64.0787 60.5709 63.9968 61.4607 64.2536 61.9644C64.3788 62.2106 65.0315 62.6905 65.2798 62.6905H71.797V64.5528H65.4988C65.3673 64.5528 64.709 64.8207 64.5628 64.9313C63.8443 65.4741 63.866 66.7949 64.639 67.2755C64.7076 67.3182 65.1413 67.5113 65.17 67.5113H71.9062V69.5925H64.7314C64.5404 69.5925 63.6498 69.2532 63.4295 69.1413C61.3196 68.0674 61.3252 64.5402 63.582 63.6217C61.6197 62.9942 61.4189 59.9216 62.7908 58.6365C63.3203 58.1405 64.6782 57.6508 65.3883 57.6508H71.9055L71.9069 57.6515Z" fill="black"/>
<path d="M9.80034 57.6515V59.7328H3.39228C2.92917 59.7328 2.26388 60.2029 2.15544 60.687C1.92249 61.7286 2.30515 62.4597 3.39228 62.5814C5.58683 62.8277 9.25328 61.8287 10.3691 64.4772C11.0253 66.0345 10.7098 68.2437 9.15814 69.1133C8.8972 69.2595 8.14096 69.5918 7.88422 69.5918H0.160972V67.675L0.325371 67.5106H7.55472C8.45157 67.5106 8.97205 65.7036 8.18224 64.9893C6.92091 63.849 3.02151 65.3636 1.0949 63.7826C-0.388191 62.5653 -0.381195 59.4278 1.21942 58.3259C1.59859 58.065 2.73959 57.6508 3.17332 57.6508H9.80034V57.6515Z" fill="black"/>
<path d="M55.8047 59.7335H50.383C50.0416 59.7335 49.1364 60.0532 48.823 60.2546C46.8229 61.5369 46.8817 67.0992 49.9542 67.5022C50.5551 67.5812 52.9777 67.5973 53.508 67.4602C54.9701 67.0817 54.6042 64.3345 53.4499 64.3345H50.3285V62.6367C50.3977 62.5282 50.4796 62.4947 50.6027 62.4723C51.0917 62.3827 52.5706 62.4296 53.1267 62.4674C54.926 62.5919 56.1888 63.3369 56.3573 65.2615C56.7477 69.7135 53.4492 69.8744 49.9416 69.5967C46.031 69.2875 44.9991 65.4398 45.5231 62.1022C45.9086 59.6432 47.626 57.6522 50.2746 57.6522H55.6417L55.8061 57.8166V59.7335H55.8047Z" fill="black"/>
<path d="M40.9081 69.5932H38.6079L34.838 59.7258C34.4469 59.4837 34.0013 59.6173 33.8166 60.0357L30.0641 69.5932H27.7639L32.0551 58.7121C32.7938 57.1248 35.7628 57.0394 36.6568 58.4525L40.9074 69.5932H40.9081Z" fill="black"/>
<path d="M24.4781 57.6515V59.7335H21.0824V69.5932H18.8913V59.7335H15.4956V57.6515H24.4781Z" fill="black"/>
<path d="M11.4976 74.5224C13.2164 74.7644 13.406 77.0863 11.7683 77.6487L12.9765 79.8888L12.556 79.8713L11.443 77.6991H9.58075V79.8902H9.25195V74.5224C9.95362 74.5923 10.819 74.4265 11.4976 74.5224ZM9.58075 74.961V77.2066L9.74515 77.371H11.3884C12.3063 77.371 12.8484 76.2055 12.3448 75.429C12.2769 75.3241 11.8718 74.961 11.8264 74.961H9.58075Z" fill="black"/>
<path d="M0.70865 77.8089V79.8902H0.27002V74.6868L0.434418 74.5224H2.51564C3.21101 74.5224 3.96655 75.429 3.98404 76.1216C3.99943 76.7092 3.36492 77.8089 2.7346 77.8089H0.70865ZM0.70865 77.4809H2.62547C2.97665 77.4809 3.51532 76.8442 3.5594 76.442C3.61256 75.9586 3.25438 74.961 2.7346 74.961H0.70865V77.4809Z" fill="black"/>
<path d="M18.6723 74.961V76.9331H21.3013V77.2612H18.6723V79.5621H21.9582V79.8909H18.3435V74.5224H21.7938L21.9582 74.6889L21.7938 74.961H18.6723Z" fill="black"/>
<path d="M37.2934 74.5224H36.9646V79.8902H37.2934V74.5224Z" fill="black"/>
<path d="M51.6423 74.5224H51.3135V79.8902H51.6423V74.5224Z" fill="black"/>
</g>
<defs>
<clipPath id="clip0_3_50">
<rect width="72.0158" height="80" fill="white"/>
</clipPath>
</defs>
</svg>
