<svg width="201" height="67" viewBox="0 0 201 67" fill="none" xmlns="http://www.w3.org/2000/svg">
<g clip-path="url(#clip0_1_65)">
<path d="M96.57 25.87C67.16 17.39 37.21 10.65 6.76 6.92L0 0C34.07 3.42 67.43 11.76 100.05 21.77C132.65 11.7 166.07 3.35 200.11 0C198.2 1.01 194.26 6.49 193.35 6.92C189.46 8.77 170.28 10.09 164.09 11.25C147.09 14.44 121.16 19.09 105.54 25.37C104.38 25.84 103.35 26.36 102.55 27.36V46.77H96.58V25.86L96.57 25.87Z" fill="black"/>
<path d="M20.41 42.8C19.6 42.72 17.23 42.39 17.14 41.35C19.2 32.08 15.84 20.84 10.95 12.94L49.68 19L49.78 24.88L20.91 19.91L23.91 36.83C24.25 37.33 25.19 35.83 25.39 35.83H51.77V59.72L6.97 66.68C6.38 66.16 9.74 61.4 10.24 61.01C13.53 58.41 44.02 56.6 45.69 54.64L45.8 42.8C37.63 42.21 28.45 43.6 20.41 42.8Z" fill="black"/>
<path d="M156.31 43.8L157.24 55.3L188.26 60.15L193.15 66.19L152.02 60.53L150.32 58.24L150.43 19L189.16 12.94L185.44 18.91L156.31 23.88V37.82H182.19L183.19 43.8H156.31Z" fill="black"/>
<path d="M145.35 19.9V43.79H113.49V50.76L107.58 49.71L108.49 29.33L145.35 19.9ZM113.5 37.82H139.38C139.11 35.12 139.76 31.92 139.38 29.32C139.16 27.83 139.97 27.74 137.89 27.85C135.6 27.97 115.29 32.9 114.07 33.73L113.49 37.82H113.5Z" fill="black"/>
<path d="M69.69 29.86L54.73 26.4L54.27 19.89L90.9 29.05L92.46 30.48L92.58 35.83L76.66 31.85V52.26L69.69 54.75V29.86Z" fill="black"/>
</g>
<defs>
<clipPath id="clip0_1_65">
<rect width="200.11" height="66.69" fill="white"/>
</clipPath>
</defs>
</svg>
