<svg width="80" height="80" viewBox="0 0 80 80" fill="none" xmlns="http://www.w3.org/2000/svg">
<path fill-rule="evenodd" clip-rule="evenodd" d="M40 77.5C60.71 77.5 77.5 60.71 77.5 40C77.5 19.29 60.71 2.5 40 2.5C19.29 2.5 2.5 19.29 2.5 40C2.5 60.71 19.29 77.5 40 77.5ZM49.5925 60.85C58.7625 56.5175 61.635 48.5175 62.2825 45.4C58.9325 48.835 55.22 52.3175 52.725 49.9075C52.725 49.9075 52.59 37.0475 52.59 31.775C52.59 24.6875 59.315 19.4025 59.315 19.4025C55.615 20.06 51.175 21.3775 46.4625 26.0025C46.0365 26.4247 45.6327 26.8686 45.2525 27.3325C43.235 25.785 40.6175 26.2475 40.6175 26.2475C42.03 27.025 43.4425 29.2875 43.4425 31.1625V49.575C43.4425 49.575 40.3575 52.2875 37.9825 52.2875C37.4464 52.2922 36.9171 52.1684 36.4386 51.9266C35.9602 51.6848 35.5466 51.3319 35.2325 50.8975C35.0448 50.6517 34.8894 50.3828 34.77 50.0975V27.3475C34.07 27.9275 31.695 28.405 31.695 24.465C31.695 22.015 33.4575 19.0975 36.6 17.3075C32.2861 17.9651 28.2459 19.8284 24.945 22.6825C22.4368 24.8495 20.4308 27.5369 19.0665 30.5578C17.7022 33.5787 17.0124 36.8605 17.045 40.175C17.045 40.175 19.345 32.995 22.22 32.3325C22.6393 32.222 23.0786 32.211 23.5028 32.3005C23.9271 32.3899 24.3246 32.5772 24.6636 32.8475C25.0026 33.1178 25.2738 33.4636 25.4555 33.8573C25.6372 34.251 25.7243 34.6816 25.71 35.115V51.97C25.71 53.68 24.61 54.0525 23.59 54.035C22.9008 53.9864 22.2196 53.858 21.56 53.6525C23.6616 56.4954 26.392 58.814 29.5379 60.4273C32.6837 62.0405 36.1599 62.9048 39.695 62.9525L45.91 56.7075L49.5925 60.85Z" fill="black"/>
</svg>
