<svg width="130" height="80" viewBox="0 0 130 80" fill="none" xmlns="http://www.w3.org/2000/svg">
<path d="M64.2543 4.12007L61.7408 13.4883L57.628 25.5222L54.5052 36.0329L52.9058 44.7156V44.7918L48.4121 52.1035L44.5277 65.9654L40.8718 79.5988L40.7957 79.6749L26.1722 79.8273H26.096C26.096 79.8273 26.0198 79.8273 26.0198 79.7511L22.2116 68.098V68.0218L18.6319 52.1035L15.9662 43.1161L9.79685 28.7973H9.72069L5.83632 12.879L1.72345 4.34856V4.2724V4.19624H1.79961V4.12007H1.87578L11.3201 6.78582L20.6883 4.65322H20.7645H20.8407V4.72938L23.2779 12.422V12.4981L24.1157 21.0285L28.9141 31.9962L33.3316 45.4011L37.3683 31.3869V31.3107L39.5009 25.1414L43.0806 14.6307L45.594 3.73925V3.66309H45.6702L51.9156 4.12007L64.1019 3.96774H64.1781V4.04391H64.2543V4.12007ZM22.0593 12.1173L16.2708 9.3754L10.1015 15.5447L22.2116 12.5743L22.0593 12.1173ZM16.4993 9.22307L21.9831 11.8127L20.6122 5.03404L16.4993 9.22307ZM43.0044 34.2811L45.594 29.3304L42.0905 26.5885L43.0044 34.2811ZM45.8225 29.4827L43.0806 34.5857L53.9721 35.8044L45.8225 29.4827ZM42.2428 26.4362L45.7464 29.1019L47.2696 26.1315L42.2428 26.4362ZM42.3951 26.1315L47.422 25.903L49.9354 21.1047L42.3951 26.1315ZM51.0778 14.4022L50.4685 20.1907L54.0483 14.2499L51.0778 14.4022ZM50.1639 20.4954L50.7732 14.4022L43.5376 14.7069L50.1639 20.4954ZM51.0778 14.1737L53.9721 14.0214L51.3825 10.8987L51.0778 14.1737ZM51.4587 10.5179L53.9721 13.6406L51.9918 5.03404L51.4587 10.5179ZM51.2302 10.2894L51.7633 4.65322L49.1737 7.77595L51.2302 10.2894ZM51.154 10.594L49.0214 8.00445L43.5376 14.4784L50.8493 14.1737L51.154 10.594ZM50.0877 20.6477L43.3091 14.8592L42.319 23.9228L50.0877 20.6477ZM49.1737 21.3332L42.319 24.1513L42.0905 26.0554L49.1737 21.3332ZM41.7858 26.1315L42.0143 24.3036L39.8817 25.1414L41.7858 26.1315ZM41.7097 26.36L39.8055 25.3699L40.5672 27.6548L41.7097 26.36ZM41.862 26.5885L40.7195 27.8833L42.6236 33.5195L41.862 26.5885ZM42.6998 34.3573L40.491 28.1118L37.6729 31.3869L42.6998 34.3573ZM24.0396 65.4322L24.9535 67.9457L31.5037 68.098L24.9535 63.8328L24.0396 65.4322ZM24.6489 67.9457L23.8872 65.6607L22.5924 67.9457H24.6489ZM28.0763 48.2191L19.1651 52.0273L30.2089 54.2361L28.0763 48.2191ZM19.7744 51.4942L28.0001 47.9906L27.3908 46.2389L19.7744 51.4942ZM26.096 61.9287L25.1059 63.6043L31.7321 67.9457L31.0467 61.2432L26.096 61.9287ZM24.8774 63.452L25.7913 62.0049L23.2018 62.3857L24.8774 63.452ZM26.2483 61.624L30.9705 60.9386L30.3612 54.7693L26.2483 61.624ZM30.5897 54.6931L31.2752 60.9386L37.216 60.0246L30.5897 54.6931ZM30.5897 54.3884L37.2921 59.7961L33.3316 46.2389L30.5897 54.3884ZM30.4374 54.0076L33.1793 46.0865L28.3048 48.143L30.4374 54.0076ZM25.9437 61.7002L29.7519 55.2262L23.2018 62.081L25.9437 61.7002ZM24.8012 63.6805L23.1256 62.6142L23.9634 65.1276L24.8012 63.6805ZM31.7321 68.3265L25.0297 68.1742L27.7716 76.2476L31.7321 68.3265ZM30.742 70.8399L27.8478 76.5522L28.1524 77.39L30.742 70.8399ZM31.9606 68.4788L28.3048 77.6185L38.2061 77.4662L31.9606 68.4788ZM31.2752 61.1671L31.9606 67.8695L37.216 60.3292L31.2752 61.1671ZM33.5601 46.0865L37.5206 59.8723L44.6801 50.7326L33.5601 46.0865ZM34.2456 46.0865L44.8324 50.5041L47.1173 47.6098L34.2456 46.0865ZM33.6362 45.7819L47.1935 47.3813L42.8521 34.8904L33.6362 45.7819ZM28.2286 47.9145L32.7223 46.0104L27.6193 46.1627L28.2286 47.9145ZM17.2609 37.0992L28.4571 32.0723L17.8703 28.2641L17.2609 37.0992ZM28.6094 32.2247L17.3371 37.3277L27.3908 45.7819L28.6094 32.2247ZM19.2412 23.5419L20.4598 19.8861L10.0253 16.0017L16.0423 25.2176L19.2412 23.5419ZM20.6883 19.9622L19.5459 23.3134L23.7349 21.0285L20.6883 19.9622ZM19.0889 23.8466L16.1946 25.446L17.7179 27.8071L19.0889 23.8466ZM17.5656 27.9595L15.9662 25.5984L10.4823 28.5688L17.5656 27.9595ZM19.3935 23.6943L18.0988 27.5786L23.4302 21.4855L19.3935 23.6943ZM20.7645 19.7337L23.8111 20.8762L22.5924 14.6307L20.7645 19.7337ZM20.536 19.6576L22.5163 14.0976L22.2116 12.879L10.1015 15.7732L20.536 19.6576ZM22.4401 12.8028L22.6686 13.6406L22.9733 12.6505L22.4401 12.8028ZM22.4401 12.5743L22.8209 12.422L22.3639 12.2696L22.4401 12.5743ZM9.87302 15.3924L16.0423 9.22307L11.4725 7.09047L9.87302 15.3924ZM9.64453 15.4685L11.1678 7.31897L7.05494 11.7365L9.64453 15.4685ZM9.18754 15.1639L6.90262 11.8888L6.14097 12.8028L9.18754 15.1639ZM15.8138 25.3699L9.87302 16.2302L10.0253 28.5688L15.8138 25.3699ZM17.6418 28.2641L10.1015 28.8734L16.7278 36.6422L17.6418 28.2641ZM17.1848 34.5096L16.9563 36.8707L17.0325 37.023L17.1848 34.5096ZM16.9563 37.3277L16.8801 37.2515L16.6516 39.0033L16.9563 37.3277ZM17.1086 38.1655L16.2708 42.9638L17.6418 43.3446L17.1086 38.1655ZM17.2609 37.6323L17.8703 43.4208L26.9338 45.7819L17.2609 37.6323ZM27.1623 46.0865L17.9464 43.6493L18.8604 51.875L27.1623 46.0865ZM30.1327 54.4646L18.9366 52.2558L22.8971 62.081L30.1327 54.4646ZM23.8111 65.3561L22.8971 62.8427L22.5163 67.4887L23.8111 65.3561ZM24.725 68.1742H22.5924L27.5431 76.5522H27.6193L24.725 68.1742ZM27.9239 77.6947L27.6193 77.0854L26.6291 79.0656L27.9239 77.6947ZM28.1524 77.847L26.4768 79.5226L32.4938 78.4563L28.1524 77.847ZM29.6757 77.847L33.2554 78.304L36.9113 77.6947L29.6757 77.847ZM38.4346 77.6947L34.0932 78.4563L40.3387 79.3703L38.4346 77.6947ZM38.5869 77.5424L39.8817 78.6087L38.8154 77.2377L38.5869 77.5424ZM38.4346 77.3139L38.5869 77.0092L34.7025 71.9824L38.4346 77.3139ZM32.113 68.2503L38.7393 76.7807L44.1469 66.0416L32.113 68.2503ZM32.1891 68.0218L44.0707 65.8131L37.5206 60.3292L32.1891 68.0218ZM44.9085 50.8087L38.1299 59.4914L48.1074 52.1035L44.9085 50.8087ZM45.0609 50.5802L48.1836 51.875L47.2696 47.7622L45.0609 50.5802ZM47.3458 47.229L50.3162 42.4307L43.2329 35.1189L47.3458 47.229ZM50.4685 42.583L47.6505 47.1528L52.525 44.6394L50.4685 42.583ZM43.2329 34.8142L50.4685 42.2022L54.2006 36.109L43.2329 34.8142ZM45.8987 29.2543L54.2006 35.652L51.5348 25.903L47.5743 26.1315L45.8987 29.2543ZM47.7266 25.903L51.5348 25.6745L50.24 21.0285L47.7266 25.903ZM50.4685 20.9524L51.7633 25.6745L57.171 25.3699L50.4685 20.9524ZM50.5447 20.7239L57.3233 25.2176L55.1907 17.7535L50.5447 20.7239ZM50.697 20.343L55.1145 17.525L54.2006 14.4022L50.697 20.343ZM54.4291 14.2499L55.343 17.3726L61.1315 13.6406L54.4291 14.2499ZM54.5814 13.9453L61.36 13.4121L58.1611 10.3655L54.5814 13.9453ZM54.2767 13.8691L58.0088 10.137L52.1441 4.65322L54.2767 13.8691ZM52.2203 4.42473L58.1611 9.98471L63.7973 4.2724L52.2203 4.42473ZM49.0214 7.54746L51.6872 4.34856L45.9748 3.89158L49.0214 7.54746ZM45.7464 4.04391L43.4614 14.1737L48.8691 7.77595L45.7464 4.04391ZM42.0905 23.9989L43.0044 15.697L39.8055 24.9129L42.0905 23.9989ZM39.6532 25.5222L37.8253 30.8537L40.4149 27.8071L39.6532 25.5222ZM37.5206 31.5392L33.6362 45.3249L42.6998 34.7381L37.5206 31.5392ZM27.6193 45.8581L33.1793 45.7057L28.8379 32.6055L27.6193 45.8581ZM17.9464 28.0356L28.5332 31.8438L23.9634 21.257L17.9464 28.0356ZM22.7448 14.1737L23.6587 18.6674L23.1256 13.0313L22.7448 14.1737ZM22.2878 11.965L22.9733 12.2696L21.2976 6.93815L22.2878 11.965ZM16.2708 9.07074L20.3075 4.95788L11.701 6.93815L16.2708 9.07074ZM6.97878 11.508L11.0916 6.93815L2.10427 4.50089L6.97878 11.508ZM6.75029 11.7365L2.63742 5.64336L5.98864 12.5743L6.75029 11.7365ZM9.56836 15.8494L6.14097 13.1074L9.72069 27.6548L9.56836 15.8494ZM16.6516 36.9468L10.33 29.4827L16.0423 42.583L16.6516 36.9468ZM17.6418 43.5731L16.2708 43.1923L18.4796 50.6564L17.6418 43.5731ZM22.7448 62.3095L19.2412 53.5506L22.2878 67.2602L22.7448 62.3095ZM27.4669 76.8569L22.8209 69.012L26.1722 79.3703L27.4669 76.8569ZM33.2554 78.6087L27.6954 79.5226L39.1962 79.4465L33.2554 78.6087ZM40.7195 79.2941L43.9946 66.9555L38.8916 76.933L40.7195 79.2941ZM44.2992 65.6607L48.1074 52.4082L37.6729 60.1769L44.2992 65.6607ZM48.4121 51.7989L52.4488 45.0202L47.4981 47.5337L48.4121 51.7989ZM52.6773 44.4109L54.1244 36.6422L50.6209 42.3545L52.6773 44.4109ZM54.4291 35.4997L57.3233 25.5984L51.8395 25.903L54.4291 35.4997ZM57.5518 25.0652L61.4362 13.7929L55.343 17.6011L57.5518 25.0652ZM61.5885 13.2598L63.8734 4.50089L58.3134 10.137L61.5885 13.2598ZM76.3644 75.5621L76.5167 57.9682L77.2783 50.3517L76.212 35.4236L78.5731 25.9792L76.2882 15.3924V3.89158H76.3644L76.4405 3.73925L88.7791 4.50089L99.5183 3.66309L111.476 5.64336L127.775 3.73925V3.89158H127.928V20.343H127.775V20.4954L114.675 20.7239L105.002 20.4954L98.1473 20.4192L95.2531 26.9693L95.3292 31.5392L108.506 35.0427L123.129 33.291V33.3671H123.205L123.129 45.8581H122.977L123.053 46.0104L114.675 49.8948L114.751 49.9709L94.6438 50.1232L94.7961 62.8427L108.049 62.995H119.169L127.775 63.1473V63.2997H127.928L128.156 79.4465L128.004 79.5226V79.5988L114.446 79.4465L103.707 79.7511L93.8821 79.5226L80.7819 79.8273V79.7511L80.7057 79.8273L76.3644 79.6749V79.5226H76.212L76.3644 75.5621ZM92.8158 15.24L85.1994 14.3261L94.7199 19.9622L92.8158 15.24ZM84.8186 14.0214L92.7397 15.0116L88.7791 4.95788L84.8186 14.0214ZM93.1205 15.3162L94.9484 19.8861L96.0909 15.6209L93.1205 15.3162ZM96.3955 15.697L95.1769 19.8861L99.7468 16.0779L96.3955 15.697ZM103.783 16.3063L104.012 17.1441L105.992 17.7535L106.602 16.4587L103.783 16.3063ZM103.707 17.068L103.479 16.3063L100.965 16.154L103.707 17.068ZM112.466 16.5348L113.761 16.8395L113.609 16.0779L112.466 16.5348ZM113.761 17.068L112.314 16.7633L114.37 19.9622L113.761 17.068ZM112.162 16.3825L113.532 15.8494L111.705 7.31897L112.162 16.3825ZM111.933 16.4587L111.4 6.32883L106.982 16.2302L111.933 16.4587ZM111.095 16.611L106.906 16.4587L106.297 17.6773L111.095 16.611ZM105.535 17.8296L104.088 17.4488L104.317 18.1343L105.535 17.8296ZM105.916 18.0581L104.393 18.3628L105.002 20.0384L105.916 18.0581ZM112.009 16.6872L106.449 17.9058L114.37 20.343L112.009 16.6872ZM114.066 17.1441L114.751 20.343L116.731 17.8296L114.066 17.1441ZM113.989 16.9157L116.884 17.6011L120.159 13.4121L113.837 16.0017L113.989 16.9157ZM120.616 13.3359L117.188 17.6773L127.394 20.1146L120.616 13.3359ZM113.761 15.7732L120.311 13.1074L111.705 6.10034L113.761 15.7732ZM106.754 16.154L111.171 6.25267L102.869 13.6406L103.631 16.0017L106.754 16.154ZM103.403 16.0017L102.641 13.7929L100.28 15.8494L103.403 16.0017ZM100.128 15.697L102.565 13.5644L99.6706 4.72938L100.128 15.697ZM99.8991 15.697L99.4421 4.65322L97.1572 12.879L99.8991 15.697ZM99.6706 15.8494L97.081 13.1836L96.4717 15.4685L99.6706 15.8494ZM96.167 15.3924L96.8525 12.9551L89.0838 5.11021L93.0443 15.0116L96.167 15.3924ZM84.6663 13.8691L88.3983 5.11021L82.0005 10.6702L84.6663 13.8691ZM84.4378 14.0214L81.8482 10.8225L76.8213 15.1639L84.4378 14.0214ZM94.7199 20.2669L84.7424 14.3261L78.9539 25.7507L94.7199 20.2669ZM94.7961 20.4954L79.1063 25.9792L93.1966 30.9299L94.7961 20.4954ZM96.3955 42.4307L95.0246 42.3545L94.7199 48.8285L96.3955 42.4307ZM95.0246 42.126H96.3955L95.1769 38.0893L95.0246 42.126ZM95.2531 37.3277L96.167 40.6027L95.3292 34.6619L95.2531 37.3277ZM95.0246 36.566L95.1769 33.6718L94.4153 34.4334L95.0246 36.566ZM94.9484 37.3277L94.1868 34.6619L86.9512 42.0498L94.7961 42.126L94.9484 37.3277ZM87.332 41.3644L94.1106 34.3573L93.2728 31.3869L87.332 41.3644ZM94.7199 42.3545H86.9512L94.4153 49.6663L94.7199 42.3545ZM96.624 42.4307L94.7199 49.7424L106.906 45.0202L96.624 42.4307ZM107.516 44.7156L111.248 42.2022L108.582 35.652L107.516 44.7156ZM111.4 42.4307L107.744 44.8679L112.466 45.1726L111.4 42.4307ZM112.619 45.4011L107.744 45.1726L114.294 49.5139L112.619 45.4011ZM112.847 45.4011L114.523 49.4378L115.437 45.5534L112.847 45.4011ZM112.771 45.1726L115.513 45.3249L117.112 38.5463L111.552 42.2783L112.771 45.1726ZM117.341 38.5463L115.741 45.3249L122.748 45.7057L117.341 38.5463ZM111.476 42.0498L117.036 38.3178L108.734 35.4236L111.476 42.0498ZM107.211 44.7156L108.353 35.4236L101.727 39.3841L107.211 44.7156ZM106.906 44.7918L101.499 39.4603L96.8525 42.2022L106.906 44.7918ZM96.624 42.0498L101.27 39.3079L95.4816 33.6718L96.624 42.0498ZM94.3391 34.1288L95.1007 33.291L93.5775 31.6153L94.3391 34.1288ZM86.6465 42.0498L93.0443 31.3107L76.669 35.4997L86.6465 42.0498ZM94.2629 49.8948L86.6465 42.3545L77.7353 50.1994L94.2629 49.8948ZM94.1868 50.1232L77.583 50.5041L82.6098 61.0147L94.1868 50.1232ZM78.4208 77.2377L80.5534 79.3703H80.7057L83.143 71.6015L78.4208 77.2377ZM80.2487 79.3703L78.2685 77.4662L76.5928 79.4465L80.2487 79.3703ZM81.0104 79.3703H81.9243L91.4449 77.6185L83.4476 71.2207L81.0104 79.3703ZM93.8821 77.0854V76.7046L84.5139 71.7539L91.7495 77.5424L93.8821 77.0854ZM94.1868 76.8569L94.1106 77.0854L94.4914 77.0092L94.1868 76.8569ZM93.8821 77.39L91.978 77.6947L93.806 79.1418L93.8821 77.39ZM91.6734 77.7709L83.2953 79.3703L93.5775 79.2941L91.6734 77.7709ZM94.1106 77.3139V78.6848L94.6438 77.2377L94.1106 77.3139ZM94.1868 76.5522L94.7199 76.8569L94.5676 67.184L94.1868 76.5522ZM93.9583 76.3999L94.4914 63.2235L83.6761 70.9922L93.9583 76.3999ZM78.1923 77.0854L82.7621 71.6015L76.669 75.5621L78.1923 77.0854ZM94.9484 77.2377L94.3391 78.6848L95.4054 77.3139L94.9484 77.2377ZM95.1007 77.0092L95.5577 77.1615L99.4421 72.1347L95.1007 77.0092ZM102.108 69.5451L105.535 72.2109L106.297 69.4689L102.108 69.5451ZM105.459 72.5155L101.956 69.6974L103.783 79.0656L105.459 72.5155ZM101.651 69.6974L95.7862 77.2377L103.555 79.4465L101.651 69.6974ZM105.688 72.6678L104.012 79.0656L107.896 74.3435L105.688 72.6678ZM105.764 72.3632L108.049 74.115L110.943 70.6876L110.41 69.3928L106.525 69.4689L105.764 72.3632ZM122.368 65.5084L118.179 67.1079L118.026 67.4887L124.348 65.8131L122.368 65.5084ZM118.255 66.8032L121.834 65.4322L118.788 64.8991L118.255 66.8032ZM117.798 67.5648L117.874 67.184L114.599 68.4788L117.798 67.5648ZM112.162 69.5451L111.171 70.6876L113.989 77.7709L112.162 69.5451ZM111.095 70.4591L112.009 69.3928H110.714L111.095 70.4591ZM112.39 69.3166L114.523 78.761L117.645 67.8695L112.39 69.3166ZM110.562 69.1643L112.009 69.0881L108.582 64.1375L110.562 69.1643ZM110.334 69.1643L108.125 63.5281L106.602 69.2405L110.334 69.1643ZM111.019 70.9161L108.277 74.2673L114.218 78.9133L111.019 70.9161ZM117.95 67.7933L114.751 78.6848L124.576 65.9654L117.95 67.7933ZM124.881 65.5846L127.166 63.6043L123.586 64.9753L124.881 65.5846ZM124.043 65.5084L123.282 65.1276L122.825 65.2799L124.043 65.5084ZM122.368 65.2038L122.977 64.9753L119.245 63.2235L118.864 64.6706L122.368 65.2038ZM118.635 64.6706L118.94 63.452L117.798 64.5183L118.635 64.6706ZM118.559 64.8991L117.493 64.7468L112.847 68.8596L117.95 66.8794L118.559 64.8991ZM112.238 69.012L117.188 64.6706L108.353 63.2997L112.238 69.012ZM106.373 69.2405L107.82 63.5281L102.032 69.3166L106.373 69.2405ZM94.9484 76.7807L101.575 69.3928L94.7961 63.2235L94.9484 76.7807ZM83.5238 70.8399L94.3391 63.0712L82.686 61.3955L83.5238 70.8399ZM82.4575 61.7002L80.7819 65.6607L83.2191 70.3829L82.4575 61.7002ZM80.6296 65.4322L82.3813 61.2432L76.9737 58.2728L80.6296 65.4322ZM83.2191 70.9922L80.6296 65.9654L76.7452 75.2574L83.2191 70.9922ZM76.5928 75.8667L76.4405 79.218L78.04 77.3139L76.5928 75.8667ZM95.6339 77.39L94.1868 79.2941L102.793 79.4465L95.6339 77.39ZM108.125 74.4958L104.012 79.4465L114.142 79.218L108.125 74.4958ZM124.881 66.0416L114.751 79.1418L127.851 79.3703L124.881 66.0416ZM125.033 65.8131L127.851 78.304L127.623 63.5281L125.033 65.8131ZM123.282 64.8229L127.166 63.3758L119.778 63.2235L123.282 64.8229ZM117.417 64.4421L118.864 63.2235L109.648 63.2997L117.417 64.4421ZM101.727 69.2405L107.82 63.2997L95.0246 63.0712L101.727 69.2405ZM82.8383 61.1671L94.5676 62.8427L94.4153 50.2756L82.8383 61.1671ZM107.287 45.1726L95.1769 49.8186L114.142 49.7424L107.287 45.1726ZM115.665 45.6296L114.751 49.6663L122.52 45.9342L115.665 45.6296ZM117.417 38.3178L122.901 45.4772L122.977 33.6718L117.417 38.3178ZM117.265 38.1655L122.748 33.5956L109.039 35.2712L117.265 38.1655ZM101.499 39.1556L108.125 35.2712L95.6339 33.5195L101.499 39.1556ZM93.6536 31.3107L95.1769 32.9863L95.1007 31.6915L93.6536 31.3107ZM94.8723 21.714L93.5775 30.1682L95.0246 26.9693L94.8723 21.714ZM95.4054 20.0384L98.3758 19.4291L99.6706 16.4587L95.4054 20.0384ZM98.2235 19.7337L96.0909 20.1907H97.995L98.2235 19.7337ZM100.051 16.2302L98.6805 19.3529L102.641 18.5151L100.051 16.2302ZM100.508 16.3063L102.946 18.4389L104.088 18.1343L103.86 17.2965L100.508 16.3063ZM104.164 18.3628L103.174 18.5913L104.697 20.0384L104.164 18.3628ZM106.145 18.0581L105.154 20.2669L113.837 20.4192L106.145 18.0581ZM116.96 17.8296L114.903 20.4954L126.785 20.2669L116.96 17.8296ZM120.768 13.1074L127.623 20.0384V4.2724L120.768 13.1074ZM120.54 12.9551L127.471 4.04391L111.781 5.87185L120.54 12.9551ZM102.793 13.3359L111.248 5.87185L99.6706 3.96774L102.793 13.3359ZM96.9287 12.7266L99.3659 3.96774L89.0076 4.72938L96.9287 12.7266ZM81.8482 10.4417L88.4745 4.72938L76.669 4.04391L81.8482 10.4417ZM81.6959 10.594L76.5167 4.19624V15.0877L81.6959 10.594ZM84.4378 14.2499L76.5167 15.4685L78.7254 25.5984L84.4378 14.2499ZM78.8016 26.1315L76.5167 35.2712L92.892 31.0822L78.8016 26.1315ZM86.418 42.2022L76.4405 35.652L77.5068 50.1232L86.418 42.2022ZM77.5068 50.8087L76.7452 57.892L82.3052 60.9386L77.5068 50.8087ZM80.4772 65.7369L76.7452 58.5013L76.5928 74.9528L80.4772 65.7369ZM106.525 34.8142L95.4054 31.7677V33.2148L106.525 34.8142ZM95.1007 31.463L95.0246 27.5025L93.5013 31.006L95.1007 31.463ZM95.2531 26.4362L97.9188 20.4192H95.1007L95.2531 26.4362ZM98.5281 19.6576L98.2996 20.1907L104.621 20.2669L102.869 18.6674L98.5281 19.6576Z" fill="black"/>
</svg>
